<svg width="264" height="73" viewBox="0 0 264 73" fill="none" xmlns="http://www.w3.org/2000/svg">
<path d="M247.79 70.4703L261.58 20.6903C225.64 9.01027 180.64 2.05026 131.79 2.00026C82.94 1.95026 37.94 9.00027 2 20.6903L15.79 70.4503C49.09 61.4503 88.71 56.1702 131.25 56.1702H132.33C174.87 56.1902 214.49 61.4403 247.79 70.4703Z" fill="#C8684E" stroke="#FFEBB0" stroke-width="3" stroke-miterlimit="10"/>
<path d="M42.4169 51.9155C43.4612 51.6983 44.3012 51.2303 44.9368 50.5114C45.5933 49.7881 45.7634 48.8726 45.4473 47.7648C45.1253 46.6365 44.4407 45.8661 43.3937 45.4536C42.3676 45.0368 40.9889 44.7802 39.2577 44.6838C37.5415 44.5626 36.271 44.4138 35.4463 44.2376C34.6425 44.0571 33.8407 43.7674 33.041 43.3687C31.4416 42.5712 30.3228 41.0545 29.6846 38.8184C29.1635 36.9927 29.3735 35.2865 30.3147 33.7C31.2767 32.1091 32.9065 31.0748 35.204 30.5971C36.311 30.3669 37.5066 30.2921 38.7908 30.3728C40.09 30.4286 40.8859 30.4261 41.1783 30.3653C41.4707 30.3045 41.6732 30.0451 41.7859 29.587L42.1305 29.5154L44.1239 35.6856L43.6226 35.7898C42.1106 34.2135 40.649 33.0071 39.2375 32.1706C37.8411 31.3092 36.4954 31.0131 35.2004 31.2824C33.9264 31.5473 33.0192 32.0511 32.4788 32.7936C31.9326 33.5157 31.8 34.3691 32.081 35.3537C32.3562 36.3179 32.9877 36.9798 33.9754 37.3395C34.9781 37.6742 36.1424 37.8776 37.4684 37.9496C38.7944 38.0216 39.6629 38.08 40.074 38.125C40.506 38.1655 41.0362 38.24 41.6645 38.3484C42.3079 38.4319 42.8422 38.5599 43.2676 38.7322C43.7079 38.8797 44.1792 39.0968 44.6815 39.3835C45.1987 39.6454 45.6337 39.9679 45.9864 40.3509C46.8314 41.2183 47.4471 42.329 47.8335 43.6829C48.4658 45.8984 48.2651 47.8308 47.2312 49.4801C46.2124 51.1045 44.5542 52.1556 42.2567 52.6333C41.0661 52.8809 39.6542 53.0115 38.0207 53.0252C36.4082 53.0345 35.5184 53.0565 35.3513 53.0913C35.0589 53.1521 34.8647 53.5184 34.7688 54.1903L34.3302 54.2815L31.9267 47.0231L32.4593 46.9124C33.8877 48.506 35.5023 49.8219 37.3032 50.86C39.1249 51.8937 40.8295 52.2455 42.4169 51.9155Z" fill="#FDE7B6"/>
<path d="M55.9429 26.8354L72.4152 24.4793L73.9526 30.6514L73.3824 30.7329C72.0803 28.7455 70.8676 27.4339 69.7441 26.7983C68.6164 26.1418 67.1129 25.948 65.2333 26.2168L64.1246 26.3754L66.0295 36.0782L67.1065 35.9241C68.0991 35.7821 68.8613 35.2965 69.3933 34.4671C69.9211 33.6169 70.199 32.5441 70.227 31.2488L70.7021 31.1808L72.5269 40.4754L71.9883 40.5524C71.3 39.0368 70.5627 37.9908 69.7765 37.4146C69.0115 36.8353 68.0693 36.6257 66.95 36.7858L66.1898 36.8946L68.1686 46.9742L69.3724 46.802C71.3152 46.5241 72.8495 45.7128 73.975 44.3681C75.1217 43.0204 75.7717 41.4102 75.9251 39.5374L76.5587 39.4468L77.6491 46.3284L60.2581 48.8158L60.1225 48.125L61.9915 47.8577L57.9475 27.2589L56.0785 27.5262L55.9429 26.8354Z" fill="#FDE7B6"/>
<path d="M83.6853 23.3511L95.1571 22.2987L95.245 22.9971L91.8672 23.307L94.4898 44.1346L95.6369 44.0293C97.4427 43.8637 98.8074 43.1818 99.731 41.9837C100.676 40.7837 101.557 38.99 102.374 36.6027L103.043 36.5413L103.373 44.0262L86.4837 45.5756L86.3957 44.8771L88.2759 44.7046L85.6533 23.8771L83.7732 24.0495L83.6853 23.3511Z" fill="#FDE7B6"/>
<path d="M122.976 42.8918L120.265 36.0829L113.934 36.3346L111.848 43.3342L114.246 43.2389L114.28 43.846L109.387 44.0405L109.354 43.4334L110.857 43.3736L117.813 21.0981L120.435 20.9938L129.69 42.6248L131.161 42.5663L131.194 43.1734L120.738 43.5891L120.705 42.982L122.976 42.8918ZM116.732 27.1291L114.183 35.6202L119.971 35.3901L116.732 27.1291Z" fill="#FDE7B6"/>
<path d="M156.355 21.2131L164.894 21.5186L164.864 22.1259L163.105 22.0629L162.066 43.2214L163.825 43.2844L163.795 43.8916L154.041 43.5426L154.071 42.9354L155.83 42.9983L156.811 23.0224L156.683 23.0178L150.875 43.4294L146.878 43.2863L142.265 22.4059L142.137 22.4013L141.151 42.4731L142.91 42.536L142.88 43.1433L138.531 42.9877L138.561 42.3804L140.32 42.4433L141.359 21.2848L139.6 21.2219L139.63 20.6146L148.264 20.9236L151.709 37.5359L156.355 21.2131Z" fill="#FDE7B6"/>
<path d="M183.949 45.6594L182.677 38.5677L176.38 37.8632L172.882 44.4211L175.268 44.688L175.175 45.289L170.31 44.7445L170.402 44.1436L171.897 44.3108L183.343 23.4889L185.951 23.7807L190.628 46.4066L192.091 46.5703L191.998 47.1712L181.599 46.0077L181.691 45.4068L183.949 45.6594ZM181.035 29.247L176.773 37.1994L182.529 37.8434L181.035 29.247Z" fill="#FDE7B6"/>
<path d="M221.644 29.3217L220.158 37.202L219.558 37.1015C219.269 34.1812 218.881 32.1621 218.396 31.0443C217.915 29.9056 217.001 29.2234 215.654 28.9977L215.276 28.9342L210.554 49.4538L213.236 49.9036L213.085 50.5585L201.566 48.6271L201.717 47.9722L204.399 48.422L209.122 27.9024L208.711 27.8336C207.365 27.6078 206.201 27.9633 205.221 28.9001C204.245 29.8162 203.007 31.5411 201.506 34.0748L200.907 33.9743L203.024 26.1998L221.644 29.3217Z" fill="#FDE7B6"/>
<path d="M228.216 46.9588L229.004 44.3221C229.53 42.5643 229.809 40.4046 229.842 37.8429C229.902 35.2653 230.063 33.537 230.326 32.6581C230.589 31.7792 231.018 31.1978 231.614 30.9139C232.23 30.6344 232.892 30.5719 233.601 30.7263C235.185 31.0713 235.73 32.0716 235.235 33.7272C234.948 34.6879 234.082 36.2845 232.638 38.517C231.193 40.7496 230.208 42.7448 229.683 44.5026L228.904 47.1086L228.216 46.9588ZM226.712 52.7705C225.941 52.6025 225.421 52.2608 225.153 51.7453C224.913 51.2139 224.89 50.6212 225.085 49.9671C225.287 49.2926 225.661 48.7861 226.206 48.4477C226.757 48.0888 227.397 47.9888 228.127 48.1477C228.857 48.3066 229.382 48.6279 229.704 49.1116C230.032 49.5748 230.086 50.1744 229.866 50.9102C229.646 51.646 229.263 52.1831 228.718 52.5216C228.173 52.86 227.504 52.943 226.712 52.7705Z" fill="#FDE7B6"/>
</svg>
