<svg width="202" height="159" viewBox="0 0 202 159" fill="none" xmlns="http://www.w3.org/2000/svg">
<mask id="mask0" style="mask-type:alpha" maskUnits="userSpaceOnUse" x="0" y="0" width="202" height="159">
<rect width="202" height="159" fill="#C4C4C4"/>
</mask>
<g mask="url(#mask0)">
<path d="M-5.7147 86.7909L-21.3251 86.869L-38.988 86.869C-38.1273 85.8717 -37.6453 84.6027 -37.6256 83.2829C-37.606 81.9631 -38.05 80.676 -38.8805 79.6454L-34.4561 79.6699L-9.07099 79.5589L11.956 57.8708L23.1026 57.8531L29.9715 57.8191L38.3493 57.8L38.397 65.0221L15.8591 65.0834L-5.7147 86.7909Z" fill="#3A4F6E"/>
<path d="M169.932 56.5868C169.918 54.7118 169.348 52.8803 168.294 51.3241C167.239 49.7679 165.749 48.5567 164.01 47.8436C162.271 47.1305 160.362 46.9477 158.525 47.3181C156.687 47.6884 155.003 48.5954 153.686 49.9244C152.369 51.2535 151.478 52.9448 151.125 54.7847C150.772 56.6245 150.973 58.5303 151.703 60.261C152.433 61.9918 153.659 63.4698 155.227 64.5083C156.794 65.5468 158.632 66.0991 160.508 66.0954C161.755 66.0929 162.988 65.845 164.136 65.3657C165.285 64.8864 166.326 64.1852 167.201 63.3021C168.077 62.4191 168.768 61.3715 169.237 60.2192C169.705 59.067 169.942 57.8327 169.932 56.5868ZM156.12 60.2315C155.263 59.2221 154.79 57.9442 154.785 56.6239C154.774 55.2929 155.233 54.0029 156.081 52.9809C156.929 51.9588 158.112 51.2702 159.422 51.0362C160.732 50.8022 162.085 51.0378 163.243 51.7015C164.401 52.3652 165.289 53.4146 165.751 54.6649C166.214 55.9152 166.221 57.2864 165.772 58.5372C165.323 59.788 164.446 60.8383 163.295 61.5032C162.145 62.1682 160.794 62.4052 159.482 62.1726C158.169 61.94 156.979 61.2526 156.12 60.2315Z" fill="#3A4F6E"/>
<path d="M-35.7349 17.2874C-35.2878 16.1707 -35.0654 14.976 -35.0802 13.7713C-35.0831 12.5026 -35.3434 11.2465 -35.8456 10.0788C-36.7125 8.04934 -38.2562 6.38019 -40.2131 5.35663C-42.17 4.33307 -44.4185 4.01863 -46.5746 4.46695C-48.7306 4.91528 -50.6604 6.09856 -52.0342 7.81468C-53.408 9.5308 -54.1406 11.6732 -54.1067 13.876C-54.0729 16.0787 -53.2748 18.205 -51.8487 19.8917C-50.4227 21.5783 -48.4572 22.7206 -46.2881 23.1234C-44.1189 23.5262 -41.8808 23.1644 -39.956 22.1C-38.0312 21.0356 -36.5392 19.3345 -35.7349 17.2874ZM-50.2275 13.8084C-50.2386 12.6557 -49.8962 11.5291 -49.2463 10.5799C-48.5964 9.63078 -47.6703 8.90465 -46.5926 8.49924C-45.5148 8.09382 -44.3371 8.02858 -43.2178 8.31224C-42.0984 8.5959 -41.0912 9.21491 -40.3316 10.086C-39.422 11.1033 -38.9185 12.4184 -38.9174 13.7794C-38.9643 15.2398 -39.5751 16.6226 -40.6219 17.6381C-41.6687 18.6535 -43.0701 19.2228 -44.5324 19.2265C-45.9948 19.2303 -47.4045 18.6682 -48.4662 17.6582C-49.5279 16.6481 -50.1591 15.2684 -50.2275 13.8084Z" fill="#3A4F6E"/>
<path d="M-34.4938 86.8519C-34.0023 85.6813 -33.7592 84.4205 -33.7798 83.149C-33.8049 80.8052 -34.7001 78.5501 -36.2917 76.821C-37.8833 75.0919 -40.058 74.012 -42.3939 73.7907C-44.7299 73.5695 -47.0607 74.2226 -48.9343 75.6234C-50.8079 77.0243 -52.0908 79.0731 -52.5342 81.3724C-52.9776 83.6718 -52.55 86.0578 -51.3341 88.0679C-50.1183 90.078 -48.201 91.5689 -45.9539 92.2514C-43.7069 92.9339 -41.2904 92.7594 -39.1729 91.7617C-37.0554 90.7641 -35.3879 89.0143 -34.4938 86.8519ZM-48.9089 83.1848C-48.9254 82.4369 -48.7928 81.6939 -48.5191 80.999C-48.2453 80.3042 -47.8358 79.6713 -47.3143 79.1372C-46.7928 78.6031 -46.1698 78.1785 -45.4814 77.888C-44.793 77.5975 -44.053 77.447 -43.3045 77.4452C-42.556 77.4433 -41.8139 77.5902 -41.1213 77.8773C-40.4287 78.1644 -39.7995 78.586 -39.2702 79.1175C-38.741 79.649 -38.3224 80.2799 -38.0385 80.9734C-37.7547 81.6669 -37.6113 82.4092 -37.6169 83.1571C-37.6021 84.5183 -38.087 85.8353 -38.9798 86.859C-39.7253 87.7331 -40.7222 88.3565 -41.836 88.6452C-42.9498 88.9339 -44.127 88.8741 -45.2091 88.4737C-46.2911 88.0733 -47.2259 87.3516 -47.8874 86.4059C-48.549 85.4602 -48.9055 84.3361 -48.9089 83.1848Z" fill="#3A4F6E"/>
<path d="M53.1212 65.1966C53.6006 64.0583 53.8496 62.8354 53.8541 61.5983C53.8587 60.3611 53.6185 59.1341 53.1476 57.9877C52.3196 55.9496 50.8109 54.2585 48.8788 53.203C46.9468 52.1475 44.7112 51.7931 42.5538 52.2003C40.3964 52.6075 38.451 53.7511 37.0495 55.4358C35.6481 57.1205 34.8776 59.2418 34.8696 61.4377C34.8616 63.6336 35.6165 65.7679 37.0055 67.4762C38.3946 69.1845 40.3316 70.3609 42.4859 70.8045C44.6401 71.2482 46.8781 70.9317 48.8178 69.9089C50.7574 68.8861 52.2785 67.2206 53.1212 65.1966ZM38.7061 61.5296C38.6945 60.3555 39.0496 59.2088 39.7219 58.2492C40.3943 57.2896 41.3505 56.5649 42.4572 56.1761C43.564 55.7873 44.7662 55.7538 45.8963 56.0802C47.0265 56.4066 48.0283 57.0767 48.7622 57.9971C49.3243 58.702 49.7103 59.5301 49.8881 60.4124C50.0659 61.2947 50.0302 62.2056 49.7843 63.0694C49.5383 63.9331 49.089 64.7246 48.4739 65.3779C47.8588 66.0312 47.0956 66.5274 46.248 66.8252C45.4004 67.1229 44.4929 67.2136 43.6011 67.0896C42.7093 66.9657 41.859 66.6307 41.1211 66.1126C40.3832 65.5945 39.779 64.9082 39.359 64.111C38.9389 63.3138 38.7151 62.4288 38.7061 61.5296Z" fill="#3A4F6E"/>
<path d="M151.695 60.2069L71.289 60.3938L49.7224 38.7854L12.3546 38.8528L-8.99105 17.2657L-35.7436 17.2973C-35.2965 16.1806 -35.0741 14.9858 -35.0889 13.7811C-35.097 12.5129 -35.3571 11.2579 -35.8543 10.0887L-5.6686 10.022L16.1636 31.6395L53.0462 31.5598L74.8784 53.1774L151.649 53.0031L151.695 60.2069Z" fill="#3A4F6E"/>
<path d="M72.2188 125.604C72.7046 124.432 72.9475 123.172 72.9328 121.901C72.932 120.697 72.6951 119.503 72.2354 118.387C71.5388 116.662 70.3508 115.176 68.8192 114.116C67.2875 113.057 65.4799 112.469 63.6214 112.426C61.7629 112.384 59.9355 112.888 58.3668 113.877C56.798 114.866 55.5573 116.296 54.7988 117.988C54.2267 119.224 53.9389 120.573 53.9567 121.937C53.9787 124.122 54.7537 126.236 56.1514 127.922C57.549 129.609 59.4835 130.765 61.6288 131.196C63.7742 131.627 65.999 131.306 67.9281 130.287C69.8572 129.269 71.3726 127.615 72.2188 125.604ZM57.7939 121.929C57.7822 120.755 58.1373 119.608 58.8097 118.648C59.4821 117.689 60.4382 116.964 61.545 116.575C62.6517 116.187 63.8539 116.153 64.9841 116.479C66.1142 116.806 67.116 117.476 67.8499 118.396C68.412 119.101 68.798 119.929 68.9758 120.812C69.1536 121.694 69.118 122.605 68.8721 123.469C68.6261 124.332 68.1767 125.124 67.5616 125.777C66.9465 126.431 66.1834 126.927 65.3358 127.224C64.4882 127.522 63.5807 127.613 62.6889 127.489C61.7971 127.365 60.9467 127.03 60.2088 126.512C59.4709 125.994 58.8668 125.308 58.4468 124.51C58.0267 123.713 57.8028 122.828 57.7939 121.929Z" fill="#3A4F6E"/>
<path d="M-56.9165 153.103C-56.4334 151.932 -56.1874 150.676 -56.1927 149.408C-56.2076 148.205 -56.444 147.014 -56.8901 145.894L-57.1512 145.327C-57.9314 143.708 -59.1539 142.342 -60.6767 141.386C-62.1995 140.43 -63.9602 139.924 -65.7546 139.927C-67.4723 139.93 -69.1548 140.398 -70.6232 141.281C-72.0915 142.165 -73.2908 143.431 -74.0933 144.945C-74.8959 146.459 -75.2717 148.164 -75.1808 149.878C-75.0899 151.593 -74.5358 153.253 -73.5772 154.682C-72.6186 156.111 -71.2915 157.256 -69.7372 157.994C-68.1829 158.732 -66.4594 159.036 -64.7501 158.874C-63.0409 158.712 -61.4097 158.09 -60.0303 157.074C-58.6509 156.057 -57.5748 154.685 -56.9165 153.103ZM-71.3401 149.445C-71.3466 148.703 -71.2066 147.967 -70.9278 147.28C-70.6491 146.593 -70.2371 145.969 -69.7157 145.442C-69.1942 144.916 -68.5735 144.498 -67.8889 144.213C-67.2044 143.927 -66.4696 143.78 -65.7267 143.779C-64.8745 143.775 -64.0318 143.967 -63.2632 144.338C-62.4946 144.709 -61.8204 145.252 -61.2923 145.922C-60.462 146.95 -60.018 148.234 -60.0379 149.551C-60.0578 150.868 -60.5403 152.134 -61.4012 153.128C-62.1483 154.002 -63.1461 154.625 -64.2608 154.913C-65.3754 155.202 -66.5534 155.142 -67.6365 154.742C-68.7195 154.342 -69.6557 153.621 -70.3193 152.676C-70.9829 151.731 -71.342 150.607 -71.3485 149.455" fill="#3A4F6E"/>
<path d="M38.5446 152.492L-58.782 152.711L-58.8297 145.488L22.3902 145.31L35.1339 145.264L54.6125 125.382L60.0723 130.779L38.5446 152.492Z" fill="#3A4F6E"/>
<path d="M18.0497 105.489C18.8022 103.677 18.9723 101.674 18.5365 99.7551C18.1007 97.8365 17.0805 96.0974 15.6167 94.7778C14.1528 93.4582 12.3175 92.6232 10.3638 92.3877C8.41016 92.1523 6.43449 92.5282 4.70929 93.4635C3.37669 94.186 2.23836 95.218 1.38985 96.4732C0.541336 97.7283 0.00735474 99.1699 -0.167358 100.677C-0.342072 102.184 -0.152405 103.713 0.385757 105.135C0.92392 106.557 1.79483 107.832 2.92552 108.851C4.05621 109.87 5.41374 110.605 6.88417 110.993C8.35458 111.382 9.89507 111.413 11.3764 111.083C12.8578 110.754 14.2369 110.074 15.398 109.101C16.5591 108.128 17.4684 106.889 18.0497 105.489ZM3.62479 101.814C3.61995 101.072 3.76135 100.338 4.04088 99.6521C4.3204 98.9664 4.7326 98.3432 5.25392 97.818C5.77524 97.2927 6.39546 96.8756 7.07921 96.5907C7.76295 96.3057 8.49678 96.1584 9.23886 96.1571C9.98094 96.1559 10.7167 96.3007 11.4042 96.5833C12.0916 96.866 12.7173 97.2809 13.2454 97.8044C13.7736 98.3279 14.1939 98.9497 14.4823 99.6343C14.7708 100.319 14.9217 101.053 14.9266 101.795C14.9339 103.29 14.3483 104.725 13.2979 105.784C12.2475 106.844 10.8178 107.444 9.32153 107.451C7.82205 107.453 6.37997 106.861 5.31187 105.804C4.24377 104.748 3.63701 103.312 3.62479 101.814Z" fill="#3A4F6E"/>
<path d="M-111.086 132.988C-110.126 130.69 -110.119 128.1 -111.068 125.789C-111.144 125.589 -111.232 125.394 -111.33 125.204C-112.231 123.35 -113.705 121.834 -115.532 120.88C-116.896 120.185 -118.404 119.823 -119.932 119.821C-121.65 119.825 -123.333 120.294 -124.801 121.179C-126.269 122.064 -127.468 123.331 -128.269 124.845C-129.071 126.36 -129.446 128.065 -129.354 129.78C-129.261 131.495 -128.706 133.155 -127.746 134.583C-126.786 136.012 -125.458 137.155 -123.903 137.892C-122.348 138.629 -120.624 138.932 -118.914 138.768C-117.205 138.604 -115.574 137.98 -114.196 136.963C-112.817 135.945 -111.742 134.571 -111.086 132.988ZM-125.509 129.33C-125.514 128.42 -125.299 127.522 -124.881 126.715C-124.463 125.908 -123.856 125.214 -123.11 124.694C-122.365 124.174 -121.503 123.842 -120.6 123.728C-119.696 123.613 -118.778 123.719 -117.922 124.036C-117.066 124.353 -116.299 124.872 -115.685 125.549C-115.072 126.225 -114.631 127.039 -114.4 127.921C-114.169 128.803 -114.155 129.727 -114.359 130.614C-114.562 131.5 -114.978 132.324 -115.57 133.013C-116.319 133.884 -117.317 134.505 -118.431 134.791C-119.545 135.077 -120.722 135.016 -121.803 134.615C-122.885 134.215 -123.819 133.494 -124.482 132.549C-125.144 131.604 -125.503 130.481 -125.509 129.33Z" fill="#3A4F6E"/>
<path d="M-15.6245 132.377L-112.951 132.595L-112.999 125.373L-31.7789 125.194L-19.045 125.141L0.44339 105.266L5.90326 110.664L-15.6245 132.377Z" fill="#3A4F6E"/>
<path d="M34.5806 85.161C35.5374 82.8595 35.5469 80.2697 34.6069 77.9522C33.8934 76.191 32.6694 74.6812 31.0927 73.6174C29.516 72.5537 27.6588 71.9847 25.7607 71.9839C24.1739 71.9854 22.6156 72.3913 21.2331 73.1631C19.4204 74.1452 17.9814 75.694 17.1354 77.5736C16.5719 78.8149 16.2878 80.1658 16.303 81.5313C16.3176 83.719 17.0889 85.838 18.4859 87.5291C19.8829 89.2202 21.8198 90.3794 23.9682 90.8101C26.1167 91.2408 28.3445 90.9165 30.274 89.8922C32.2036 88.868 33.7161 87.2067 34.5553 85.1902L34.5806 85.161ZM20.1655 81.494C20.1589 80.3787 20.4832 79.288 21.0975 78.3597C21.7118 77.4315 22.5884 76.7073 23.6167 76.2786C24.645 75.85 25.7788 75.736 26.875 75.9512C27.9711 76.1664 28.9805 76.7011 29.7755 77.4877C30.5705 78.2744 31.1155 79.2777 31.3417 80.3709C31.5679 81.4642 31.4652 82.5983 31.0464 83.6302C30.6277 84.662 29.9118 85.5453 28.9891 86.1683C28.0664 86.7914 26.9783 87.1264 25.8622 87.1309C24.3627 87.1336 22.9207 86.5414 21.8526 85.4846C20.7845 84.4277 20.1777 82.9925 20.1655 81.494Z" fill="#3A4F6E"/>
<path d="M201.747 84.8342C202.23 83.6637 202.476 82.4081 202.471 81.1398C202.456 79.9365 202.219 78.7452 201.773 77.6254C201.063 75.8621 199.839 74.3504 198.262 73.2862C196.685 72.2219 194.826 71.6544 192.927 71.657C191.353 71.6797 189.812 72.0999 188.448 72.8785C186.635 73.8606 185.197 75.4095 184.351 77.2891C183.787 78.5304 183.503 79.8813 183.518 81.2468C183.53 83.4373 184.301 85.5597 185.7 87.2533C187.098 88.9468 189.038 90.1072 191.189 90.5371C193.34 90.967 195.571 90.6401 197.501 89.6117C199.432 88.5833 200.943 86.917 201.779 84.896L201.747 84.8342ZM187.355 81.2386C187.345 79.7402 187.931 78.3019 188.983 77.2396C190.036 76.1773 191.469 75.5778 192.969 75.5728C193.821 75.5689 194.664 75.76 195.432 76.1314C196.201 76.5029 196.875 77.0449 197.403 77.7158C197.965 78.4207 198.351 79.2488 198.529 80.1311C198.707 81.0134 198.671 81.9244 198.425 82.7881C198.179 83.6519 197.73 84.4434 197.115 85.0967C196.5 85.75 195.736 86.2462 194.889 86.5439C194.041 86.8417 193.134 86.9324 192.242 86.8084C191.35 86.6845 190.5 86.3495 189.762 85.8313C189.024 85.3132 188.42 84.627 188 83.8298C187.58 83.0326 187.356 82.1476 187.347 81.2484" fill="#3A4F6E"/>
<path d="M184.994 84.7897L34.4927 85.0846L34.4352 77.8541L167.292 77.558L184.947 77.5677L184.994 84.7897Z" fill="#3A4F6E"/>
<path d="M124.214 130.477C124.987 128.222 124.878 125.755 123.911 123.569C122.943 121.382 121.188 119.636 118.995 118.68C116.802 117.724 114.333 117.627 112.08 118.41C109.828 119.193 107.958 120.797 106.843 122.903C106.28 124.144 105.995 125.495 106.011 126.861C106.025 129.048 106.797 131.167 108.194 132.859C109.591 134.55 111.528 135.709 113.676 136.139C115.824 136.57 118.052 136.246 119.982 135.222C121.911 134.197 123.424 132.536 124.263 130.52L124.214 130.477ZM109.765 126.849C109.757 125.733 110.08 124.641 110.694 123.712C111.308 122.782 112.184 122.056 113.213 121.627C114.242 121.197 115.376 121.082 116.473 121.298C117.57 121.513 118.58 122.047 119.376 122.835C120.171 123.622 120.716 124.626 120.942 125.72C121.168 126.814 121.064 127.949 120.644 128.982C120.224 130.014 119.507 130.897 118.583 131.519C117.659 132.141 116.569 132.475 115.452 132.478C113.956 132.478 112.518 131.886 111.452 130.831C110.386 129.776 109.78 128.344 109.765 126.849Z" fill="#3A4F6E"/>
<path d="M33.0799 130.653C34.0368 128.351 34.0463 125.762 33.1063 123.444L32.8453 122.877C31.9456 121.018 30.4675 119.498 28.6335 118.545C27.2729 117.848 25.768 117.482 24.2419 117.477C22.5242 117.48 20.8416 117.948 19.3733 118.832C17.9049 119.716 16.7057 120.982 15.9031 122.496C15.1006 124.009 14.7248 125.714 14.8157 127.429C14.9066 129.143 15.4608 130.803 16.4193 132.232C17.3779 133.662 18.7049 134.806 20.2592 135.544C21.8136 136.282 23.5371 136.587 25.2464 136.425C26.9556 136.262 28.5868 135.64 29.9662 134.624C31.3456 133.608 32.4216 132.235 33.0799 130.653ZM18.6564 126.996C18.6457 126.081 18.8574 125.178 19.2732 124.364C19.689 123.551 20.2966 122.851 21.0438 122.326C21.791 121.801 22.6556 121.465 23.5632 121.348C24.4708 121.23 25.3944 121.335 26.2547 121.653C27.1151 121.97 27.8864 122.491 28.5026 123.171C29.1188 123.851 29.5613 124.67 29.7923 125.556C30.0233 126.443 30.0358 127.371 29.8288 128.262C29.6217 129.152 29.2014 129.978 28.6037 130.669C27.8566 131.542 26.8587 132.165 25.7441 132.454C24.6295 132.743 23.4515 132.683 22.3684 132.283C21.2854 131.883 20.3492 131.162 19.6856 130.217C19.022 129.272 18.6629 128.148 18.6564 126.996Z" fill="#3A4F6E"/>
<path d="M52.6287 103.787L33.1003 123.49L27.7576 118.194L48.9536 96.5677L69.6918 96.5115L73.9498 96.5109L90.276 96.4749L90.4313 96.4734L111.928 118.004L106.654 123.318L86.8432 103.708L52.6287 103.787Z" fill="#3A4F6E"/>
<path d="M29.2635 14.5979C29.7526 13.4293 29.9988 12.1725 29.9873 10.9035C29.9775 9.69973 29.7409 8.50744 29.2898 7.38906C29.2135 7.19546 29.1263 7.0063 29.0287 6.82243C28.0791 4.86708 26.4887 3.29301 24.523 2.36292C22.5573 1.43282 20.3351 1.20294 18.2272 1.71155C16.1193 2.22017 14.2531 3.43655 12.94 5.15778C11.627 6.87901 10.9464 9.00099 11.0119 11.1697C11.0773 13.3384 11.8849 15.4227 13.2998 17.0748C14.7147 18.7269 16.6514 19.8469 18.7867 20.248C20.9221 20.6491 23.127 20.307 25.0336 19.2788C26.9402 18.2506 28.4332 16.5984 29.2635 14.5979ZM14.8679 10.9478C14.8627 10.0371 15.0782 9.13979 15.4959 8.33243C15.9137 7.52507 16.5212 6.83166 17.2667 6.31146C18.0122 5.79126 18.8736 5.45973 19.7771 5.34513C20.6806 5.23054 21.5994 5.33628 22.4552 5.65338C23.311 5.97048 24.0783 6.48951 24.6915 7.1661C25.3048 7.8427 25.7458 8.65681 25.9768 9.53885C26.2079 10.4209 26.2221 11.3446 26.0183 12.2313C25.8146 13.1179 25.3988 13.9411 24.8067 14.6304C24.2847 15.2442 23.6351 15.7368 22.9027 16.0743C22.1703 16.4117 21.3726 16.5858 20.5646 16.5847C19.8217 16.5877 19.0847 16.4442 18.396 16.1623C17.7073 15.8805 17.0804 15.4658 16.5512 14.9422C16.022 14.4185 15.6009 13.7961 15.312 13.1107C15.0231 12.4253 14.8722 11.6903 14.8679 10.9478Z" fill="#3A4F6E"/>
<path d="M95.445 41.1121C96.4052 38.8077 96.4112 36.2127 95.4616 33.8948C95.3932 33.6979 95.3058 33.5081 95.2006 33.3281C94.3105 31.4673 92.8339 29.9479 90.9986 29.0042C89.2991 28.129 87.3775 27.7849 85.4846 28.0168C83.5918 28.2488 81.8156 29.0459 80.388 30.3043C78.9604 31.5627 77.9478 33.2238 77.4822 35.0707C77.0166 36.9177 77.1197 38.8647 77.7781 40.6575C78.4365 42.4504 79.6196 44.0058 81.1729 45.1208C82.7262 46.2358 84.5776 46.8584 86.4854 46.9075C88.3931 46.9566 90.2686 46.4298 91.8669 45.3959C93.4653 44.3621 94.7122 42.8692 95.445 41.1121ZM81.0299 37.4451C81.0135 36.6972 81.146 35.9542 81.4197 35.2593C81.6935 34.5644 82.103 33.9315 82.6245 33.3974C83.146 32.8633 83.769 32.4387 84.4574 32.1482C85.1458 31.8577 85.8858 31.7072 86.6343 31.7054C87.3828 31.7035 88.1249 31.8504 88.8175 32.1375C89.5101 32.4246 90.1393 32.8462 90.6685 33.3777C91.1978 33.9092 91.6165 34.5401 91.9003 35.2336C92.1842 35.9271 92.3275 36.6694 92.3219 37.4173C92.3428 38.7796 91.8571 40.0987 90.959 41.1192C90.437 41.733 89.7874 42.2256 89.055 42.563C88.3226 42.9004 87.5249 43.0746 86.7169 43.0735C85.975 43.0769 85.2391 42.9339 84.5513 42.6526C83.8635 42.3713 83.2374 41.9573 82.709 41.4343C82.1806 40.9113 81.7602 40.2897 81.4721 39.6051C81.1839 38.9205 81.0337 38.1865 81.0299 37.4451Z" fill="#3A4F6E"/>
<path d="M77.774 34.0607L57.9628 14.4507L28.7364 14.5153L28.6887 7.29329L40.8114 7.25418L45.0597 7.24516L45.0694 7.25358L61.3957 7.21765L61.5509 7.21609L83.0479 28.7471L77.774 34.0607Z" fill="#3A4F6E"/>
<path d="M-37.3787 102.762C-38.3386 105.06 -38.345 107.649 -37.3966 109.961C-37.3232 110.157 -37.2388 110.35 -37.144 110.537C-36.3676 112.157 -35.1457 113.524 -33.6219 114.477C-32.0981 115.431 -30.3358 115.931 -28.542 115.919C-26.827 115.914 -25.1477 115.445 -23.6826 114.562C-22.2175 113.678 -21.0213 112.413 -20.2214 110.901C-19.4214 109.388 -19.0475 107.686 -19.1395 105.974C-19.2314 104.263 -19.7858 102.605 -20.7436 101.179C-21.7015 99.7531 -23.0269 98.6112 -24.5791 97.8748C-26.1312 97.1385 -27.852 96.8354 -29.5585 96.9977C-31.265 97.16 -32.8933 97.7817 -34.2703 98.7966C-35.6473 99.8115 -36.7215 101.182 -37.3787 102.762ZM-22.9552 106.419C-22.9435 107.593 -23.2986 108.74 -23.971 109.699C-24.6434 110.659 -25.5995 111.384 -26.7063 111.772C-27.813 112.161 -29.0153 112.195 -30.1454 111.868C-31.2756 111.542 -32.2774 110.872 -33.0113 109.951C-33.6746 109.12 -34.0916 108.121 -34.2147 107.067C-34.3379 106.013 -34.1621 104.947 -33.7076 103.991C-33.253 103.034 -32.5379 102.227 -31.6439 101.659C-30.75 101.092 -29.7133 100.788 -28.652 100.782C-27.1525 100.779 -25.7103 101.371 -24.6422 102.428C-23.5741 103.485 -22.9674 104.92 -22.9552 106.419Z" fill="#3A4F6E"/>
<path d="M-103.604 76.2781C-104.087 77.4486 -104.333 78.7042 -104.328 79.9725C-104.309 81.1791 -104.07 82.3733 -103.62 83.4954C-103.543 83.6819 -103.455 83.8769 -103.359 84.0621C-102.458 85.9153 -100.985 87.4316 -99.1572 88.3859C-97.4577 89.2612 -95.5362 89.6053 -93.6433 89.3733C-91.7505 89.1414 -89.9743 88.3443 -88.5467 87.0859C-87.1192 85.8275 -86.1064 84.1664 -85.6408 82.3195C-85.1752 80.4725 -85.2784 78.5256 -85.9368 76.7327C-86.5952 74.9398 -87.7783 73.3844 -89.3317 72.2694C-90.885 71.1544 -92.7363 70.5318 -94.644 70.4827C-96.5518 70.4336 -98.4273 70.9604 -100.026 71.9942C-101.624 73.0281 -102.871 74.521 -103.604 76.2781ZM-89.1801 79.9354C-89.1735 80.6779 -89.3137 81.4137 -89.5924 82.1005C-89.8711 82.7874 -90.283 83.4119 -90.8045 83.9383C-91.326 84.4646 -91.9467 84.8824 -92.6313 85.1678C-93.3158 85.4532 -94.0506 85.6004 -94.7936 85.6012C-95.6437 85.6066 -96.4847 85.417 -97.2517 85.0469C-98.0188 84.6768 -98.6915 84.1362 -99.2181 83.4667C-100.019 82.4718 -100.461 81.237 -100.472 79.9631C-100.487 78.6019 -100.002 77.285 -99.1092 76.2613C-98.3618 75.3917 -97.3654 74.7722 -96.2533 74.4855C-95.1411 74.1989 -93.9663 74.2587 -92.8859 74.6571C-91.8054 75.0555 -90.8709 75.7735 -90.2072 76.715C-89.5434 77.6565 -89.1822 78.7766 -89.1717 79.9257" fill="#3A4F6E"/>
<path d="M-85.8993 83.2904L-66.0882 102.9L-36.8618 102.836L-36.8141 110.058L-53.1851 110.106L-53.1864 110.088L-69.5211 110.134L-69.6679 110.125L-91.1648 88.5943L-85.8993 83.2904Z" fill="#3A4F6E"/>
<path d="M-26.8934 32.8657C-27.8522 35.1703 -27.8582 37.7648 -26.91 40.083C-26.8391 40.2807 -26.7547 40.4732 -26.6574 40.6594C-25.7061 42.6092 -24.1166 44.1776 -22.1535 45.1032C-20.1905 46.0288 -17.9726 46.2557 -15.8693 45.7461C-13.7661 45.2366 -11.9045 44.0212 -10.595 42.3027C-9.28538 40.5842 -8.60681 38.4664 -8.67236 36.302C-8.73792 34.1376 -9.54361 32.0574 -10.9552 30.4082C-12.3668 28.7589 -14.299 27.6401 -16.4298 27.2383C-18.5607 26.8364 -20.7615 27.1757 -22.6655 28.1997C-24.5695 29.2237 -26.0617 30.8705 -26.8934 32.8657ZM-12.4588 36.5497C-12.4423 37.2976 -12.5748 38.0406 -12.8486 38.7354C-13.1223 39.4303 -13.5319 40.0632 -14.0534 40.5973C-14.5749 41.1314 -15.198 41.556 -15.8864 41.8465C-16.5747 42.137 -17.3147 42.2875 -18.0632 42.2893C-18.8117 42.2912 -19.5538 42.1443 -20.2464 41.8572C-20.939 41.5701 -21.5682 41.1485 -22.0974 40.617C-22.6267 40.0855 -23.0454 39.4547 -23.3292 38.7611C-23.6131 38.0676 -23.7564 37.3253 -23.7508 36.5773C-23.7581 35.082 -23.1725 33.6475 -22.1221 32.5875C-21.0717 31.5276 -19.6421 30.9285 -18.1458 30.9212C-17.4039 30.9178 -16.6679 31.0609 -15.9802 31.3421C-15.2924 31.6234 -14.6663 32.0375 -14.1379 32.5604C-13.6095 33.0834 -13.1891 33.705 -12.9009 34.3896C-12.6128 35.0742 -12.4626 35.8082 -12.4588 36.5497Z" fill="#3A4F6E"/>
<path d="M-93.0831 6.36097C-94.0294 8.66817 -94.0353 11.2578 -93.0996 13.5783C-93.0122 13.7733 -92.9345 13.9598 -92.8386 14.145C-92.0621 15.7648 -90.8403 17.1317 -89.3165 18.0851C-87.7927 19.0386 -86.0304 19.5389 -84.2366 19.5273C-82.5226 19.52 -80.8448 19.0489 -79.3815 18.1641C-77.9182 17.2792 -76.7239 16.0137 -75.9256 14.5018C-75.1273 12.9899 -74.7548 11.2882 -74.8476 9.57744C-74.9404 7.86669 -75.495 6.2108 -76.4526 4.78561C-77.4102 3.36043 -78.735 2.2192 -80.2862 1.48317C-81.8374 0.747149 -83.5572 0.443825 -85.2628 0.605395C-86.9683 0.766963 -88.5961 1.38738 -89.973 2.40079C-91.35 3.4142 -92.4247 4.7827 -93.0831 6.36097ZM-78.6497 10.0268C-78.6398 11.5253 -79.2255 12.9636 -80.2779 14.0259C-81.3304 15.0882 -82.7637 15.6876 -84.2632 15.6926C-85.1153 15.6965 -85.958 15.5054 -86.7266 15.1339C-87.4953 14.7625 -88.1694 14.2205 -88.6974 13.5496C-89.2595 12.8447 -89.6455 12.0166 -89.8233 11.1343C-90.0011 10.252 -89.9655 9.34102 -89.7195 8.47728C-89.4735 7.61353 -89.0242 6.82202 -88.4091 6.16871C-87.794 5.51541 -87.0308 5.01924 -86.1832 4.72149C-85.3356 4.42375 -84.4281 4.33307 -83.5363 4.45703C-82.6445 4.58098 -81.7942 4.91593 -81.0563 5.43405C-80.3184 5.95217 -79.7143 6.63847 -79.2942 7.43566C-78.8741 8.23286 -78.6503 9.11795 -78.6413 10.0171" fill="#3A4F6E"/>
<path d="M-75.404 13.4025L-55.6013 33.0222L-26.375 32.9575L-26.3175 40.1881L-42.6982 40.2278L-42.6996 40.2096L-59.016 40.254L-59.1712 40.2556L-80.6681 18.7246L-75.404 13.4025Z" fill="#3A4F6E"/>
</g>
</svg>
