<svg width="145" height="145" viewBox="0 0 145 145" fill="none" xmlns="http://www.w3.org/2000/svg">
<path d="M99.6875 54.375C99.6875 61.5856 96.8231 68.5008 91.7245 73.5995C86.6258 78.6981 79.7106 81.5625 72.5 81.5625C65.2894 81.5625 58.3742 78.6981 53.2755 73.5995C48.1769 68.5008 45.3125 61.5856 45.3125 54.375C45.3125 47.1644 48.1769 40.2492 53.2755 35.1505C58.3742 30.0519 65.2894 27.1875 72.5 27.1875C79.7106 27.1875 86.6258 30.0519 91.7245 35.1505C96.8231 40.2492 99.6875 47.1644 99.6875 54.375Z" fill="#424A63"/>
<path fill-rule="evenodd" clip-rule="evenodd" d="M0 72.5C0 53.2718 7.63837 34.8311 21.2348 21.2348C34.8311 7.63837 53.2718 0 72.5 0C91.7282 0 110.169 7.63837 123.765 21.2348C137.362 34.8311 145 53.2718 145 72.5C145 91.7282 137.362 110.169 123.765 123.765C110.169 137.362 91.7282 145 72.5 145C53.2718 145 34.8311 137.362 21.2348 123.765C7.63837 110.169 0 91.7282 0 72.5ZM72.5 9.0625C60.5536 9.06314 48.8502 12.437 38.7368 18.7959C28.6234 25.1547 20.511 34.24 15.3334 45.0061C10.1559 55.7722 8.1235 67.7815 9.4703 79.6517C10.8171 91.522 15.4883 102.771 22.9462 112.103C29.3806 101.736 43.5453 90.625 72.5 90.625C101.455 90.625 115.61 101.727 122.054 112.103C129.512 102.771 134.183 91.522 135.53 79.6517C136.876 67.7815 134.844 55.7722 129.667 45.0061C124.489 34.24 116.377 25.1547 106.263 18.7959C96.1498 12.437 84.4464 9.06314 72.5 9.0625Z" fill="#424A63"/>
</svg>
