<svg width="602" height="199" viewBox="0 0 602 199" fill="none" xmlns="http://www.w3.org/2000/svg">
<path d="M90.01 73.19C90.01 73.19 147.63 92.49 236.53 89.36C325.43 86.23 398.19 52.99 508.73 64.36V165.36C508.73 165.36 485.73 153.25 416 162.06C346.27 170.87 185.43 202.26 90 170.3L90.01 73.19Z" fill="#FDE7B6"/>
<path d="M90.01 73.19C90.01 73.19 147.63 92.49 236.53 89.36C325.43 86.23 398.19 52.99 508.73 64.36V165.36C508.73 165.36 485.73 153.25 416 162.06C346.27 170.87 185.43 202.26 90 170.3L90.01 73.19Z" stroke="#E56848" stroke-width="8" stroke-miterlimit="10"/>
<path d="M162.022 112.014L193.219 112.417L193.666 124.304L192.586 124.29C190.958 120.229 189.234 117.446 187.413 115.943C185.593 114.399 182.903 113.604 179.343 113.558L177.243 113.531L177.004 132.07L179.044 132.096C180.924 132.12 182.512 131.441 183.81 130.057C185.109 128.634 186.034 126.726 186.585 124.333L187.485 124.344L187.255 142.103L186.235 142.09C185.554 139.081 184.602 136.928 183.378 135.632C182.195 134.337 180.543 133.675 178.424 133.648L176.984 133.629L176.735 152.888L179.015 152.917C182.695 152.965 185.828 151.905 188.417 149.738C191.045 147.572 192.861 144.775 193.865 141.348L195.065 141.364L194.416 154.436L161.479 154.011L161.496 152.691L165.036 152.737L165.544 113.38L162.005 113.334L162.022 112.014Z" fill="#C8684E"/>
<path d="M199.662 114.01L217.3 114.238C223.34 114.316 227.828 115.254 230.765 117.052C233.703 118.81 235.142 121.929 235.085 126.408C235.02 131.368 233.176 134.764 229.552 136.598C226.171 138.274 221.46 139.073 215.42 138.995L214.94 138.989L214.733 155.068L222.232 155.165L222.217 156.305L199.119 156.006L199.134 154.866L203.034 154.917L203.547 115.2L199.647 115.15L199.662 114.01ZM215.246 115.351L214.955 137.849L216.215 137.866C218.615 137.897 220.285 137.098 221.226 135.47C222.167 133.842 222.662 131.188 222.709 127.509L222.746 124.629C222.79 121.229 222.381 118.844 221.519 117.472C220.696 116.102 219.145 115.402 216.866 115.372L215.246 115.351Z" fill="#C8684E"/>
<path d="M259.753 115.848C253.553 115.768 250.376 121.707 250.222 133.666L250.161 138.406C250.087 144.086 250.85 148.556 252.448 151.817C254.046 155.038 256.445 156.669 259.645 156.71C264.045 156.767 268.14 152.539 271.93 144.028L273.01 144.042L272.417 157.415L271.757 157.407C271.523 156.964 271.307 156.661 271.109 156.498C270.911 156.296 270.613 156.192 270.213 156.187C269.853 156.182 268.409 156.483 265.881 157.091C263.353 157.658 260.789 157.925 258.19 157.891C251.67 157.807 246.633 155.982 243.079 152.416C239.565 148.85 237.853 143.548 237.944 136.508C238.036 129.429 239.966 123.993 243.735 120.202C247.545 116.41 252.609 114.556 258.928 114.637C261.368 114.669 263.744 115.02 266.055 115.689C268.407 116.32 269.783 116.638 270.183 116.643C270.583 116.648 270.884 116.572 271.086 116.415C271.289 116.217 271.513 115.9 271.759 115.463L272.419 115.472L272.731 128.497L271.651 128.483C269.903 124.42 268.083 121.316 266.19 119.172C264.338 116.987 262.193 115.88 259.753 115.848Z" fill="#C8684E"/>
<path d="M297.752 116.545C297.786 113.865 298.974 111.68 301.317 109.99C303.659 108.3 307.149 107.485 311.789 107.545C316.429 107.605 319.977 108.511 322.435 110.263C324.932 112.015 326.159 114.611 326.114 118.051C326.1 119.171 325.987 120.19 325.775 121.107C325.564 121.984 325.092 122.918 324.359 123.909C323.666 124.86 322.975 125.711 322.286 126.462C321.636 127.214 320.503 128.199 318.887 129.419C316.462 131.307 313.918 133.195 311.253 135.08C308.589 136.926 307.035 138.006 306.591 138.321L302.897 140.913L317.296 141.099C320.056 141.135 322.023 140.56 323.199 139.375C324.374 138.19 325.218 136.321 325.731 133.767L326.751 133.781L325.937 150.391L297.739 150.027L297.829 143.068L303.961 137.567C308.129 133.86 311.092 130.558 312.849 127.66C314.607 124.723 315.509 121.494 315.555 117.975C315.601 114.415 315.252 111.99 314.508 110.701C313.766 109.371 312.494 108.694 310.694 108.671C308.894 108.648 307.629 109.092 306.897 110.002C306.165 110.913 305.794 111.788 305.783 112.628C305.772 113.468 305.882 114.209 306.114 114.852L307.914 114.876C308.223 115.72 308.37 116.742 308.354 117.942C308.339 119.102 307.826 120.115 306.815 120.982C305.804 121.809 304.479 122.212 302.839 122.191C301.199 122.17 299.926 121.633 299.02 120.581C298.154 119.49 297.731 118.144 297.752 116.545Z" fill="#C8684E"/>
<path d="M347.77 143.847C341.97 143.772 337.576 141.755 334.587 137.796C331.638 133.838 330.209 128.339 330.3 121.3C330.391 114.26 332.078 109.042 335.362 105.644C338.647 102.206 343.089 100.523 348.689 100.595C354.328 100.668 358.726 102.445 361.881 105.926C365.076 109.408 366.625 114.908 366.528 122.428C366.431 129.947 364.74 135.426 361.455 138.864C358.171 142.261 353.609 143.923 347.77 143.847ZM342.619 119.899L342.55 125.238C342.5 129.118 342.484 131.858 342.504 133.458C342.563 135.059 342.762 136.722 343.099 138.446C343.437 140.171 344.003 141.298 344.796 141.829C345.59 142.319 346.526 142.571 347.606 142.585C348.686 142.599 349.487 142.549 350.008 142.436C350.57 142.323 351.053 142.089 351.458 141.735C351.903 141.34 352.268 140.965 352.552 140.609C352.837 140.212 353.065 139.615 353.235 138.817C353.446 138.02 353.615 137.282 353.744 136.604C353.873 135.925 353.966 134.927 354.023 133.607C354.136 131.048 354.209 128.469 354.243 125.869L354.311 120.59C354.412 112.75 354.178 107.687 353.607 105.399C353.077 103.072 351.452 101.891 348.732 101.856C346.013 101.821 344.337 102.979 343.707 105.332C343.077 107.684 342.714 112.539 342.619 119.899Z" fill="#C8684E"/>
<path d="M370.752 102.545C370.786 99.8648 371.974 97.68 374.317 95.9901C376.659 94.3002 380.149 93.4852 384.789 93.5451C389.429 93.605 392.977 94.511 395.435 96.2628C397.932 98.0152 399.159 100.611 399.114 104.051C399.1 105.171 398.987 106.19 398.775 107.107C398.564 107.984 398.092 108.918 397.359 109.909C396.666 110.86 395.975 111.711 395.286 112.462C394.636 113.214 393.503 114.199 391.887 115.419C389.462 117.307 386.918 119.195 384.253 121.08C381.589 122.926 380.035 124.006 379.591 124.321L375.897 126.913L390.296 127.099C393.056 127.135 395.023 126.56 396.199 125.375C397.374 124.19 398.218 122.321 398.731 119.767L399.751 119.781L398.937 136.391L370.739 136.027L370.829 129.068L376.961 123.567C381.129 119.86 384.092 116.558 385.849 113.66C387.607 110.723 388.509 107.494 388.555 103.975C388.601 100.415 388.252 97.9902 387.508 96.7005C386.766 95.3708 385.494 94.6943 383.694 94.6711C381.894 94.6478 380.629 95.0915 379.897 96.0021C379.165 96.9128 378.794 97.788 378.783 98.628C378.772 99.4679 378.882 100.209 379.114 100.852L380.914 100.876C381.223 101.72 381.37 102.742 381.354 103.942C381.339 105.102 380.826 106.115 379.815 106.982C378.804 107.809 377.479 108.212 375.839 108.191C374.199 108.17 372.926 107.633 372.02 106.581C371.154 105.49 370.731 104.144 370.752 102.545Z" fill="#C8684E"/>
<path d="M405.752 97.5446C405.786 94.8648 406.974 92.68 409.317 90.9901C411.659 89.3002 415.149 88.4852 419.789 88.5451C424.429 88.605 427.977 89.511 430.435 91.2628C432.932 93.0152 434.159 95.6113 434.114 99.051C434.1 100.171 433.987 101.19 433.775 102.107C433.564 102.984 433.092 103.918 432.359 104.909C431.666 105.86 430.975 106.711 430.286 107.462C429.636 108.214 428.503 109.199 426.887 110.419C424.462 112.307 421.918 114.195 419.253 116.08C416.589 117.926 415.035 119.006 414.591 119.321L410.897 121.913L425.296 122.099C428.056 122.135 430.023 121.56 431.199 120.375C432.374 119.19 433.218 117.321 433.731 114.767L434.751 114.781L433.937 131.391L405.739 131.027L405.829 124.068L411.961 118.567C416.129 114.86 419.092 111.558 420.849 108.66C422.607 105.723 423.509 102.494 423.555 98.9746C423.601 95.4149 423.252 92.9902 422.508 91.7005C421.766 90.3708 420.494 89.6943 418.694 89.6711C416.894 89.6478 415.629 90.0915 414.897 91.0021C414.165 91.9128 413.794 92.788 413.783 93.628C413.772 94.4679 413.882 95.2094 414.114 95.8524L415.914 95.8757C416.223 96.7197 416.37 97.7417 416.354 98.9416C416.339 100.102 415.826 101.115 414.815 101.982C413.804 102.809 412.479 103.212 410.839 103.191C409.199 103.17 407.926 102.633 407.02 101.581C406.154 100.49 405.731 99.1444 405.752 97.5446Z" fill="#C8684E"/>
<path d="M592.97 70.97L550.94 74.16L589.59 90.99L546.09 83.44L573.94 107.37L535.59 90.23L548.4 117.61L521.04 93.49L516.86 120.17L504.66 92.74L484.12 114.64L488.93 88.07L455.17 101.87L476.26 80.21L434.41 83.81L468.57 70.35L425 63.2L467.03 60L428.38 43.18L471.88 50.72L444.03 26.8L482.38 43.94L469.57 16.55L496.93 40.67L501.11 14L513.32 41.43L533.85 19.53L529.04 46.09L562.81 32.29L541.71 53.95L583.57 50.36L549.4 63.81L592.97 70.97Z" fill="#C8684E" stroke="#FFEBB0" stroke-width="2" stroke-miterlimit="10"/>
</svg>
