<svg width="1131" height="22" viewBox="0 0 1131 22" fill="none" xmlns="http://www.w3.org/2000/svg">
<path d="M271.477 1.09613L271.416 20.459L293.977 20.5299L294.038 1.167L271.477 1.09613Z" fill="#E56848"/>
<path d="M846.477 1.09613L846.416 20.459L868.977 20.5299L869.038 1.167L846.477 1.09613Z" fill="#E56848"/>
<path d="M309.479 1.22088L309.418 20.5837L331.979 20.6546L332.04 1.29176L309.479 1.22088Z" fill="#E56848"/>
<path d="M884.479 1.22088L884.418 20.5837L906.979 20.6546L907.04 1.29176L884.479 1.22088Z" fill="#E56848"/>
<path d="M347.482 1.37054L347.421 20.7334L369.982 20.8043L370.043 1.44142L347.482 1.37054Z" fill="#E56848"/>
<path d="M922.482 1.37054L922.421 20.7334L944.982 20.8043L945.043 1.44142L922.482 1.37054Z" fill="#E56848"/>
<path d="M385.46 1.47015L385.399 20.833L407.96 20.9039L408.021 1.54103L385.46 1.47015Z" fill="#E56848"/>
<path d="M960.46 1.47015L960.399 20.833L982.96 20.9039L983.021 1.54103L960.46 1.47015Z" fill="#E56848"/>
<path d="M423.461 1.59417L423.4 20.957L445.961 21.0279L446.022 1.66505L423.461 1.59417Z" fill="#E56848"/>
<path d="M998.461 1.59417L998.4 20.957L1020.96 21.0279L1021.02 1.66505L998.461 1.59417Z" fill="#E56848"/>
<path d="M461.439 1.69427L461.378 21.0571L483.939 21.128L484 1.76515L461.439 1.69427Z" fill="#E56848"/>
<path d="M1036.44 1.69427L1036.38 21.0571L1058.94 21.128L1059 1.76515L1036.44 1.69427Z" fill="#E56848"/>
<path d="M1074.06 1.99993L1074 21.3628L1096.56 21.4337L1096.62 2.07081L1074.06 1.99993Z" fill="#E56848"/>
<path d="M1108.06 1.99993L1108 21.3628L1130.56 21.4337L1130.62 2.07081L1108.06 1.99993Z" fill="#E56848"/>
<path d="M45.8025 0.373957L45.7417 19.7368L68.3027 19.8077L68.3636 0.444835L45.8025 0.373957Z" fill="#E56848"/>
<path d="M620.803 0.373957L620.742 19.7368L643.303 19.8077L643.364 0.444835L620.803 0.373957Z" fill="#E56848"/>
<path d="M83.7796 0.498957L83.7188 19.8618L106.28 19.9327L106.341 0.569835L83.7796 0.498957Z" fill="#E56848"/>
<path d="M658.78 0.498957L658.719 19.8618L681.28 19.9327L681.341 0.569835L658.78 0.498957Z" fill="#E56848"/>
<path d="M121.782 0.622736L121.721 19.9856L144.282 20.0565L144.343 0.693615L121.782 0.622736Z" fill="#E56848"/>
<path d="M696.782 0.622736L696.721 19.9856L719.282 20.0565L719.343 0.693615L696.782 0.622736Z" fill="#E56848"/>
<path d="M159.784 0.74753L159.723 20.1104L182.284 20.1812L182.345 0.818409L159.784 0.74753Z" fill="#E56848"/>
<path d="M734.784 0.74753L734.723 20.1104L757.284 20.1812L757.345 0.818409L734.784 0.74753Z" fill="#E56848"/>
<path d="M197.762 0.847346L197.701 20.2102L220.262 20.2811L220.323 0.918224L197.762 0.847346Z" fill="#E56848"/>
<path d="M772.762 0.847346L772.701 20.2102L795.262 20.2811L795.323 0.918224L772.762 0.847346Z" fill="#E56848"/>
<path d="M235.741 0.996272L235.68 20.3591L258.241 20.43L258.302 1.06715L235.741 0.996272Z" fill="#E56848"/>
<path d="M810.741 0.996272L810.68 20.3591L833.241 20.43L833.302 1.06715L810.741 0.996272Z" fill="#E56848"/>
<path d="M499.061 -6.63325e-05L499 19.3628L521.561 19.4337L521.622 0.0708119L499.061 -6.63325e-05Z" fill="#E56848"/>
<path d="M537.063 0.12469L537.002 19.4875L559.564 19.5584L559.624 0.195568L537.063 0.12469Z" fill="#E56848"/>
<path d="M0.0657132 0.224543L0.00488281 19.5874L22.5659 19.6583L22.6267 0.295421L0.0657132 0.224543Z" fill="#E56848"/>
<path d="M575.066 0.224543L575.005 19.5874L597.566 19.6583L597.627 0.295421L575.066 0.224543Z" fill="#E56848"/>
</svg>
