<svg width="230" height="295" viewBox="0 0 230 295" fill="none" xmlns="http://www.w3.org/2000/svg">
<path d="M82.5001 202C112.6 202 137 177.6 137 147.5C137 117.401 112.6 93 82.5001 93C52.4005 93 28 117.401 28 147.5C28 177.6 52.4005 202 82.5001 202Z" fill="#FFEBB0"/>
<path d="M82.5355 50C63.2488 49.993 44.3932 55.7062 28.354 66.417C12.3148 77.1277 -0.187476 92.3547 -7.57142 110.172C-14.9554 127.989 -16.8892 147.596 -13.1283 166.513C-9.36733 185.429 -0.080678 202.805 13.5571 216.443C27.1948 230.081 44.571 239.367 63.4874 243.128C82.4039 246.889 102.011 244.955 119.828 237.571C137.645 230.187 152.872 217.685 163.583 201.646C174.294 185.607 180.007 166.751 180 147.465C179.991 121.618 169.719 96.8332 151.443 78.5571C133.167 60.281 108.382 50.0094 82.5355 50ZM82.5355 240.029C64.2365 240.029 46.3483 234.603 31.1328 224.438C15.9172 214.272 4.05747 199.823 -2.94688 182.918C-9.95123 166.012 -11.7857 147.409 -8.21831 129.462C-4.65093 111.514 4.15814 95.0265 17.095 82.0846C30.0319 69.1428 46.5156 60.3275 64.4622 56.7532C82.4087 53.1789 101.012 55.0062 117.92 62.004C134.828 69.0019 149.282 80.8561 159.453 96.0678C169.625 111.279 175.058 129.165 175.065 147.465C175.065 172.008 165.317 195.547 147.966 212.905C130.614 230.263 107.079 240.02 82.5355 240.029Z" fill="#FFEBB0"/>
<path d="M82.5357 4.31639e-06C53.36 -0.00705235 24.8374 8.63851 0.575699 24.8433C-23.686 41.0481 -42.597 64.0841 -53.7653 91.0376C-64.9337 117.991 -67.8577 147.651 -62.1675 176.267C-56.4773 204.882 -42.4286 231.168 -21.7982 251.798C-1.16778 272.429 25.1175 286.477 53.733 292.168C82.3485 297.858 112.009 294.934 138.962 283.765C165.916 272.597 188.952 253.686 205.157 229.424C221.362 205.163 230.007 176.64 230 147.464C229.991 108.357 214.451 70.8545 186.798 43.2017C159.145 15.5488 121.643 0.00946303 82.5357 4.31639e-06ZM82.5357 287.507C54.8449 287.514 27.7738 279.31 4.74581 263.932C-18.2822 248.553 -36.2328 226.692 -46.8362 201.111C-57.4395 175.531 -60.2192 147.381 -54.8239 120.221C-49.4286 93.0608 -36.1006 68.1105 -16.5253 48.5251C3.05011 28.9398 27.9937 15.599 55.151 10.1899C82.3084 4.78074 110.46 7.54618 136.046 18.1365C161.631 28.7268 183.502 46.6663 198.892 69.6864C214.282 92.7066 222.5 119.773 222.507 147.464C222.512 165.85 218.895 184.057 211.864 201.045C204.832 218.034 194.523 233.471 181.525 246.475C168.528 259.479 153.096 269.796 136.112 276.836C119.127 283.876 100.922 287.503 82.5357 287.507Z" fill="#FFEBB0"/>
</svg>
