<svg width="295" height="295" viewBox="0 0 295 295" fill="none" xmlns="http://www.w3.org/2000/svg">
<path d="M147.5 202C177.6 202 202 177.6 202 147.5C202 117.401 177.6 93 147.5 93C117.401 93 93 117.401 93 147.5C93 177.6 117.401 202 147.5 202Z" fill="#FFEBB0"/>
<path d="M147.535 50C128.249 49.993 109.393 55.7062 93.354 66.417C77.3148 77.1277 64.8125 92.3547 57.4286 110.172C50.0446 127.989 48.1108 147.596 51.8717 166.513C55.6327 185.429 64.9193 202.805 78.5571 216.443C92.1948 230.081 109.571 239.367 128.487 243.128C147.404 246.889 167.011 244.955 184.828 237.571C202.645 230.187 217.872 217.685 228.583 201.646C239.294 185.607 245.007 166.751 245 147.465C244.991 121.618 234.719 96.8332 216.443 78.5571C198.167 60.281 173.382 50.0094 147.535 50ZM147.535 240.029C129.236 240.029 111.348 234.603 96.1328 224.438C80.9172 214.272 69.0575 199.823 62.0531 182.918C55.0488 166.012 53.2143 147.409 56.7817 129.462C60.3491 111.514 69.1581 95.0265 82.095 82.0846C95.0319 69.1428 111.516 60.3275 129.462 56.7532C147.409 53.1789 166.012 55.0062 182.92 62.004C199.828 69.0019 214.282 80.8561 224.453 96.0678C234.625 111.279 240.058 129.165 240.065 147.465C240.065 172.008 230.317 195.547 212.966 212.905C195.614 230.263 172.079 240.02 147.535 240.029Z" fill="#FFEBB0"/>
<path d="M147.536 4.31639e-06C118.36 -0.00705235 89.8374 8.63851 65.5757 24.8433C41.314 41.0481 22.403 64.0841 11.2347 91.0376C0.0663251 117.991 -2.85769 147.651 2.83249 176.267C8.52268 204.882 22.5714 231.168 43.2018 251.798C63.8322 272.429 90.1175 286.477 118.733 292.168C147.349 297.858 177.009 294.934 203.962 283.765C230.916 272.597 253.952 253.686 270.157 229.424C286.362 205.163 295.007 176.64 295 147.464C294.991 108.357 279.451 70.8545 251.798 43.2017C224.145 15.5488 186.643 0.00946303 147.536 4.31639e-06ZM147.536 287.507C119.845 287.514 92.7738 279.31 69.7458 263.932C46.7178 248.553 28.7672 226.692 18.1638 201.111C7.56051 175.531 4.7808 147.381 10.1761 120.221C15.5714 93.0608 28.8994 68.1105 48.4747 48.5251C68.0501 28.9398 92.9937 15.599 120.151 10.1899C147.308 4.78074 175.46 7.54618 201.046 18.1365C226.631 28.7268 248.502 46.6663 263.892 69.6864C279.282 92.7066 287.5 119.773 287.507 147.464C287.512 165.85 283.895 184.057 276.864 201.045C269.832 218.034 259.523 233.471 246.525 246.475C233.528 259.479 218.096 269.796 201.112 276.836C184.127 283.876 165.922 287.503 147.536 287.507Z" fill="#FFEBB0"/>
</svg>
