<svg width="1280" height="665" viewBox="0 0 1280 665" fill="none" xmlns="http://www.w3.org/2000/svg">
<path d="M-0.000488281 535L1280 97.9999V665H-0.000488281V535Z" fill="#FFEBB0"/>
<path d="M1294.72 59.2776L-88.3486 531.664L-82.4137 549.041L1300.66 76.6541L1294.72 59.2776Z" fill="#E56848"/>
<path d="M1310.05 104.133L-73.0269 576.52L-67.092 593.896L1315.98 121.51L1310.05 104.133Z" fill="#E56848"/>
<path d="M1325.37 148.99L-57.7065 621.377L-51.7716 638.754L1331.3 166.367L1325.37 148.99Z" fill="#E56848"/>
<path d="M1040.92 337.772C1134.2 337.772 1209.81 262.16 1209.81 168.886C1209.81 75.6129 1134.2 -0.00012207 1040.92 -0.00012207C947.651 -0.00012207 872.038 75.6129 872.038 168.886C872.038 262.16 947.651 337.772 1040.92 337.772Z" fill="#FFEBB0"/>
<path d="M1040.92 -0.00012099C1007.52 -0.00389855 974.856 9.90003 947.076 28.459C919.296 47.0179 897.644 73.3983 884.859 104.264C872.073 135.129 868.727 169.093 875.246 201.859C881.764 234.626 897.853 264.724 921.478 288.346C945.102 311.968 975.202 328.054 1007.97 334.569C1040.74 341.083 1074.7 337.734 1105.56 324.944C1136.43 312.155 1162.81 290.5 1181.36 262.718C1199.92 234.937 1209.82 202.276 1209.81 168.867C1209.81 124.079 1192.01 81.127 1160.34 49.4588C1128.67 17.7906 1085.71 -0.000121277 1040.92 -0.00012099ZM1033.82 321.172C1003 321.176 972.863 312.039 947.233 294.918C921.603 277.796 901.626 253.459 889.828 224.983C878.03 196.508 874.941 165.173 880.952 134.942C886.963 104.711 901.803 76.9414 923.597 55.1449C945.391 33.3485 973.159 18.5043 1003.39 12.4897C1033.62 6.47505 1064.95 9.56008 1093.43 21.3546C1121.91 33.1492 1146.25 53.1235 1163.37 78.7516C1180.5 104.38 1189.64 134.51 1189.64 165.333C1189.64 185.797 1185.61 206.062 1177.78 224.969C1169.95 243.876 1158.48 261.056 1144.01 275.527C1129.54 289.998 1112.36 301.478 1093.45 309.309C1074.55 317.141 1054.28 321.172 1033.82 321.172Z" fill="#424A63"/>
<path d="M1130.25 145.72L1009.08 75.8809L1008.64 76.1291L1007.4 76.855L964.955 101.688L962.261 100.122L968.584 103.771L1011.03 78.9372L1012.21 78.2305L1012.71 77.963L1131.24 146.274C1130.95 146.057 1130.64 145.859 1130.33 145.682L1130.25 145.72ZM1005.47 73.7223L1005.97 74.5818L1006.46 74.2953L1005.47 73.7223Z" fill="#C8684E"/>
<path d="M1012.63 78.0968L1131.19 146.312L1131.22 146.35C1133.69 148.379 1135.7 150.918 1137.1 153.793C1138.49 156.668 1139.25 159.812 1139.32 163.008V171.375L1137.59 172.387L1094.66 197.584L1092.9 198.615L1091.18 199.704C1091.18 199.704 1091.89 185.988 1090.13 178.099C1089.47 175.119 1086.77 172.483 1084.02 170.458L1077.13 166.485L968.508 103.904L1010.95 79.0711L1012.14 78.3643L1012.63 78.0968Z" fill="#C8684E"/>
<path d="M1130.25 145.72L1009.08 75.8809L1008.64 76.1291L1007.4 76.855L1011.01 78.9372L1012.2 78.2305L1012.69 77.963L1131.22 146.274C1130.93 146.057 1130.63 145.859 1130.31 145.682L1130.25 145.72ZM1005.45 73.7223L1005.95 74.5818L1006.45 74.2953L1005.45 73.7223Z" fill="#C8684E"/>
<path d="M970.494 212.044L1064.38 266.085C1067.84 268.091 1070.67 265.971 1070.67 261.348V251.052L964.209 191.089V200.048C964.244 202.4 964.831 204.711 965.922 206.795C967.014 208.879 968.58 210.677 970.494 212.044Z" fill="#3A4F6E"/>
<path d="M1066.89 268.588C1065.69 268.563 1064.52 268.22 1063.51 267.595L969.616 213.553C967.436 212.032 965.649 210.014 964.404 207.665C963.158 205.317 962.489 202.706 962.452 200.048V188.128L1072.41 250.02V261.329C1072.52 262.597 1072.3 263.873 1071.77 265.03C1071.24 266.186 1070.41 267.183 1069.37 267.919C1068.61 268.35 1067.76 268.574 1066.89 268.569V268.588ZM971.373 210.516L1065.26 264.576C1065.6 264.819 1065.99 264.976 1066.41 265.032C1066.82 265.089 1067.24 265.044 1067.63 264.901C1068.13 264.459 1068.51 263.903 1068.74 263.28C1068.97 262.657 1069.04 261.987 1068.95 261.329V252.045L965.948 194.05V200.048C965.987 202.093 966.495 204.102 967.432 205.92C968.369 207.738 969.711 209.317 971.354 210.535" fill="#3A4F6E"/>
<path d="M1091.13 199.666C1091.13 199.666 1091.83 185.95 1090.08 178.08C1089.41 175.043 1086.73 172.349 1083.98 170.439L1077.11 166.466L1044.12 147.42L1037.98 143.886L1034.16 141.67L1015.21 130.744L968.508 103.828L962.185 100.199L958.727 98.1928L954.028 95.4993L953.608 95.2701L951.984 94.334L951.22 93.9138C950.944 93.7687 950.656 93.6473 950.36 93.5509C950.163 93.4637 949.958 93.3933 949.749 93.3407C949.539 93.3407 949.29 93.2261 949.08 93.1688C947.718 92.8564 946.292 92.9904 945.011 93.5509C944.8 93.6374 944.596 93.7395 944.4 93.8565C941.859 95.3083 940.408 98.5175 940.408 102.663V177.621C940.408 184.938 944.763 193.171 950.322 196.361L1058.67 258.808L1078.52 270.269L1081.56 272.027L1083.14 272.924C1084.37 273.689 1085.77 274.142 1087.21 274.243H1087.59C1088.24 274.242 1088.88 274.146 1089.5 273.956L1089.85 273.841C1090 273.759 1090.13 273.641 1090.23 273.498C1090.69 272.8 1090.97 271.999 1091.05 271.167C1091.06 271.078 1091.06 270.989 1091.05 270.9C1091.05 270.307 1091.2 269.658 1091.24 268.989C1091.34 267.335 1091.34 265.677 1091.24 264.023L1091.13 199.666ZM1082.91 251.339C1082.97 252.088 1082.82 252.838 1082.48 253.51C1082.14 254.182 1081.63 254.751 1081 255.159L1080.6 255.369C1080.22 255.515 1079.81 255.592 1079.4 255.598C1078.72 255.574 1078.06 255.37 1077.49 255.006L1075.25 253.726L1072.08 251.816L1052.33 240.469L955.671 184.785C954.516 184.02 953.565 182.985 952.899 181.771C952.234 180.556 951.874 179.197 951.85 177.813V115.825C951.792 115.074 951.939 114.322 952.275 113.649C952.612 112.976 953.125 112.407 953.76 112.004C954.318 111.697 954.948 111.548 955.584 111.571C956.22 111.595 956.838 111.791 957.371 112.138L1021.31 148.987L1040.41 159.99L1044.12 162.148L1050.25 165.682L1079.15 182.321C1080.29 183.094 1081.22 184.13 1081.87 185.34C1082.51 186.551 1082.86 187.901 1082.88 189.274L1082.91 251.339Z" fill="#C8684E"/>
<path d="M1082.91 189.273V251.338C1082.97 252.088 1082.82 252.839 1082.49 253.512C1082.15 254.184 1081.64 254.753 1081 255.158C1080.52 255.437 1079.97 255.582 1079.42 255.579C1078.7 255.581 1078 255.382 1077.39 255.006L955.671 184.861C954.516 184.096 953.565 183.061 952.899 181.846C952.234 180.632 951.874 179.273 951.85 177.888V115.824C951.794 115.074 951.942 114.323 952.278 113.65C952.614 112.977 953.127 112.408 953.76 112.003C954.318 111.697 954.948 111.547 955.584 111.571C956.22 111.594 956.837 111.79 957.371 112.137L1079.13 182.301C1080.27 183.07 1081.2 184.106 1081.85 185.317C1082.5 186.529 1082.85 187.88 1082.86 189.254" fill="#C8684E"/>
<path d="M956.549 183.352L1078.33 253.516C1079.9 254.413 1081.18 253.516 1081.18 251.357V189.293C1081.16 188.223 1080.89 187.173 1080.4 186.224C1079.9 185.276 1079.2 184.456 1078.33 183.829L956.549 113.665C954.964 112.767 953.684 113.665 953.684 115.843V177.907C953.702 178.976 953.97 180.025 954.468 180.971C954.966 181.917 955.679 182.732 956.549 183.352Z" fill="#466C80"/>
<path d="M1079.19 182.321L957.428 112.157C956.895 111.81 956.277 111.614 955.642 111.59C955.006 111.567 954.375 111.716 953.818 112.023C953.183 112.426 952.669 112.995 952.333 113.668C951.996 114.341 951.849 115.093 951.907 115.843V177.908C951.918 179.283 952.261 180.634 952.906 181.848C953.551 183.062 954.48 184.102 955.613 184.88L1077.39 255.025C1078 255.402 1078.7 255.601 1079.42 255.598C1079.97 255.601 1080.52 255.456 1081 255.178C1081.64 254.773 1082.15 254.204 1082.49 253.531C1082.82 252.859 1082.97 252.107 1082.91 251.357V189.274C1082.9 187.9 1082.56 186.548 1081.91 185.337C1081.26 184.125 1080.33 183.09 1079.19 182.321ZM1079.44 251.338C1079.44 251.797 1079.44 252.045 1079.44 252.103L1079.23 252.007L957.447 181.862C956.856 181.381 956.378 180.776 956.048 180.089C955.718 179.402 955.543 178.651 955.537 177.889V115.824C955.537 115.385 955.537 115.137 955.537 115.079H955.747L1077.53 185.243C1078.12 185.717 1078.59 186.315 1078.92 186.996C1079.26 187.676 1079.43 188.422 1079.44 189.178V251.338Z" fill="#466C80"/>
<path d="M1078.33 184.116C1079.2 184.746 1079.91 185.569 1080.4 186.521C1080.89 187.473 1081.16 188.526 1081.18 189.599V245.856L965.279 179.111C964.413 178.485 963.704 177.664 963.21 176.716C962.716 175.768 962.45 174.717 962.433 173.648V117.371L1078.33 184.116Z" fill="#3A4F6E"/>
<path d="M1082.91 248.874L964.477 180.601C963.335 179.83 962.4 178.792 961.75 177.577C961.101 176.362 960.758 175.007 960.752 173.629V114.392L1079.19 182.665C1080.32 183.44 1081.25 184.48 1081.9 185.694C1082.55 186.909 1082.89 188.262 1082.89 189.637L1082.91 248.874ZM964.152 120.371V173.61C964.175 174.379 964.367 175.133 964.714 175.82C965.06 176.506 965.553 177.108 966.158 177.583L1079.46 242.838V189.599C1079.45 188.837 1079.28 188.085 1078.95 187.398C1078.62 186.711 1078.14 186.105 1077.55 185.625L964.152 120.371Z" fill="#466C80"/>
<path d="M985.872 178.366L975.48 172.368V158.977L984.363 164.097V156.933L975.308 151.699L976.645 149.388L987.037 155.386V168.719L978.154 163.6V170.821L987.209 176.055L985.872 178.366Z" fill="#FFEBB0"/>
<path d="M1001.17 187.23L989.712 180.563V156.914L1001.17 163.581V187.23ZM992.31 179.016L998.518 182.607V165.128L992.31 161.537V179.016Z" fill="#FFEBB0"/>
<path d="M1034.93 207.192L1023.47 200.544V176.895L1034.93 183.562V207.192ZM1026.06 198.997L1032.27 202.569V185.071L1026.06 181.48V198.997Z" fill="#FFEBB0"/>
<path d="M1020.79 198.978L1009.33 192.33V168.681L1020.79 175.348V198.978ZM1011.91 190.802L1018.12 194.374V176.915L1011.91 173.323V190.802Z" fill="#FFEBB0"/>
<path d="M1006.5 174.565H1003.83V178.71H1006.5V174.565Z" fill="#FFEBB0"/>
<path d="M1006.5 181.327H1003.83V185.472H1006.5V181.327Z" fill="#FFEBB0"/>
<path d="M1141 170.305V237.967C1141 242.475 1139.34 245.78 1136.38 247.079L1091.22 272.944L1090.84 273.173C1090.62 273.307 1090.37 273.397 1090.12 273.44C1090.56 272.734 1090.84 271.938 1090.94 271.11C1090.94 271.11 1090.94 270.919 1090.94 270.842C1091.03 270.25 1091.09 269.601 1091.13 268.932C1091.22 267.278 1091.22 265.62 1091.13 263.965V199.666L1092.85 198.577L1094.6 197.546L1137.53 172.349L1139.27 171.337L1141 170.305Z" fill="#914537"/>
<path d="M962.203 100.141L958.746 98.2305L954.066 95.518L953.646 95.3079C953.753 95.3397 953.855 95.3846 953.951 95.4416H954.085L954.734 95.7854L961.497 99.606L962.203 100.141Z" fill="#E66F50"/>
<path d="M1141 162.969V170.286L1139.29 171.336V162.969C1139.22 159.773 1138.46 156.63 1137.06 153.755C1135.66 150.88 1133.66 148.341 1131.19 146.312C1130.89 146.095 1130.59 145.897 1130.27 145.72L1009.1 75.8806L1006.41 74.3333L1005.41 73.7601L1005.91 74.6197L1004.65 75.3457L962.223 100.179L961.459 99.7397L954.677 95.9192L954.047 95.5754H953.913C953.817 95.5184 953.715 95.4735 953.608 95.4417L951.984 94.5056L951.201 94.0853C950.925 93.9346 950.638 93.8068 950.341 93.7032L949.73 93.5123L949.061 93.3403C947.694 93.0323 946.265 93.1592 944.973 93.7032L945.164 93.5695L990.628 67.3034C990.801 67.1923 990.98 67.0903 991.163 66.9978C992.332 66.5019 993.606 66.305 994.87 66.4251C996.134 66.5452 997.349 66.9783 998.403 67.6855L1000.03 68.6025L1131.19 144.191C1131.51 144.382 1131.82 144.574 1132.14 144.803C1133.85 146.053 1135.34 147.584 1136.53 149.33C1137.38 150.536 1138.13 151.814 1138.75 153.151C1140.15 156.144 1140.9 159.398 1140.97 162.702" fill="#E66F50"/>
<path d="M1009.08 75.8805L1008.64 76.1288L1007.4 76.8547L1007.34 76.8929L964.897 101.707L962.204 100.141L1004.63 75.3456L1005.89 74.6197L1006.39 74.3332L1009.08 75.8805Z" fill="#C8684E"/>
<path d="M1130.25 145.72L1009.08 75.8805L1008.64 76.1287L1007.4 76.8546L964.954 101.688L962.261 100.122L961.497 99.6823L954.715 95.8618L954.085 95.5179L958.765 98.2305L962.223 100.141L968.546 103.789L1010.99 78.956L1012.18 78.2492L1012.67 77.9817L1131.2 146.293C1130.91 146.075 1130.61 145.878 1130.29 145.701L1130.25 145.72ZM1005.43 73.7409L1005.93 74.6005L1006.43 74.3141L1005.43 73.7409Z" fill="#E66F50"/>
<path d="M1064.92 126.063C1064.89 127.698 1064.57 129.314 1063.98 130.839C1063.98 130.839 1063.83 131.259 1063.79 131.335C1063.03 132.895 1061.78 134.167 1060.24 134.965C1057.48 136.456 1054.39 137.225 1051.26 137.2H1050.34C1049.75 137.2 1049.18 137.2 1048.6 137.028C1047.12 136.834 1045.68 136.361 1044.36 135.634L1002.76 111.622C1001.55 110.999 1000.63 109.94 1000.18 108.661C999.758 107.426 999.495 106.142 999.397 104.84C999.378 104.509 999.378 104.178 999.397 103.847C999.376 103.535 999.376 103.222 999.397 102.911V102.261C999.397 101.879 999.511 101.516 999.588 101.192C999.621 101.011 999.665 100.832 999.721 100.657C999.81 100.315 999.931 99.9819 1000.08 99.6633C999.993 99.9603 999.948 100.27 999.95 100.58C999.964 101.583 1000.35 102.543 1001.04 103.274C1001.52 103.788 1002.07 104.226 1002.68 104.573L1044.29 128.585C1045.08 129.042 1045.94 129.389 1046.83 129.616C1047.41 129.787 1048 129.908 1048.6 129.979C1049.18 130.076 1049.76 130.134 1050.34 130.151C1053.76 130.322 1057.15 129.556 1060.16 127.935C1061.29 127.317 1062.27 126.479 1063.07 125.471C1063.68 124.691 1064.03 123.733 1064.06 122.739C1064.06 122.065 1063.88 121.403 1063.52 120.829C1064.42 122.379 1064.87 124.142 1064.84 125.929" fill="#FFEBB0"/>
<g opacity="0.5">
<g opacity="0.5">
<path opacity="0.5" d="M1064.92 126.063C1064.89 127.698 1064.57 129.314 1063.98 130.839C1063.98 130.839 1063.83 131.259 1063.79 131.335C1063.03 132.895 1061.78 134.167 1060.24 134.965C1057.48 136.456 1054.39 137.225 1051.26 137.2H1050.34C1049.75 137.2 1049.18 137.2 1048.6 137.028C1047.12 136.834 1045.68 136.361 1044.36 135.634L1002.76 111.622C1001.55 110.999 1000.63 109.94 1000.18 108.661C999.758 107.426 999.495 106.142 999.397 104.84C999.378 104.509 999.378 104.178 999.397 103.847C999.376 103.535 999.376 103.222 999.397 102.911V102.261C999.397 101.879 999.511 101.516 999.588 101.192C999.621 101.011 999.665 100.832 999.721 100.657C999.81 100.315 999.931 99.9819 1000.08 99.6633C999.993 99.9603 999.948 100.27 999.95 100.58C999.964 101.583 1000.35 102.543 1001.04 103.274C1001.52 103.788 1002.07 104.226 1002.68 104.573L1044.29 128.585C1045.08 129.042 1045.94 129.389 1046.83 129.616C1047.41 129.787 1048 129.908 1048.6 129.979C1049.18 130.076 1049.76 130.134 1050.34 130.151C1053.76 130.322 1057.15 129.556 1060.16 127.935C1061.29 127.317 1062.27 126.479 1063.07 125.471C1063.68 124.691 1064.03 123.733 1064.06 122.739C1064.06 122.065 1063.88 121.403 1063.52 120.829C1064.42 122.379 1064.87 124.142 1064.84 125.929" fill="#CCA449"/>
</g>
</g>
<path d="M1064.19 122.988C1064.16 123.98 1063.81 124.936 1063.2 125.719C1062.41 126.721 1061.42 127.552 1060.3 128.165C1057.29 129.794 1053.89 130.561 1050.48 130.38C1049.9 130.367 1049.31 130.316 1048.74 130.228C1048.14 130.138 1047.55 130.017 1046.96 129.865C1046.08 129.621 1045.23 129.275 1044.42 128.833L1002.82 104.84C1002.21 104.5 1001.65 104.069 1001.17 103.56C1000.49 102.83 1000.1 101.869 1000.08 100.867C1000.08 100.556 1000.13 100.247 1000.22 99.95V99.8354L1001.94 100.16C1001.85 100.385 1001.8 100.625 1001.8 100.867C1001.81 101.198 1001.89 101.524 1002.03 101.822C1002.03 101.866 1002.03 101.911 1002.03 101.956C1002.44 102.537 1002.97 103.02 1003.58 103.369L1034.14 121.039L1034.97 121.517L1045.13 127.4C1045.62 127.68 1046.14 127.904 1046.68 128.069C1047.25 128.269 1047.85 128.416 1048.45 128.508C1049.04 128.621 1049.63 128.685 1050.23 128.699C1053.36 128.916 1056.49 128.254 1059.26 126.789C1061.17 125.7 1062.3 124.325 1062.3 123.121C1062.3 122.831 1062.23 122.545 1062.11 122.281C1061.72 121.579 1061.13 121.008 1060.41 120.638L1059.88 120.332L1063.1 120.638C1063.26 120.817 1063.39 121.008 1063.51 121.211C1063.86 121.787 1064.04 122.448 1064.04 123.121" fill="#FFEBB0"/>
<path d="M1063.66 121.077C1063.54 120.874 1063.41 120.683 1063.26 120.504C1062.75 119.892 1062.14 119.38 1061.44 118.995L1060.6 118.499L1019.86 94.9832C1015.77 92.6336 1008.66 92.9201 1003.94 95.6326C1002.84 96.2372 1001.87 97.0631 1001.1 98.0587C1000.76 98.5135 1000.5 99.0242 1000.33 99.5678C1000.32 99.6375 1000.32 99.7081 1000.33 99.7779C1000.24 100.075 1000.2 100.384 1000.2 100.695C1000.21 101.697 1000.6 102.658 1001.29 103.388C1001.77 103.897 1002.32 104.328 1002.93 104.668L1044.54 128.68C1045.34 129.136 1046.19 129.489 1047.08 129.731C1047.66 129.883 1048.26 130.004 1048.85 130.094C1049.43 130.182 1050.01 130.234 1050.59 130.247C1054.01 130.417 1057.4 129.651 1060.41 128.031C1061.54 127.419 1062.53 126.58 1063.31 125.566C1063.93 124.792 1064.27 123.841 1064.31 122.854C1064.31 122.18 1064.12 121.519 1063.77 120.944L1063.66 121.077ZM1059.4 126.655C1056.62 128.12 1053.49 128.782 1050.36 128.566C1049.77 128.542 1049.17 128.478 1048.59 128.375C1047.98 128.282 1047.39 128.135 1046.81 127.935C1046.27 127.762 1045.76 127.539 1045.26 127.267L1035.1 121.383L1034.3 120.905L1003.73 103.216C1003.11 102.881 1002.58 102.403 1002.19 101.822C1002.18 101.778 1002.18 101.732 1002.19 101.688C1002.04 101.39 1001.96 101.064 1001.96 100.733C1001.96 100.485 1002 100.239 1002.09 100.007C1002.32 99.4494 1002.66 98.9476 1003.1 98.5363C1003.1 98.5363 1003.1 98.5363 1003.1 98.4408C1003.63 97.9483 1004.21 97.5187 1004.84 97.1608C1008.99 94.773 1015.48 94.4674 1019 96.4923L1056.42 118.116L1060.05 120.218L1060.58 120.523C1061.3 120.893 1061.89 121.464 1062.28 122.166C1062.4 122.43 1062.47 122.716 1062.47 123.007C1062.47 124.21 1061.35 125.586 1059.44 126.674" fill="#FFEBB0"/>
<path d="M1062.45 122.987C1062.45 124.191 1061.33 125.566 1059.42 126.655C1056.64 128.12 1053.51 128.782 1050.38 128.565C1049.79 128.551 1049.19 128.487 1048.61 128.374C1048 128.282 1047.41 128.135 1046.83 127.935C1046.29 127.77 1045.77 127.546 1045.28 127.266L1035.12 121.383L1034.32 120.905L1003.75 103.235C1003.14 102.886 1002.61 102.403 1002.2 101.822C1002.2 101.777 1002.2 101.732 1002.2 101.688C1002.06 101.39 1001.98 101.064 1001.98 100.733C1001.98 100.491 1002.02 100.251 1002.11 100.026C1002.11 100.026 1002.11 100.026 1002.11 99.9114C1002.34 99.3537 1002.68 98.8519 1003.12 98.4406C1003.12 98.4406 1003.12 98.4405 1003.12 98.345C1003.65 97.8525 1004.23 97.423 1004.86 97.0652C1009.01 94.6773 1015.5 94.3717 1019.02 96.3966L1056.44 118.021L1060.07 120.122L1060.6 120.428C1061.32 120.798 1061.91 121.369 1062.3 122.071C1062.42 122.334 1062.49 122.621 1062.49 122.911" fill="#FFEBB0"/>
<path d="M1100.09 146.598C1100.05 148.232 1099.73 149.847 1099.15 151.374C1099.15 151.431 1099.15 151.489 1099.15 151.546C1099.15 151.546 1099.15 151.699 1099.15 151.794C1098.38 153.343 1097.13 154.608 1095.6 155.405C1093.53 156.543 1091.26 157.258 1088.91 157.506C1088.35 157.582 1087.78 157.62 1087.21 157.62C1086.39 157.678 1085.57 157.678 1084.75 157.62C1084.14 157.557 1083.53 157.462 1082.93 157.334C1082.09 157.141 1081.27 156.866 1080.49 156.513L1079.76 156.15L1070.86 151.049C1070.53 150.853 1070.22 150.636 1069.92 150.4L1069.54 150.056C1068.97 149.539 1068.54 148.88 1068.3 148.146C1067.77 146.614 1067.49 145.009 1067.46 143.389C1067.42 141.903 1067.69 140.426 1068.26 139.053C1068.17 139.401 1068.11 139.761 1068.11 140.122C1068.13 141.118 1068.52 142.071 1069.2 142.797C1069.68 143.312 1070.24 143.75 1070.86 144.096L1079.68 149.196C1081.65 150.224 1083.83 150.761 1086.05 150.763C1087.22 150.808 1088.39 150.737 1089.54 150.552C1091.66 150.265 1093.71 149.585 1095.58 148.547C1096.69 147.924 1097.67 147.086 1098.46 146.083C1099.08 145.305 1099.43 144.345 1099.46 143.351C1099.45 142.975 1099.4 142.602 1099.28 142.243C1099.89 143.608 1100.19 145.086 1100.18 146.579" fill="#FFEBB0"/>
<g opacity="0.5">
<g opacity="0.5">
<path opacity="0.5" d="M1100.09 146.598C1100.05 148.232 1099.73 149.847 1099.15 151.374C1099.15 151.431 1099.15 151.489 1099.15 151.546C1099.15 151.546 1099.15 151.699 1099.15 151.794C1098.38 153.343 1097.13 154.608 1095.6 155.405C1093.53 156.543 1091.26 157.258 1088.91 157.506C1088.35 157.582 1087.78 157.62 1087.21 157.62C1086.39 157.678 1085.57 157.678 1084.75 157.62C1084.14 157.557 1083.53 157.462 1082.93 157.334C1082.09 157.141 1081.27 156.866 1080.49 156.513L1079.76 156.15L1070.86 151.049C1070.53 150.853 1070.22 150.636 1069.92 150.4L1069.54 150.056C1068.97 149.539 1068.54 148.88 1068.3 148.146C1067.77 146.614 1067.49 145.009 1067.46 143.389C1067.42 141.903 1067.69 140.426 1068.26 139.053C1068.17 139.401 1068.11 139.761 1068.11 140.122C1068.13 141.118 1068.52 142.071 1069.2 142.797C1069.68 143.312 1070.24 143.75 1070.86 144.096L1079.68 149.196C1081.65 150.224 1083.83 150.761 1086.05 150.763C1087.22 150.808 1088.39 150.737 1089.54 150.552C1091.66 150.265 1093.71 149.585 1095.58 148.547C1096.69 147.924 1097.67 147.086 1098.46 146.083C1099.08 145.305 1099.43 144.345 1099.46 143.351C1099.45 142.975 1099.4 142.602 1099.28 142.243C1099.89 143.608 1100.19 145.086 1100.18 146.579" fill="#CCA449"/>
</g>
</g>
<path d="M1044.12 198.71C1044.32 202.425 1045.39 206.039 1047.25 209.261C1049.11 212.484 1051.7 215.223 1054.81 217.259C1060.74 220.659 1065.53 217.908 1065.53 211.07C1065.33 207.355 1064.25 203.741 1062.39 200.521C1060.53 197.301 1057.93 194.566 1054.81 192.54C1048.91 189.121 1044.12 191.891 1044.12 198.71Z" fill="#F1F2F2"/>
<path d="M1059.65 220.048C1057.72 219.982 1055.84 219.416 1054.2 218.405C1050.88 216.265 1048.11 213.361 1046.13 209.935C1044.16 206.51 1043.03 202.661 1042.84 198.711C1042.56 197.131 1042.78 195.506 1043.47 194.055C1044.15 192.604 1045.26 191.397 1046.65 190.597C1048.04 189.798 1049.64 189.443 1051.23 189.582C1052.83 189.722 1054.35 190.347 1055.58 191.375C1058.9 193.516 1061.67 196.42 1063.65 199.845C1065.62 203.271 1066.75 207.119 1066.94 211.07C1066.94 214.891 1065.61 217.737 1063.12 219.15C1062.07 219.759 1060.88 220.069 1059.67 220.048H1059.65ZM1050.11 192.407C1049.37 192.391 1048.64 192.576 1047.99 192.942C1047.12 193.597 1046.43 194.472 1046 195.477C1045.56 196.483 1045.4 197.585 1045.53 198.672C1045.72 202.154 1046.72 205.542 1048.47 208.562C1050.21 211.582 1052.64 214.149 1055.56 216.056C1056.38 216.842 1057.43 217.342 1058.55 217.479C1059.68 217.617 1060.82 217.384 1061.8 216.818C1062.78 216.251 1063.56 215.38 1064 214.337C1064.45 213.293 1064.54 212.133 1064.27 211.032C1064.08 207.549 1063.07 204.16 1061.32 201.14C1059.58 198.12 1057.14 195.554 1054.22 193.648C1052.98 192.876 1051.57 192.435 1050.11 192.369" fill="#FFEBB0"/>
<path d="M1050.09 208.262L1049.1 205.779L1053.53 203.983V197.889H1056.21V205.798L1050.09 208.262Z" fill="#333954"/>
<path d="M976.635 136.878L975.3 139.195L1032.93 172.403L1034.27 170.086L976.635 136.878Z" fill="#FFEBB0"/>
<path d="M1067.54 192.331L1042.26 177.793L1043.6 175.482L1068.87 190.019L1067.54 192.331Z" fill="#FFEBB0"/>
<g style="mix-blend-mode:overlay">
<g style="mix-blend-mode:overlay">
<g style="mix-blend-mode:overlay">
<path d="M1025.87 155.997L1050.92 230.497L1070.75 241.94L1044.71 166.847L1025.87 155.997Z" fill="#FFEBB0"/>
</g>
</g>
</g>
<g style="mix-blend-mode:overlay">
<g style="mix-blend-mode:overlay">
<g style="mix-blend-mode:overlay">
<path d="M1079.44 247.002L1073.34 243.487L1048.32 168.987L1054.45 172.521L1079.44 247.002Z" fill="#FFEBB0"/>
</g>
</g>
</g>
<path d="M1034.13 141.651L1040.43 160.009L1021.35 149.005L1015.16 130.743L1034.13 141.651Z" fill="#E66F50"/>
<path d="M1044.12 147.42L1050.31 165.682L1044.15 162.148L1037.96 143.886L1044.12 147.42Z" fill="#E66F50"/>
<path d="M1078.37 270.25L1072.06 251.911L1052.35 240.564L1058.54 258.826L1078.37 270.25Z" fill="#E66F50"/>
<path d="M1087.06 274.204C1085.62 274.108 1084.22 273.662 1082.99 272.905L1081.42 272.007L1075.23 253.726L1077.49 255.025C1078.07 255.376 1078.72 255.574 1079.4 255.598C1079.81 255.6 1080.22 255.522 1080.6 255.369L1087.06 274.204Z" fill="#E66F50"/>
<path d="M739 449.611C739 449.611 803.827 471.32 903.812 467.823C1003.8 464.325 1085.64 426.816 1210 439.673V553.622C1210 553.622 1184.18 539.945 1105.68 549.883C1027.19 559.821 846.324 595.207 739 559.17V449.611Z" fill="#424A63"/>
<path d="M846.014 540.447C842.279 540.184 840.525 538.449 840.75 535.241C840.824 534.187 841.052 533 841.434 531.68C841.866 530.315 842.446 528.575 843.172 526.461C844 524.258 844.638 522.378 845.084 520.821C845.53 519.265 845.797 517.864 845.885 516.619C846.113 513.363 844.791 511.634 841.918 511.432C841.152 511.378 840.356 511.419 839.528 511.553L831.879 538.226L821.537 537.499L834.515 492.507L845.246 491.817L840.56 508.161L841.135 508.201C843.002 508.333 844.772 507.807 846.443 506.626C848.114 505.444 849.447 503.926 850.444 502.071C851.492 500.172 852.081 498.288 852.212 496.421C852.367 494.218 851.823 492.376 850.58 490.893C849.388 489.366 847.475 488.509 844.842 488.324C840.963 488.052 837.515 488.507 834.497 489.69C831.478 490.874 829.062 492.725 827.249 495.244C825.484 497.766 824.475 500.823 824.223 504.414C824.098 506.186 824.178 507.443 824.463 508.184C824.751 508.878 824.892 509.273 824.885 509.369C822.3 509.187 820.397 508.524 819.179 507.38C818.011 506.191 817.515 504.352 817.69 501.862C817.905 498.797 819.359 495.916 822.051 493.218C824.794 490.476 828.191 488.357 832.241 486.861C836.296 485.318 840.286 484.684 844.212 484.96C847.803 485.212 850.783 485.951 853.151 487.176C855.519 488.401 857.239 489.941 858.311 491.797C859.387 493.605 859.853 495.539 859.708 497.597C859.55 499.848 858.698 502.05 857.151 504.202C855.604 506.355 853.583 508.066 851.088 509.334C852.871 509.989 854.077 510.964 854.708 512.259C855.39 513.51 855.667 515.045 855.539 516.865C855.441 518.253 855.17 519.726 854.723 521.282C854.28 522.791 853.667 524.672 852.883 526.927C852.396 528.384 851.934 529.82 851.498 531.233C851.062 532.645 850.81 533.831 850.743 534.788C850.665 535.89 850.836 536.888 851.254 537.784C851.72 538.682 852.372 539.33 853.21 539.726C850.232 540.334 847.834 540.575 846.014 540.447Z" fill="#FFEBB0"/>
<path d="M874.284 540.773C870.78 540.704 868.063 539.738 866.131 537.876C864.201 535.965 863.274 533.042 863.352 529.107C863.417 525.796 864.137 522.161 865.511 518.204C866.886 514.246 869.065 510.856 872.049 508.035C875.034 505.165 878.782 503.775 883.294 503.864C888.573 503.968 891.167 506.323 891.076 510.931C891.023 513.618 890.206 516.074 888.626 518.3C887.046 520.525 884.97 522.308 882.399 523.65C879.829 524.943 877.102 525.658 874.219 525.793C874.102 526.847 874.04 527.566 874.033 527.95C873.954 531.933 875.402 533.954 878.378 534.013C879.722 534.039 881.168 533.708 882.718 533.018C884.268 532.328 885.678 531.444 886.947 530.365C885.512 537.442 881.29 540.911 874.284 540.773ZM874.791 522.348C876.616 522.336 878.331 521.769 879.938 520.649C881.592 519.529 882.917 518.091 883.912 516.334C884.955 514.531 885.497 512.645 885.536 510.677C885.574 508.71 884.994 507.714 883.794 507.69C882.114 507.657 880.405 509.16 878.664 512.198C876.973 515.189 875.682 518.572 874.791 522.348Z" fill="#FFEBB0"/>
<path d="M909.666 558.425C907.41 558.482 905.4 557.788 903.636 556.344C901.92 554.946 901.034 553.12 900.977 550.865C900.924 548.753 901.409 547.013 902.43 545.643C903.452 544.272 904.793 543.182 906.454 542.373C908.114 541.563 910.349 540.69 913.158 539.755L913.73 536.716C911.302 539.466 908.457 540.882 905.194 540.964C902.459 541.032 900.156 540.154 898.285 538.328C896.415 536.503 895.43 533.599 895.33 529.616C895.241 526.065 895.843 522.329 897.137 518.407C898.478 514.436 900.506 511.072 903.221 508.315C905.984 505.509 909.308 504.057 913.195 503.959C915.163 503.91 916.635 504.209 917.611 504.857C918.588 505.504 919.09 506.38 919.118 507.484L919.121 507.627L919.754 504.154L930.191 503.892L922.458 545.86C921.614 550.49 919.991 553.724 917.588 555.561C915.234 557.397 912.593 558.351 909.666 558.425ZM909.697 533.864C910.801 533.837 911.893 533.353 912.974 532.414C914.101 531.425 914.883 530.061 915.32 528.321L918.553 510.811C918.127 509.141 917.122 508.326 915.539 508.366C913.619 508.414 911.92 509.585 910.441 511.879C908.961 514.125 907.829 516.842 907.045 520.031C906.259 523.171 905.897 525.941 905.957 528.341C906.017 530.74 906.392 532.267 907.08 532.922C907.817 533.576 908.689 533.89 909.697 533.864ZM907.849 552.061C908.713 552.039 909.517 551.562 910.262 550.631C911.008 549.748 911.572 548.318 911.955 546.34L912.712 542.071C910.19 542.999 908.248 544.056 906.886 545.243C905.523 546.429 904.865 547.934 904.911 549.758C904.925 550.333 905.226 550.854 905.814 551.319C906.403 551.833 907.082 552.08 907.849 552.061Z" fill="#FFEBB0"/>
<path d="M946.351 498.887C944.77 498.987 943.394 498.521 942.222 497.489C941.051 496.457 940.415 495.15 940.315 493.569C940.215 491.988 940.682 490.612 941.714 489.441C942.743 488.221 944.048 487.562 945.629 487.462C947.21 487.362 948.587 487.852 949.762 488.932C950.981 489.961 951.641 491.266 951.741 492.847C951.84 494.428 951.35 495.806 950.27 496.98C949.238 498.152 947.932 498.787 946.351 498.887ZM944.007 539.436C941.708 539.581 939.794 538.98 938.266 537.634C936.786 536.285 935.955 534.173 935.774 531.299C935.698 530.101 935.791 528.532 936.053 526.592L939.482 503.217L949.829 502.563L946.199 527.321C946.053 528.052 946.006 528.825 946.057 529.639C946.118 530.597 946.377 531.278 946.836 531.682C947.339 532.035 948.118 532.178 949.171 532.111C950.034 532.057 950.791 531.865 951.444 531.535C951.403 533.942 950.658 535.841 949.206 537.231C947.8 538.571 946.067 539.306 944.007 539.436Z" fill="#FFEBB0"/>
<path d="M966.31 537.748C964.016 537.963 962.04 537.715 960.383 537.003C958.72 536.243 957.442 535.206 956.547 533.892C955.648 532.53 955.126 531.084 954.983 529.555C954.835 527.978 955.089 526.58 955.746 525.361C956.351 524.099 957.154 523.156 958.156 522.532C959.706 519.011 961.014 515.49 962.082 511.966C963.144 508.395 964.111 504.568 964.981 500.485L975.456 498.055C976.269 504.15 977.297 510.731 978.539 517.798C979.047 520.643 979.362 522.71 979.483 524C979.757 526.916 979.24 529.375 977.934 531.378C976.627 533.38 974.913 534.891 972.791 535.91C970.717 536.925 968.556 537.537 966.31 537.748ZM963.485 532.3C965.253 532.134 966.685 531.47 967.781 530.306C968.877 529.142 969.315 527.39 969.095 525.048C968.961 523.614 968.629 521.621 968.1 519.067C967.11 513.664 966.456 510.037 966.138 508.187C965.346 512.07 963.834 516.768 961.604 522.28C962.757 522.751 963.385 523.535 963.488 524.634C963.573 525.542 963.339 526.384 962.785 527.159C962.279 527.93 961.572 528.358 960.664 528.443C959.66 528.537 958.986 528.287 958.641 527.693C958.802 529.413 959.256 530.648 960.001 531.398C960.794 532.143 961.955 532.444 963.485 532.3Z" fill="#FFEBB0"/>
<path d="M993.029 534.902C990.601 535.211 988.698 534.704 987.319 533.379C985.989 532.048 985.169 530.169 984.86 527.74C984.702 526.502 984.684 525.222 984.806 523.9L986.65 501.891L984.293 502.192L984.5 499.262L986.857 498.962L987.745 488.833L998.134 486.058C997.936 487.922 997.834 489.024 997.829 489.363C997.665 490.739 997.436 493.502 997.142 497.652L1001.43 497.107L1001.22 500.037L996.935 500.582L995.091 522.591C994.987 523.669 994.974 524.517 995.052 525.136C995.271 526.851 996.213 527.602 997.88 527.389C998.737 527.28 999.347 527.13 999.709 526.939C999.109 529.822 998.226 531.821 997.062 532.937C995.897 534.053 994.553 534.708 993.029 534.902Z" fill="#FFEBB0"/>
<path d="M1010.38 495.788L1020.61 494.108L1020.41 498.665C1021.79 496.98 1023.06 495.653 1024.21 494.685C1025.41 493.71 1026.77 493.097 1028.29 492.848C1029.8 492.6 1031.07 492.926 1032.09 493.828C1033.17 494.723 1033.82 495.904 1034.06 497.372C1034.29 498.746 1034.04 500.027 1033.31 501.217C1032.58 502.407 1031.41 503.134 1029.8 503.399C1028.76 503.57 1028.01 503.45 1027.55 503.038C1027.13 502.572 1026.75 501.88 1026.41 500.964C1026.16 500.372 1025.95 499.945 1025.76 499.684C1025.57 499.423 1025.29 499.324 1024.91 499.386C1023.91 499.549 1023.1 499.903 1022.46 500.446C1021.85 500.933 1021.09 501.764 1020.17 502.938L1018.91 530.869L1008.68 532.549L1010.38 495.788Z" fill="#FFEBB0"/>
<path d="M1052.89 525.282C1050.21 525.845 1047.78 525.399 1045.61 523.944C1043.44 522.488 1041.95 519.811 1041.13 515.912C1040.39 512.436 1040.31 508.653 1040.87 504.561C1041.47 500.413 1042.85 496.737 1045.02 493.533C1047.23 490.272 1050.23 488.241 1054.04 487.439C1055.96 487.034 1057.47 487.061 1058.54 487.521C1059.62 487.98 1060.27 488.75 1060.5 489.831L1060.61 490.324L1060.59 486.427L1070.74 484.29L1070.71 509.313C1070.67 510.057 1070.74 510.828 1070.91 511.626C1071.1 512.566 1071.46 513.202 1071.97 513.536C1072.52 513.813 1073.31 513.842 1074.34 513.625C1075 513.486 1075.5 513.284 1075.83 513.017C1075.35 515.865 1074.76 517.928 1074.05 519.206C1073.33 520.437 1072.07 521.24 1070.29 521.616C1068.36 522.022 1066.67 521.79 1065.21 520.92C1063.79 519.993 1062.72 518.526 1062 516.518C1060.06 521.49 1057.02 524.411 1052.89 525.282ZM1056.03 517.483C1057.2 517.236 1058.24 516.453 1059.14 515.135C1060.07 513.761 1060.55 512.066 1060.57 510.051L1060.6 493.416C1060.47 492.806 1060.11 492.268 1059.52 491.803C1058.92 491.292 1058.13 491.14 1057.14 491.348C1055.26 491.743 1053.81 493.203 1052.77 495.727C1051.72 498.205 1051.1 501.082 1050.91 504.36C1050.7 507.591 1050.85 510.381 1051.35 512.73C1051.84 515.078 1052.49 516.512 1053.28 517.031C1054.12 517.54 1055.04 517.691 1056.03 517.483Z" fill="#FFEBB0"/>
<path d="M1090.89 516.696C1088.65 517.264 1086.66 517.325 1084.91 516.879C1083.15 516.386 1081.73 515.559 1080.64 514.4C1079.54 513.194 1078.8 511.847 1078.43 510.358C1078.03 508.823 1078.07 507.403 1078.53 506.097C1078.93 504.756 1079.58 503.7 1080.47 502.928C1081.46 499.21 1082.2 495.528 1082.71 491.882C1083.21 488.189 1083.57 484.258 1083.79 480.09L1093.77 476.065C1095.51 481.96 1097.55 488.301 1099.87 495.09C1100.82 497.822 1101.45 499.816 1101.77 501.072C1102.49 503.909 1102.36 506.419 1101.38 508.6C1100.4 510.781 1098.94 512.54 1097 513.875C1095.11 515.199 1093.07 516.139 1090.89 516.696ZM1087.25 511.752C1088.97 511.314 1090.28 510.435 1091.18 509.116C1092.09 507.796 1092.25 505.997 1091.67 503.717C1091.31 502.322 1090.68 500.404 1089.76 497.963C1087.94 492.779 1086.73 489.297 1086.13 487.519C1085.95 491.478 1085.19 496.353 1083.84 502.145C1085.05 502.431 1085.79 503.108 1086.06 504.178C1086.29 505.062 1086.19 505.93 1085.76 506.782C1085.38 507.621 1084.75 508.154 1083.86 508.379C1082.89 508.628 1082.18 508.485 1081.75 507.951C1082.18 509.626 1082.82 510.776 1083.67 511.401C1084.57 512.014 1085.76 512.131 1087.25 511.752Z" fill="#FFEBB0"/>
<path d="M1110.73 469.539C1109.21 469.976 1107.77 469.817 1106.4 469.061C1105.03 468.305 1104.13 467.165 1103.69 465.643C1103.26 464.121 1103.42 462.676 1104.17 461.31C1104.92 459.898 1106.05 458.973 1107.57 458.536C1109.09 458.098 1110.54 458.281 1111.92 459.083C1113.33 459.826 1114.26 460.959 1114.7 462.481C1115.13 464.003 1114.95 465.454 1114.15 466.833C1113.39 468.199 1112.25 469.101 1110.73 469.539ZM1117.16 509.643C1114.95 510.279 1112.95 510.104 1111.17 509.118C1109.43 508.118 1108.17 506.234 1107.37 503.466C1107.04 502.313 1106.79 500.761 1106.63 498.809L1104.96 475.244L1114.92 472.381L1116.7 497.34C1116.71 498.085 1116.83 498.85 1117.06 499.634C1117.32 500.557 1117.72 501.166 1118.26 501.462C1118.82 501.698 1119.62 501.671 1120.63 501.379C1121.46 501.141 1122.16 500.79 1122.73 500.328C1123.2 502.687 1122.88 504.702 1121.77 506.372C1120.68 507.982 1119.15 509.073 1117.16 509.643Z" fill="#FFEBB0"/>
</svg>
