<svg width="245" height="366" viewBox="0 0 245 366" fill="none" xmlns="http://www.w3.org/2000/svg">
<path d="M35.9865 126.9L36 150H34.9194V127.468L14.5772 108.462L14.5772 66.5668L6 58.1932L6 21.6078L28.3143 0L29.3408 1.00381L7.08058 22.2022L7.0941 57.6253L15.6443 65.9857L15.6443 107.907L35.9865 126.9Z" fill="#466C80"/>
<path d="M65 1L64.9869 39.8938L38.0771 67.239L38.0901 95.1283L63.968 121.412L63.968 211.186L43.2501 232.212L43.2631 261.987L41.1861 262L41.1992 231.602L61.891 210.562L61.891 121.996L36 95.6859L36 66.6549L63.968 39.2699V1H65Z" fill="#466C80"/>
<path d="M84 208.212L83.9868 269.28L73.5076 279.994V324H72.4622L72.4491 279.373L82.9548 268.712L82.9679 208.794L46.2378 172.063L46.2509 116.709L20.0132 90.5326L20 23.5915L31.5509 12.2428L31.5642 1.02649L33.6548 1L33.6415 12.8116L22.117 24.147L22.117 90.4136L47.283 115.584L47.2698 171.481L84 208.212Z" fill="#466C80"/>
<path d="M170.843 79.4348L170.856 104.362L145.53 130.007L145.517 162.396L72.7719 235.194V261.424L70.657 261.451V234.582L143.429 161.81L143.429 129.382L168.728 103.763V79.4216L170.843 79.4348Z" fill="#466C80"/>
<path d="M90.9868 50.3019L91 86.2154L76.3289 100.7L76.3421 179.987L73.186 180L73.186 99.5378L87.8439 85.0139V51.477L69 33.0581L69 1H72.1429L72.1693 31.8962L90.9868 50.3019Z" fill="#466C80"/>
<path d="M117 113.934L116.987 170H115.922L115.935 114.515L97.7665 97.0491V35.7637L86.0134 24.4988L86 1.01294L87.0782 1L87.0782 23.8787L98.8312 35.1566L98.8447 96.4936L117 113.934Z" fill="#466C80"/>
<path d="M143 74.3957L142.987 99.5149L88.1037 153.782L88.0904 188.617L114.493 214.67L114.48 300.06L129.273 314.489V335H126.104V315.687L111.324 301.205L111.378 215.368L86 190.275L86 152.11L139.831 98.8829L139.844 75.5411L128.221 63.9558V1L131.39 1.01315V62.7578L143 74.3957Z" fill="#466C80"/>
<path d="M137 105.415L136.96 199.15L94.1388 242.149L94.1519 291.96L91 292L91.0132 241.014L133.861 198.001L133.888 106.63L114 86.5626L114.013 1L117.139 1.02634V85.3612L137 105.415Z" fill="#466C80"/>
<path d="M146.595 302.739V334.29L145.531 334.263L145.544 303.337L124.448 282.055L124.461 220.722L125.499 220.709L125.512 281.43L146.595 302.739Z" fill="#466C80"/>
<path d="M205.987 26.3934L206 133.385L175.318 163.199L175.305 217.874L153.108 239.327L153.094 261L151 260.974V238.769L173.197 217.304V163.147L204.933 132.309V26.9118L184.83 7.80527V1.01297L185.897 1L185.844 7.22194L205.987 26.3934Z" fill="#466C80"/>
<path d="M245 43.1146L244.973 133.918L234.462 144.263L234.449 193.449L169.051 257.799V345.001L182.437 358.005L181.399 359L168 345.604L168.04 257.21L233.397 192.873L233.384 143.202L242.898 133.865V43.7432L235.513 36.6586L235.526 1H237.615L237.615 36.0431L245 43.1146Z" fill="#466C80"/>
<path d="M183 205.047V280L180.904 279.974V205.611L153.548 178.22L153.508 80.2866L122 49.0342V1H123.048L123.061 48.4696L155.657 79.6825L155.657 177.616L183 205.047Z" fill="#466C80"/>
<path d="M35.0358 147.471C35.6089 147.466 36.1707 147.632 36.6494 147.947C37.1281 148.262 37.5022 148.712 37.724 149.241C37.9457 149.769 38.005 150.352 37.8945 150.914C37.784 151.477 37.5086 151.993 37.1033 152.399C36.698 152.804 36.1814 153.079 35.619 153.19C35.0566 153.301 34.474 153.241 33.9455 153.019C33.417 152.798 32.9665 152.423 32.6514 151.945C32.3363 151.466 32.1708 150.904 32.1761 150.331C32.1897 149.577 32.4954 148.858 33.0288 148.324C33.5621 147.791 34.2816 147.485 35.0358 147.471Z" fill="#466C80"/>
<path d="M42.458 259.07C43.2177 259.067 43.9479 259.364 44.4888 259.898C45.0298 260.431 45.3373 261.157 45.3444 261.917C45.3444 262.682 45.0403 263.416 44.499 263.958C43.9577 264.499 43.2235 264.803 42.458 264.803C41.6925 264.803 40.9583 264.499 40.417 263.958C39.8757 263.416 39.5716 262.682 39.5716 261.917C39.5733 261.54 39.6494 261.167 39.7956 260.82C39.9418 260.473 40.1551 260.158 40.4233 259.894C40.6915 259.629 41.0093 259.42 41.3585 259.279C41.7077 259.138 42.0813 259.067 42.458 259.07Z" fill="#466C80"/>
<path d="M72.6389 258.046C73.0335 258.019 73.4295 258.074 73.8021 258.206C74.1748 258.339 74.5162 258.547 74.8052 258.817C75.0943 259.087 75.3247 259.413 75.4823 259.776C75.6398 260.139 75.7211 260.53 75.7211 260.926C75.7211 261.321 75.6398 261.713 75.4823 262.075C75.3247 262.438 75.0943 262.765 74.8052 263.035C74.5162 263.305 74.1748 263.513 73.8021 263.645C73.4295 263.778 73.0335 263.832 72.6389 263.805C72.2443 263.832 71.8483 263.778 71.4757 263.645C71.103 263.513 70.7616 263.305 70.4726 263.035C70.1835 262.765 69.9531 262.438 69.7956 262.075C69.638 261.713 69.5567 261.321 69.5567 260.926C69.5567 260.53 69.638 260.139 69.7956 259.776C69.9531 259.413 70.1835 259.087 70.4726 258.817C70.7616 258.547 71.103 258.339 71.4757 258.206C71.8483 258.074 72.2443 258.019 72.6389 258.046Z" fill="#466C80"/>
<path d="M146.156 330.911C146.918 330.911 147.649 331.214 148.187 331.752C148.726 332.291 149.029 333.022 149.029 333.784C149.012 334.543 148.705 335.267 148.17 335.807C147.636 336.346 146.915 336.66 146.156 336.684C145.388 336.67 144.656 336.356 144.116 335.809C143.577 335.262 143.273 334.526 143.269 333.757C143.269 333.38 143.344 333.007 143.49 332.659C143.635 332.311 143.849 331.995 144.117 331.73C144.386 331.466 144.704 331.257 145.054 331.116C145.404 330.975 145.779 330.906 146.156 330.911Z" fill="#466C80"/>
<path d="M124.834 217.41C125.404 217.41 125.963 217.58 126.437 217.897C126.912 218.214 127.282 218.665 127.5 219.192C127.719 219.719 127.776 220.3 127.664 220.86C127.553 221.42 127.278 221.934 126.875 222.338C126.471 222.741 125.957 223.016 125.397 223.128C124.837 223.239 124.256 223.182 123.729 222.963C123.202 222.745 122.751 222.375 122.434 221.9C122.116 221.425 121.947 220.867 121.947 220.297C121.944 219.917 122.016 219.54 122.16 219.188C122.303 218.836 122.516 218.516 122.785 218.248C123.053 217.979 123.373 217.766 123.725 217.623C124.077 217.479 124.454 217.407 124.834 217.41Z" fill="#466C80"/>
<path d="M151.649 257.647C152.027 257.643 152.402 257.715 152.752 257.857C153.102 257.999 153.42 258.209 153.689 258.475C153.957 258.741 154.17 259.057 154.315 259.406C154.461 259.755 154.536 260.129 154.536 260.507C154.529 261.267 154.224 261.993 153.686 262.531C153.149 263.068 152.422 263.373 151.662 263.38C151.27 263.407 150.875 263.352 150.504 263.22C150.133 263.088 149.794 262.882 149.506 262.613C149.218 262.344 148.989 262.019 148.832 261.658C148.675 261.297 148.594 260.907 148.594 260.513C148.594 260.12 148.675 259.73 148.832 259.369C148.989 259.008 149.218 258.683 149.506 258.414C149.794 258.145 150.133 257.938 150.504 257.806C150.875 257.674 151.27 257.62 151.662 257.647H151.649Z" fill="#466C80"/>
<path d="M168.914 252.38C169.667 252.387 170.387 252.689 170.919 253.221C171.452 253.753 171.754 254.473 171.761 255.226C171.766 255.602 171.696 255.975 171.555 256.324C171.414 256.672 171.205 256.989 170.94 257.255C170.675 257.522 170.359 257.733 170.011 257.875C169.663 258.018 169.29 258.089 168.914 258.086C168.523 258.113 168.131 258.059 167.762 257.927C167.392 257.796 167.054 257.59 166.767 257.323C166.481 257.055 166.252 256.732 166.096 256.372C165.94 256.012 165.86 255.625 165.86 255.233C165.86 254.841 165.94 254.453 166.096 254.093C166.252 253.734 166.481 253.41 166.767 253.143C167.054 252.875 167.392 252.669 167.762 252.538C168.131 252.407 168.523 252.353 168.914 252.38Z" fill="#466C80"/>
<path d="M143.775 127.692C144.533 127.703 145.257 128.012 145.79 128.552C146.323 129.092 146.621 129.82 146.621 130.579C146.621 131.341 146.319 132.071 145.78 132.61C145.241 133.149 144.51 133.452 143.748 133.452C142.986 133.452 142.256 133.149 141.717 132.61C141.178 132.071 140.875 131.341 140.875 130.579C140.882 129.813 141.19 129.081 141.733 128.541C142.276 128.001 143.009 127.696 143.775 127.692Z" fill="#466C80"/>
<path d="M97.7654 91.7786C98.3384 91.7707 98.9008 91.9336 99.381 92.2465C99.8612 92.5594 100.237 93.0082 100.462 93.5356C100.686 94.0631 100.748 94.6453 100.64 95.2082C100.532 95.7711 100.259 96.2891 99.8557 96.6963C99.4523 97.1034 98.9368 97.3812 98.375 97.4944C97.8131 97.6075 97.2304 97.5508 96.7008 97.3315C96.1713 97.1122 95.7191 96.7403 95.4017 96.263C95.0844 95.7858 94.9162 95.2248 94.9188 94.6517C94.9171 94.2761 94.9894 93.904 95.1315 93.5563C95.2736 93.2087 95.4827 92.8924 95.747 92.6256C96.0113 92.3588 96.3256 92.1467 96.6719 92.0014C97.0182 91.8561 97.3898 91.7804 97.7654 91.7786Z" fill="#466C80"/>
<path d="M63.328 207.833C64.087 207.847 64.8113 208.153 65.3493 208.689C65.8873 209.224 66.1973 209.947 66.2144 210.706C66.1647 211.436 65.8398 212.12 65.3052 212.62C64.7706 213.119 64.0663 213.397 63.3346 213.397C62.603 213.397 61.8987 213.119 61.3641 212.62C60.8295 212.12 60.5045 211.436 60.4549 210.706C60.4619 209.946 60.7667 209.22 61.304 208.682C61.8413 208.145 62.5681 207.84 63.328 207.833Z" fill="#466C80"/>
<path d="M115.961 166.891C116.341 166.89 116.717 166.963 117.068 167.108C117.419 167.252 117.738 167.465 118.006 167.733C118.275 168.001 118.487 168.32 118.632 168.671C118.776 169.022 118.85 169.398 118.848 169.778C118.798 170.508 118.473 171.192 117.939 171.691C117.404 172.191 116.7 172.469 115.968 172.469C115.236 172.469 114.532 172.191 113.998 171.691C113.463 171.192 113.138 170.508 113.088 169.778C113.087 169.4 113.16 169.024 113.303 168.674C113.447 168.324 113.658 168.006 113.925 167.738C114.192 167.47 114.509 167.257 114.859 167.111C115.208 166.966 115.583 166.891 115.961 166.891Z" fill="#466C80"/>
<path d="M173.729 157.221C174.121 157.195 174.513 157.249 174.882 157.38C175.252 157.511 175.59 157.717 175.876 157.985C176.163 158.252 176.391 158.576 176.547 158.935C176.704 159.295 176.784 159.683 176.784 160.075C176.784 160.467 176.704 160.854 176.547 161.214C176.391 161.573 176.163 161.897 175.876 162.165C175.59 162.432 175.252 162.638 174.882 162.769C174.513 162.9 174.121 162.954 173.729 162.928C173.338 162.954 172.946 162.9 172.577 162.769C172.207 162.638 171.869 162.432 171.583 162.165C171.296 161.897 171.068 161.573 170.911 161.214C170.755 160.854 170.675 160.467 170.675 160.075C170.675 159.683 170.755 159.295 170.911 158.935C171.068 158.576 171.296 158.252 171.583 157.985C171.869 157.717 172.207 157.511 172.577 157.38C172.946 157.249 173.338 157.195 173.729 157.221Z" fill="#466C80"/>
<path d="M204.323 126.362C205.086 126.369 205.816 126.675 206.356 127.215C206.896 127.755 207.202 128.485 207.209 129.249C207.211 129.629 207.137 130.005 206.993 130.357C206.849 130.709 206.637 131.029 206.368 131.298C206.1 131.568 205.781 131.781 205.43 131.927C205.079 132.073 204.703 132.148 204.323 132.148C203.561 132.135 202.835 131.826 202.297 131.288C201.758 130.749 201.45 130.023 201.436 129.262C201.436 128.495 201.74 127.76 202.281 127.216C202.822 126.673 203.556 126.366 204.323 126.362Z" fill="#466C80"/>
<path d="M181.817 356.037C182.385 356.037 182.94 356.206 183.413 356.521C183.885 356.837 184.254 357.286 184.471 357.811C184.688 358.336 184.745 358.914 184.635 359.471C184.524 360.028 184.25 360.54 183.848 360.942C183.446 361.344 182.934 361.617 182.377 361.728C181.82 361.839 181.242 361.782 180.717 361.565C180.192 361.347 179.743 360.979 179.428 360.507C179.112 360.034 178.944 359.479 178.944 358.91C178.947 358.149 179.251 357.421 179.789 356.883C180.327 356.345 181.056 356.041 181.817 356.037Z" fill="#466C80"/>
<path d="M182.322 276.295C183.081 276.295 183.808 276.597 184.344 277.133C184.881 277.669 185.182 278.397 185.182 279.155C185.182 279.914 184.881 280.641 184.344 281.177C183.808 281.714 183.081 282.015 182.322 282.015C181.565 282.022 180.835 281.73 180.292 281.202C179.749 280.674 179.437 279.953 179.423 279.195C179.43 278.428 179.737 277.695 180.28 277.152C180.822 276.61 181.555 276.302 182.322 276.295Z" fill="#466C80"/>
<path d="M169.114 78.4772C169.493 78.4736 169.869 78.5454 170.219 78.6884C170.57 78.8314 170.889 79.0426 171.158 79.31C171.427 79.5773 171.639 79.8954 171.784 80.2456C171.929 80.5959 172.002 80.9713 172 81.3502C172 81.7258 171.926 82.0977 171.783 82.4447C171.639 82.7916 171.428 83.1069 171.163 83.3725C170.897 83.638 170.582 83.8487 170.235 83.9924C169.888 84.1361 169.516 84.2101 169.14 84.2101C168.765 84.2101 168.393 84.1361 168.046 83.9924C167.699 83.8487 167.384 83.638 167.118 83.3725C166.853 83.1069 166.642 82.7916 166.498 82.4447C166.355 82.0977 166.281 81.7258 166.281 81.3502C166.281 80.5951 166.578 79.8704 167.108 79.3327C167.638 78.795 168.359 78.4876 169.114 78.4772Z" fill="#466C80"/>
<path d="M86.8864 21C87.6519 21 88.3861 21.3041 88.9274 21.8454C89.4687 22.3867 89.7728 23.1208 89.7728 23.8864C89.7728 24.6519 89.4687 25.3861 88.9274 25.9274C88.3861 26.4687 87.6519 26.7728 86.8864 26.7728C86.1209 26.7728 85.3867 26.4687 84.8454 25.9274C84.3041 25.3861 84 24.6519 84 23.8864C84 23.1208 84.3041 22.3867 84.8454 21.8454C85.3867 21.3041 86.1209 21 86.8864 21Z" fill="#466C80"/>
<path d="M154.828 173.383C155.201 173.377 155.57 173.446 155.916 173.586C156.261 173.726 156.575 173.933 156.839 174.196C157.103 174.459 157.312 174.771 157.453 175.116C157.594 175.461 157.665 175.83 157.661 176.202C157.688 176.595 157.634 176.989 157.502 177.36C157.37 177.731 157.163 178.071 156.894 178.359C156.626 178.647 156.301 178.876 155.939 179.033C155.578 179.19 155.189 179.271 154.795 179.271C154.401 179.271 154.012 179.19 153.65 179.033C153.289 178.876 152.964 178.647 152.695 178.359C152.427 178.071 152.22 177.731 152.088 177.36C151.956 176.989 151.902 176.595 151.928 176.202C151.93 175.826 152.007 175.453 152.154 175.107C152.301 174.76 152.516 174.446 152.786 174.184C153.056 173.921 153.376 173.715 153.727 173.578C154.077 173.44 154.452 173.374 154.828 173.383Z" fill="#466C80"/>
<path d="M46.8875 168.195C47.4557 168.192 48.0119 168.358 48.4859 168.672C48.9598 168.985 49.3301 169.432 49.55 169.956C49.7699 170.48 49.8294 171.058 49.7212 171.616C49.6129 172.173 49.3417 172.687 48.9417 173.09C48.5418 173.494 48.0311 173.77 47.4743 173.883C46.9175 173.997 46.3395 173.943 45.8136 173.728C45.2876 173.513 44.8371 173.146 44.5192 172.675C44.2013 172.204 44.0303 171.65 44.0276 171.081C44.0259 170.704 44.0985 170.33 44.2412 169.981C44.384 169.632 44.5942 169.314 44.8598 169.046C45.1254 168.778 45.441 168.565 45.789 168.419C46.1369 168.273 46.5102 168.197 46.8875 168.195Z" fill="#466C80"/>
<path d="M15.6425 104.974C16.214 104.971 16.7733 105.138 17.2497 105.453C17.7261 105.769 18.0982 106.219 18.3187 106.746C18.5392 107.273 18.5982 107.854 18.4883 108.415C18.3785 108.976 18.1046 109.491 17.7015 109.896C17.2984 110.301 16.7841 110.577 16.2238 110.69C15.6636 110.802 15.0825 110.746 14.5543 110.528C14.0261 110.31 13.5746 109.94 13.2568 109.465C12.9391 108.99 12.7694 108.431 12.7694 107.86C12.7729 107.098 13.0763 106.368 13.614 105.827C14.1517 105.287 14.8804 104.98 15.6425 104.974Z" fill="#466C80"/>
<path d="M7.20939 54.5347C7.96785 54.5347 8.69523 54.836 9.23155 55.3723C9.76786 55.9086 10.0692 56.6361 10.0692 57.3945C10.0746 57.7716 10.0043 58.1459 9.86244 58.4953C9.72062 58.8446 9.5102 59.162 9.24356 59.4286C8.97693 59.6953 8.65949 59.9058 8.3101 60.0476C7.9607 60.1894 7.58643 60.2597 7.20939 60.2543C6.45295 60.258 5.7253 59.9646 5.183 59.4372C4.6407 58.9099 4.32711 58.1906 4.30969 57.4344C4.32663 56.6707 4.63755 55.9429 5.17773 55.4027C5.7179 54.8626 6.44566 54.5516 7.20939 54.5347Z" fill="#466C80"/>
<path d="M7.20929 18.1952C7.78129 18.1926 8.3412 18.36 8.8179 18.6762C9.2946 18.9923 9.66659 19.443 9.8867 19.9709C10.1068 20.4989 10.1651 21.0803 10.0542 21.6415C9.94324 22.2026 9.66799 22.7181 9.26352 23.1226C8.85905 23.5271 8.3436 23.8022 7.78246 23.9132C7.22132 24.0241 6.63979 23.9659 6.11183 23.7458C5.58387 23.5257 5.13324 23.1536 4.81709 22.6769C4.50094 22.2002 4.3336 21.6404 4.33623 21.0684C4.33447 20.6906 4.40753 20.3162 4.55129 19.9668C4.69505 19.6174 4.90667 19.3 5.17382 19.0328C5.44096 18.7657 5.75831 18.5541 6.10769 18.4104C6.45707 18.2666 6.8315 18.1935 7.20929 18.1952Z" fill="#466C80"/>
<path d="M20.8699 18.9135C21.4419 18.9109 22.0017 19.0783 22.4784 19.3944C22.9551 19.7106 23.3272 20.1612 23.5473 20.6892C23.7674 21.2171 23.8257 21.7986 23.7147 22.3597C23.6038 22.9209 23.3286 23.4364 22.9241 23.8409C22.5197 24.2453 22.0041 24.5205 21.443 24.6315C20.8819 24.7424 20.3004 24.6842 19.7724 24.464C19.2445 24.2439 18.7939 23.8719 18.4777 23.3952C18.1616 22.9185 17.9941 22.3586 17.9968 21.7866C17.995 21.4088 18.0681 21.0344 18.2119 20.685C18.3557 20.3357 18.5672 20.0182 18.8343 19.7511C19.1015 19.4839 19.4189 19.2724 19.7683 19.1286C20.1177 18.9849 20.4921 18.9117 20.8699 18.9135Z" fill="#466C80"/>
<path d="M37.3769 63.9786C38.1424 63.9786 38.8766 64.2828 39.4179 64.8241C39.9592 65.3654 40.2633 66.0996 40.2633 66.8651C40.2633 67.6306 39.9592 68.3648 39.4179 68.9061C38.8766 69.4474 38.1424 69.7515 37.3769 69.7515C36.6114 69.7515 35.8772 69.4474 35.3359 68.9061C34.7946 68.3648 34.4905 67.6306 34.4905 66.8651C34.4905 66.0996 34.7946 65.3654 35.3359 64.8241C35.8772 64.2828 36.6114 63.9786 37.3769 63.9786Z" fill="#466C80"/>
<path d="M63.3279 118.302C63.706 118.291 64.0824 118.356 64.4347 118.494C64.787 118.632 65.1079 118.839 65.3785 119.103C65.649 119.368 65.8636 119.684 66.0094 120.033C66.1553 120.382 66.2295 120.756 66.2276 121.135C66.2294 121.514 66.1559 121.89 66.0115 122.241C65.867 122.592 65.6545 122.911 65.3861 123.18C65.1177 123.448 64.7988 123.661 64.4479 123.805C64.0969 123.949 63.7208 124.023 63.3412 124.021C62.5847 124.011 61.8619 123.707 61.3256 123.173C60.7894 122.639 60.4818 121.918 60.4681 121.161C60.4681 120.403 60.7694 119.675 61.3057 119.139C61.8421 118.603 62.5694 118.302 63.3279 118.302Z" fill="#466C80"/>
<path d="M72.8784 320.123C73.6421 320.14 74.3699 320.451 74.9101 320.992C75.4502 321.532 75.7612 322.259 75.7781 323.023C75.7641 323.781 75.4516 324.502 74.9085 325.03C74.3655 325.558 73.6359 325.85 72.8784 325.843C72.5036 325.85 72.1313 325.782 71.783 325.644C71.4347 325.505 71.1175 325.299 70.85 325.036C70.5825 324.774 70.37 324.46 70.2249 324.115C70.0799 323.769 70.0053 323.398 70.0053 323.023C70.0053 322.259 70.3071 321.525 70.8452 320.982C71.3833 320.439 72.114 320.131 72.8784 320.123Z" fill="#466C80"/>
<path d="M92.0324 287.788C92.5874 287.756 93.1429 287.838 93.6651 288.029C94.1873 288.219 94.6652 288.514 95.0693 288.896C95.4734 289.278 95.7953 289.738 96.0154 290.248C96.2354 290.759 96.3489 291.309 96.3489 291.865C96.3489 292.421 96.2354 292.971 96.0154 293.481C95.7953 293.992 95.4734 294.452 95.0693 294.833C94.6652 295.215 94.1873 295.51 93.6651 295.701C93.1429 295.891 92.5874 295.973 92.0324 295.942C90.9914 295.882 90.0126 295.427 89.2966 294.669C88.5807 293.911 88.1818 292.907 88.1818 291.865C88.1818 290.822 88.5807 289.819 89.2966 289.061C90.0126 288.303 90.9914 287.847 92.0324 287.788Z" fill="#466C80"/>
<path d="M74.448 175.231C75.5063 175.231 76.5213 175.652 77.2697 176.4C78.018 177.149 78.4384 178.164 78.4384 179.222C78.4384 180.296 78.0117 181.326 77.2521 182.086C76.4926 182.845 75.4624 183.272 74.3882 183.272C73.314 183.272 72.2838 182.845 71.5242 182.086C70.7646 181.326 70.3379 180.296 70.3379 179.222C70.3377 178.688 70.4447 178.159 70.6527 177.667C70.8607 177.175 71.1653 176.729 71.5486 176.357C71.9319 175.985 72.3861 175.694 72.8841 175.5C73.3822 175.307 73.914 175.215 74.448 175.231Z" fill="#466C80"/>
<path d="M74.6341 94.7714C75.4375 94.7794 76.2205 95.0257 76.8837 95.4793C77.547 95.9329 78.0606 96.5732 78.3594 97.319C78.6583 98.0649 78.729 98.8826 78.5626 99.6687C78.3961 100.455 77.9999 101.174 77.4243 101.734C76.8488 102.295 76.1197 102.672 75.3295 102.818C74.5394 102.963 73.7237 102.871 72.986 102.553C72.2483 102.234 71.6218 101.704 71.1858 101.029C70.7499 100.354 70.5241 99.5652 70.5372 98.7618C70.5548 97.6904 70.9954 96.6695 71.763 95.9219C72.5305 95.1743 73.5627 94.7607 74.6341 94.7714Z" fill="#466C80"/>
<path d="M128.664 330.658C129.476 330.642 130.274 330.87 130.955 331.311C131.637 331.752 132.171 332.387 132.489 333.134C132.806 333.88 132.894 334.705 132.739 335.502C132.585 336.299 132.195 337.032 131.621 337.606C131.047 338.18 130.315 338.569 129.518 338.724C128.721 338.878 127.896 338.791 127.149 338.473C126.402 338.155 125.768 337.621 125.327 336.939C124.886 336.258 124.658 335.46 124.674 334.649C124.701 333.599 125.13 332.599 125.873 331.857C126.615 331.114 127.615 330.685 128.664 330.658Z" fill="#466C80"/>
<path d="M6.77042 27.2003C5.43194 27.1951 4.12504 26.7932 3.01487 26.0455C1.90471 25.2978 1.04108 24.2378 0.53312 22.9994C0.025156 21.761 -0.104347 20.3999 0.160967 19.088C0.426281 17.776 1.07452 16.5722 2.02376 15.6285C2.973 14.6848 4.18063 14.0437 5.49411 13.7861C6.80758 13.5285 8.16799 13.6661 9.40334 14.1813C10.6387 14.6966 11.6935 15.5664 12.4347 16.6809C13.1759 17.7955 13.5701 19.1047 13.5675 20.4432C13.5604 22.24 12.8407 23.9607 11.5664 25.2275C10.2921 26.4944 8.56727 27.2039 6.77042 27.2003ZM6.77042 26.0298C7.88173 26.0324 8.96882 25.7051 9.89394 25.0894C10.8191 24.4736 11.5406 23.597 11.9671 22.5708C12.3936 21.5446 12.5059 20.4149 12.2897 19.3248C12.0736 18.2347 11.5387 17.2333 10.7529 16.4475C9.96706 15.6617 8.9656 15.1268 7.87551 14.9107C6.78542 14.6945 5.6557 14.8067 4.62948 15.2332C3.60327 15.6597 2.72681 16.3813 2.11104 17.3064C1.49526 18.2315 1.16796 19.3186 1.17059 20.4299C1.17059 21.9151 1.76051 23.3394 2.81069 24.3896C3.86087 25.4398 5.28524 26.0298 6.77042 26.0298Z" fill="#466C80"/>
<path d="M6.77039 63.9521C5.43077 63.9521 4.12129 63.5547 3.00762 62.8101C1.89394 62.0656 1.02614 61.0074 0.514094 59.7695C0.00205135 58.5316 -0.131255 57.1696 0.131063 55.8559C0.39338 54.5422 1.03958 53.3358 1.98777 52.3895C2.93596 51.4432 4.14358 50.7994 5.45779 50.5397C6.77199 50.28 8.1337 50.416 9.37059 50.9305C10.6075 51.4449 11.6639 52.3148 12.4063 53.4299C13.1486 54.545 13.5435 55.8553 13.5408 57.195C13.5338 58.9872 12.8178 60.7038 11.5493 61.9699C10.2807 63.2359 8.56264 63.9486 6.77039 63.9521ZM6.77039 62.7949C7.88393 62.8028 8.97472 62.4792 9.9039 61.8655C10.8331 61.2517 11.5586 60.3755 11.9884 59.3482C12.4182 58.3209 12.5328 57.189 12.3175 56.0964C12.1021 55.0039 11.5667 54.0001 10.7793 53.2127C9.99191 52.4252 8.98809 51.8898 7.89554 51.6745C6.80298 51.4592 5.67103 51.5738 4.64374 52.0036C3.61646 52.4334 2.74025 53.1589 2.12651 54.0881C1.51278 55.0173 1.18922 56.108 1.19711 57.2216C1.19536 57.9529 1.33788 58.6772 1.61651 59.3533C1.89514 60.0295 2.30443 60.644 2.82089 61.1617C3.33736 61.6794 3.95085 62.0901 4.62629 62.3704C5.30173 62.6506 6.02581 62.7949 6.75708 62.7949H6.77039Z" fill="#466C80"/>
<path d="M15.1238 114.098C13.7847 114.098 12.4757 113.701 11.3623 112.957C10.2489 112.213 9.38113 111.156 8.86869 109.919C8.35626 108.682 8.22223 107.32 8.48347 106.007C8.74471 104.694 9.3895 103.487 10.3364 102.54C11.2832 101.594 12.4896 100.949 13.8029 100.688C15.1162 100.426 16.4776 100.56 17.7147 101.073C18.9518 101.585 20.0092 102.453 20.7532 103.566C21.4971 104.68 21.8941 105.989 21.8941 107.328C21.8906 109.122 21.1762 110.842 19.9073 112.111C18.6384 113.38 16.9183 114.095 15.1238 114.098ZM15.1238 112.941C16.6125 112.941 18.0402 112.35 19.0929 111.297C20.1456 110.244 20.7369 108.817 20.7369 107.328C20.7369 105.839 20.1456 104.411 19.0929 103.359C18.0402 102.306 16.6125 101.715 15.1238 101.715C13.6351 101.715 12.2073 102.306 11.1546 103.359C10.1019 104.411 9.51054 105.839 9.51054 107.328C9.51054 108.817 10.1019 110.244 11.1546 111.297C12.2073 112.35 13.6351 112.941 15.1238 112.941Z" fill="#466C80"/>
<path d="M34.5172 156.876C33.1781 156.873 31.8699 156.473 30.758 155.727C29.646 154.981 28.7803 153.922 28.2703 152.684C27.7603 151.446 27.629 150.084 27.8928 148.771C28.1566 147.458 28.8038 146.253 29.7525 145.308C30.7012 144.363 31.9088 143.721 33.2227 143.462C34.5365 143.204 35.8976 143.34 37.1337 143.855C38.3698 144.37 39.4254 145.24 40.1672 146.355C40.9089 147.47 41.3035 148.779 41.3008 150.118C41.2938 151.913 40.576 153.632 39.3046 154.898C38.0332 156.164 36.3117 156.876 34.5172 156.876ZM34.5172 155.718C35.6296 155.724 36.7185 155.398 37.6456 154.783C38.5728 154.169 39.2963 153.292 39.7245 152.266C40.1526 151.239 40.266 150.108 40.0503 149.017C39.8345 147.925 39.2994 146.923 38.5128 146.136C37.7262 145.349 36.7236 144.814 35.6322 144.599C34.5409 144.383 33.4101 144.496 32.3834 144.924C31.3566 145.353 30.4802 146.076 29.8654 147.003C29.2507 147.93 28.9253 149.019 28.9306 150.132C28.9306 151.611 29.5173 153.03 30.5621 154.077C31.607 155.125 33.0245 155.715 34.5039 155.718H34.5172Z" fill="#466C80"/>
<path d="M37.5365 73.6488C36.198 73.6461 34.8904 73.2468 33.7787 72.5013C32.6671 71.7558 31.8014 70.6975 31.291 69.4601C30.7806 68.2227 30.6484 66.8619 30.9112 65.5494C31.1739 64.237 31.8198 63.0318 32.7671 62.0863C33.7145 61.1408 34.921 60.4973 36.2339 60.2371C37.5469 59.977 38.9075 60.1118 40.1439 60.6246C41.3802 61.1375 42.4368 62.0052 43.1801 63.1183C43.9235 64.2314 44.3203 65.5399 44.3203 66.8784C44.3168 68.6753 43.6005 70.3972 42.3287 71.6666C41.0569 72.9359 39.3334 73.6488 37.5365 73.6488ZM37.5365 72.5049C38.6467 72.5022 39.7312 72.1704 40.6528 71.5514C41.5745 70.9325 42.2918 70.0541 42.7142 69.0275C43.1366 68.0008 43.2451 66.8719 43.026 65.7835C42.8068 64.6952 42.2698 63.6963 41.483 62.9132C40.6961 62.13 39.6946 61.5978 38.6053 61.3838C37.5159 61.1698 36.3876 61.2836 35.3629 61.7109C34.3382 62.1382 33.4633 62.8597 32.8487 63.7842C32.2341 64.7087 31.9074 65.7948 31.9101 66.905C31.9274 68.3871 32.5247 69.8034 33.574 70.8502C34.6234 71.8971 36.0411 72.4911 37.5232 72.5049H37.5365Z" fill="#466C80"/>
<path d="M41.8595 268.514C40.5198 268.514 39.2104 268.117 38.0967 267.372C36.983 266.628 36.1152 265.569 35.6032 264.332C35.0911 263.094 34.9578 261.732 35.2201 260.418C35.4825 259.104 36.1287 257.898 37.0768 256.952C38.025 256.005 39.2326 255.361 40.5468 255.102C41.861 254.842 43.2228 254.978 44.4597 255.493C45.6966 256.007 46.753 256.877 47.4954 257.992C48.2377 259.107 48.6325 260.417 48.6299 261.757C48.6229 263.549 47.9069 265.266 46.6384 266.532C45.3698 267.798 43.6517 268.511 41.8595 268.514ZM41.8595 267.344C43.3447 267.344 44.769 266.754 45.8192 265.703C46.8694 264.653 47.4594 263.229 47.4594 261.744C47.4594 260.259 46.8694 258.834 45.8192 257.784C44.769 256.734 43.3447 256.144 41.8595 256.144C40.3743 256.144 38.9499 256.734 37.8997 257.784C36.8496 258.834 36.2596 260.259 36.2596 261.744C36.2596 263.229 36.8496 264.653 37.8997 265.703C38.9499 266.754 40.3743 267.344 41.8595 267.344Z" fill="#466C80"/>
<path d="M168.914 88.3868C167.571 88.392 166.255 87.9979 165.136 87.2545C164.016 86.5112 163.142 85.452 162.626 84.2113C162.109 82.9707 161.972 81.6046 162.233 80.2862C162.494 78.9678 163.141 77.7566 164.091 76.8063C165.041 75.8559 166.253 75.2093 167.571 74.9484C168.889 74.6875 170.256 74.8241 171.496 75.3409C172.737 75.8576 173.796 76.7312 174.539 77.8509C175.283 78.9705 175.677 80.2857 175.672 81.6296C175.661 83.4185 174.946 85.1312 173.681 86.3961C172.416 87.661 170.703 88.3763 168.914 88.3868ZM168.914 87.2162C170.028 87.2241 171.12 86.9012 172.05 86.2884C172.98 85.6755 173.707 84.8003 174.14 83.7737C174.572 82.7471 174.69 81.6153 174.479 80.5216C174.267 79.4279 173.736 78.4217 172.952 77.6303C172.168 76.8389 171.167 76.2979 170.075 76.0761C168.983 75.8542 167.85 75.9614 166.82 76.384C165.789 76.8066 164.907 77.5257 164.285 78.4501C163.664 79.3745 163.331 80.4625 163.328 81.5765C163.324 83.0618 163.908 84.4883 164.952 85.5449C165.996 86.6014 167.416 87.2022 168.901 87.2162H168.914Z" fill="#466C80"/>
<path d="M204.682 136.378C203.344 136.381 202.035 135.986 200.921 135.244C199.808 134.502 198.94 133.446 198.427 132.21C197.914 130.974 197.78 129.613 198.042 128.301C198.303 126.989 198.948 125.784 199.895 124.838C200.842 123.893 202.049 123.25 203.362 122.992C204.675 122.733 206.035 122.869 207.27 123.385C208.505 123.9 209.559 124.77 210.299 125.885C211.039 127 211.431 128.309 211.426 129.648C211.408 131.43 210.692 133.133 209.43 134.392C208.169 135.651 206.464 136.364 204.682 136.378ZM204.682 135.234C205.793 135.234 206.878 134.905 207.802 134.287C208.725 133.67 209.445 132.792 209.869 131.766C210.293 130.74 210.404 129.61 210.186 128.521C209.968 127.432 209.433 126.432 208.646 125.647C207.86 124.863 206.858 124.329 205.769 124.114C204.679 123.899 203.55 124.012 202.525 124.439C201.499 124.866 200.623 125.587 200.008 126.512C199.393 127.437 199.066 128.524 199.069 129.634C199.069 130.371 199.214 131.1 199.496 131.78C199.778 132.461 200.192 133.079 200.714 133.599C201.235 134.119 201.854 134.531 202.535 134.812C203.216 135.092 203.945 135.236 204.682 135.234Z" fill="#466C80"/>
<path d="M151.849 267.743C150.515 267.737 149.212 267.337 148.105 266.593C146.998 265.848 146.136 264.793 145.628 263.559C145.119 262.326 144.988 260.969 145.249 259.661C145.511 258.353 146.154 257.151 147.097 256.208C148.041 255.264 149.242 254.621 150.551 254.36C151.859 254.098 153.215 254.23 154.449 254.738C155.683 255.246 156.738 256.108 157.483 257.215C158.227 258.322 158.627 259.625 158.633 260.959C158.633 262.758 157.918 264.484 156.646 265.756C155.373 267.028 153.648 267.743 151.849 267.743ZM151.849 266.572C152.588 266.583 153.323 266.445 154.008 266.168C154.694 265.891 155.317 265.479 155.842 264.957C156.366 264.436 156.78 263.814 157.061 263.13C157.342 262.445 157.482 261.712 157.475 260.972C157.478 259.862 157.151 258.776 156.537 257.852C155.922 256.927 155.047 256.205 154.022 255.778C152.998 255.351 151.869 255.237 150.78 255.451C149.691 255.665 148.689 256.197 147.902 256.98C147.116 257.764 146.579 258.763 146.359 259.851C146.14 260.939 146.249 262.068 146.671 263.095C147.094 264.121 147.811 265 148.733 265.619C149.654 266.238 150.739 266.569 151.849 266.572Z" fill="#466C80"/>
<path d="M181.271 366C179.932 366 178.622 365.603 177.509 364.858C176.395 364.114 175.527 363.055 175.015 361.817C174.503 360.58 174.37 359.218 174.632 357.904C174.894 356.59 175.54 355.384 176.489 354.438C177.437 353.491 178.644 352.847 179.959 352.588C181.273 352.328 182.635 352.464 183.872 352.978C185.108 353.493 186.165 354.363 186.907 355.478C187.65 356.593 188.044 357.903 188.042 359.243C188.035 361.035 187.319 362.752 186.05 364.018C184.782 365.284 183.064 365.996 181.271 366ZM181.271 364.83C182.381 364.827 183.464 364.495 184.384 363.875C185.305 363.256 186.02 362.378 186.44 361.351C186.86 360.324 186.966 359.196 186.744 358.109C186.522 357.022 185.983 356.026 185.194 355.246C184.405 354.467 183.402 353.939 182.313 353.73C181.223 353.521 180.096 353.64 179.075 354.073C178.053 354.505 177.183 355.231 176.575 356.159C175.967 357.086 175.648 358.174 175.658 359.283C175.672 360.763 176.272 362.178 177.326 363.218C178.381 364.257 179.804 364.837 181.285 364.83H181.271Z" fill="#466C80"/>
<path d="M182.282 286.498C180.483 286.48 178.763 285.754 177.495 284.477C176.228 283.199 175.515 281.474 175.512 279.674C175.471 278.761 175.616 277.848 175.938 276.992C176.26 276.136 176.751 275.355 177.383 274.694C178.015 274.033 178.775 273.507 179.616 273.148C180.456 272.789 181.361 272.604 182.276 272.604C183.19 272.604 184.095 272.789 184.936 273.148C185.777 273.507 186.536 274.033 187.168 274.694C187.8 275.355 188.292 276.136 188.613 276.992C188.935 277.848 189.08 278.761 189.039 279.674C189.04 281.472 188.33 283.198 187.064 284.476C185.799 285.753 184.081 286.48 182.282 286.498ZM182.282 285.287C183.39 285.287 184.473 284.959 185.393 284.343C186.314 283.728 187.032 282.854 187.456 281.83C187.88 280.807 187.991 279.681 187.775 278.595C187.559 277.509 187.025 276.511 186.242 275.728C185.459 274.944 184.461 274.411 183.375 274.195C182.289 273.979 181.163 274.09 180.139 274.514C179.116 274.938 178.242 275.655 177.626 276.576C177.011 277.497 176.682 278.58 176.682 279.687C176.682 281.173 177.272 282.597 178.323 283.647C179.373 284.697 180.797 285.287 182.282 285.287Z" fill="#466C80"/>
<path d="M146.502 339.264C145.36 339.262 144.245 338.92 143.297 338.284C142.349 337.647 141.611 336.744 141.176 335.688C140.742 334.632 140.63 333.471 140.856 332.352C141.081 331.233 141.633 330.206 142.442 329.4C143.252 328.595 144.281 328.047 145.402 327.827C146.522 327.607 147.683 327.724 148.736 328.163C149.79 328.603 150.69 329.344 151.322 330.295C151.954 331.246 152.29 332.363 152.288 333.505C152.281 335.035 151.668 336.5 150.584 337.579C149.499 338.658 148.032 339.264 146.502 339.264ZM146.502 338.267C147.447 338.269 148.371 337.991 149.158 337.468C149.945 336.945 150.559 336.2 150.923 335.328C151.286 334.456 151.383 333.495 151.2 332.568C151.017 331.641 150.563 330.789 149.896 330.12C149.229 329.45 148.378 328.994 147.451 328.809C146.525 328.624 145.564 328.717 144.691 329.078C143.817 329.44 143.071 330.052 142.545 330.837C142.02 331.623 141.74 332.546 141.74 333.491C141.74 334.756 142.241 335.968 143.134 336.863C144.026 337.758 145.237 338.263 146.502 338.267Z" fill="#466C80"/>
<path d="M72.639 328.942C71.4958 328.942 70.3782 328.604 69.4273 327.969C68.4763 327.334 67.7347 326.432 67.296 325.377C66.8573 324.321 66.7411 323.159 66.9622 322.037C67.1833 320.916 67.7318 319.885 68.5384 319.074C69.3449 318.264 70.3733 317.711 71.494 317.485C72.6146 317.258 73.7772 317.369 74.8349 317.803C75.8926 318.237 76.7981 318.974 77.4371 319.922C78.076 320.87 78.4198 321.986 78.4251 323.13C78.4147 324.663 77.8026 326.132 76.7205 327.219C75.6384 328.306 74.1728 328.925 72.639 328.942ZM72.639 327.931C73.9049 327.914 75.1144 327.405 76.0108 326.511C76.9073 325.617 77.4202 324.409 77.4408 323.143C77.4382 322.2 77.1565 321.279 76.6314 320.496C76.1063 319.713 75.3611 319.104 74.4899 318.743C73.6186 318.383 72.6604 318.289 71.7357 318.473C70.811 318.656 69.9613 319.109 69.2938 319.775C68.6262 320.441 68.1707 321.289 67.9845 322.213C67.7983 323.137 67.8899 324.096 68.2476 324.968C68.6054 325.841 69.2133 326.587 69.9947 327.115C70.7762 327.642 71.6963 327.926 72.639 327.931Z" fill="#466C80"/>
<path d="M72.2798 267.064C71.1418 267.062 70.0301 266.722 69.085 266.088C68.1399 265.454 67.4037 264.555 66.9694 263.503C66.5352 262.451 66.4223 261.294 66.6449 260.178C66.8676 259.062 67.4158 258.037 68.2205 257.232C69.0252 256.428 70.0502 255.879 71.1662 255.657C72.2822 255.434 73.4391 255.547 74.491 255.981C75.5429 256.415 76.4426 257.152 77.0764 258.097C77.7103 259.042 78.05 260.154 78.0526 261.291C78.0456 262.82 77.4351 264.285 76.354 265.366C75.2729 266.447 73.8086 267.057 72.2798 267.064ZM72.2798 266.053C73.2221 266.056 74.1442 265.779 74.929 265.257C75.7138 264.736 76.3262 263.993 76.6887 263.123C77.0511 262.253 77.1474 261.295 76.9651 260.371C76.7829 259.446 76.3304 258.596 75.6649 257.929C74.9995 257.262 74.1511 256.807 73.227 256.622C72.3029 256.437 71.3448 256.531 70.4739 256.891C69.603 257.251 68.8585 257.861 68.3346 258.645C67.8108 259.428 67.5312 260.349 67.5312 261.291C67.5294 261.915 67.6512 262.533 67.8893 263.109C68.1275 263.685 68.4775 264.208 68.9189 264.649C69.3604 265.089 69.8847 265.437 70.4615 265.674C71.0384 265.91 71.6563 266.03 72.2798 266.027V266.053Z" fill="#466C80"/>
<path d="M74.9666 107.315C73.1629 107.317 71.3989 106.784 69.8982 105.784C68.3976 104.783 67.2276 103.359 66.5368 101.693C65.8459 100.027 65.6651 98.1929 66.0173 96.4239C66.3696 94.6548 67.2389 93.0302 68.5153 91.7557C69.7917 90.4811 71.4177 89.6141 73.1872 89.2645C74.9568 88.9149 76.7904 89.0983 78.4556 89.7916C80.1208 90.4849 81.5427 91.6569 82.5412 93.159C83.5398 94.6612 84.0701 96.4259 84.0648 98.2297C84.0508 100.637 83.0874 102.942 81.3838 104.643C79.6802 106.344 77.3741 107.304 74.9666 107.315ZM74.9666 105.732C76.9138 105.65 78.754 104.819 80.1029 103.412C81.4518 102.006 82.2049 100.132 82.2049 98.1832C82.2049 96.2343 81.4518 94.3608 80.1029 92.9541C78.754 91.5474 76.9138 90.7164 74.9666 90.6347C72.9615 90.6417 71.0405 91.4413 69.6226 92.8591C68.2048 94.277 67.4052 96.198 67.3981 98.2031C67.3946 99.195 67.5878 100.178 67.9665 101.095C68.3453 102.011 68.9021 102.844 69.6048 103.544C70.3074 104.244 71.1419 104.798 72.06 105.173C72.978 105.549 73.9614 105.739 74.9533 105.732H74.9666Z" fill="#466C80"/>
<path d="M74.98 188.214C73.1768 188.216 71.4133 187.684 69.9129 186.684C68.4125 185.683 67.2426 184.261 66.5514 182.595C65.8601 180.93 65.6785 179.097 66.0297 177.328C66.3808 175.559 67.2489 173.935 68.5239 172.659C69.799 171.384 71.4237 170.516 73.1924 170.165C74.9611 169.814 76.7942 169.996 78.4596 170.687C80.1251 171.378 81.5479 172.548 82.5481 174.048C83.5483 175.549 84.0808 177.312 84.0781 179.115C84.0711 181.526 83.1103 183.836 81.4056 185.541C79.7009 187.246 77.3908 188.207 74.98 188.214ZM74.98 186.631C76.4743 186.631 77.935 186.188 79.1775 185.357C80.4199 184.527 81.3883 183.347 81.9601 181.967C82.5319 180.586 82.6816 179.067 82.39 177.602C82.0985 176.136 81.379 174.79 80.3223 173.733C79.2657 172.677 77.9195 171.957 76.4539 171.666C74.9884 171.374 73.4693 171.524 72.0888 172.096C70.7082 172.667 69.5282 173.636 68.6981 174.878C67.8679 176.121 67.4248 177.581 67.4248 179.076C67.4284 181.078 68.2255 182.998 69.6416 184.414C71.0577 185.83 72.9773 186.627 74.98 186.631Z" fill="#466C80"/>
<path d="M92.0191 301.169C90.2164 301.172 88.4535 300.64 86.9534 299.64C85.4532 298.64 84.2834 297.218 83.5917 295.554C82.9001 293.889 82.7177 292.056 83.0678 290.288C83.4178 288.52 84.2846 286.895 85.5583 285.62C86.832 284.344 88.4555 283.475 90.2233 283.122C91.9912 282.77 93.8238 282.949 95.4895 283.638C97.1552 284.328 98.579 285.496 99.5808 286.994C100.583 288.493 101.117 290.255 101.117 292.058C101.1 294.466 100.136 296.772 98.434 298.477C96.7319 300.181 94.4279 301.148 92.0191 301.169ZM92.0191 299.613C93.9697 299.531 95.8133 298.699 97.1646 297.289C98.5159 295.88 99.2704 294.003 99.2704 292.051C99.2704 290.099 98.5159 288.222 97.1646 286.813C95.8133 285.403 93.9697 284.571 92.0191 284.489C90.9994 284.446 89.9815 284.61 89.0268 284.971C88.072 285.332 87.2001 285.882 86.4635 286.588C85.7268 287.295 85.1407 288.143 84.7403 289.082C84.3398 290.02 84.1334 291.03 84.1334 292.051C84.1334 293.072 84.3398 294.082 84.7403 295.02C85.1407 295.959 85.7268 296.807 86.4635 297.514C87.2001 298.22 88.072 298.77 89.0268 299.131C89.9815 299.492 90.9994 299.656 92.0191 299.613Z" fill="#466C80"/>
<path d="M129.117 343.627C127.311 343.63 125.546 343.097 124.044 342.096C122.541 341.095 121.37 339.671 120.677 338.003C119.984 336.336 119.802 334.501 120.152 332.73C120.503 330.959 121.371 329.332 122.646 328.055C123.922 326.777 125.548 325.907 127.318 325.554C129.089 325.201 130.924 325.381 132.592 326.071C134.26 326.761 135.686 327.931 136.689 329.431C137.693 330.932 138.228 332.697 138.228 334.502C138.218 336.917 137.255 339.23 135.549 340.938C133.843 342.647 131.531 343.613 129.117 343.627ZM129.117 342.057C130.616 342.065 132.085 341.628 133.335 340.8C134.585 339.972 135.562 338.791 136.14 337.407C136.718 336.023 136.872 334.499 136.582 333.027C136.293 331.556 135.572 330.204 134.513 329.142C133.453 328.081 132.102 327.358 130.631 327.066C129.16 326.773 127.636 326.925 126.251 327.501C124.866 328.076 123.684 329.05 122.853 330.299C122.023 331.548 121.583 333.016 121.588 334.516C121.588 336.514 122.381 338.43 123.792 339.844C125.204 341.258 127.119 342.054 129.117 342.057Z" fill="#466C80"/>
</svg>
