<svg width="427" height="131" viewBox="0 0 427 131" fill="none" xmlns="http://www.w3.org/2000/svg">
<path d="M4.01001 15.19C4.01001 15.19 61.63 34.49 150.53 31.36C239.43 28.23 312.19 -5.01003 422.73 6.35997V107.36C422.73 107.36 399.73 95.25 330 104.06C260.27 112.87 99.43 144.26 4 112.3L4.01001 15.19Z" fill="#FDE7B6"/>
<path d="M4.01001 15.19C4.01001 15.19 61.63 34.49 150.53 31.36C239.43 28.23 312.19 -5.01003 422.73 6.35997V107.36C422.73 107.36 399.73 95.25 330 104.06C260.27 112.87 99.43 144.26 4 112.3L4.01001 15.19Z" stroke="#E56848" stroke-width="8" stroke-miterlimit="10"/>
<path d="M107.022 57.0144L138.219 57.4174L138.666 69.3041L137.586 69.2902C135.958 65.2288 134.234 62.4463 132.413 60.9427C130.593 59.3991 127.903 58.6043 124.343 58.5583L122.244 58.5312L122.004 77.0696L124.044 77.096C125.924 77.1202 127.513 76.4407 128.811 75.0573C130.109 73.634 131.034 71.7258 131.585 69.3327L132.485 69.3443L132.255 87.1028L131.235 87.0897C130.554 84.0806 129.602 81.9281 128.379 80.6322C127.195 79.3368 125.544 78.6755 123.424 78.6481L121.984 78.6295L121.735 97.8879L124.015 97.9173C127.695 97.9648 130.829 96.9052 133.417 94.7385C136.045 92.5722 137.861 89.7755 138.866 86.3482L140.066 86.3636L139.417 99.4364L106.479 99.0109L106.497 97.691L110.036 97.7368L110.545 58.38L107.005 58.3343L107.022 57.0144Z" fill="#C8684E"/>
<path d="M167.428 87.7342L176.353 57.2491L171.679 57.4834L171.622 56.3448L180.79 55.8852L180.848 57.0238L178.031 57.165L165.665 99.297L160.631 99.5493L143.275 58.9074L140.518 59.0456L140.461 57.907L160.056 56.9246L160.114 58.0632L155.859 58.2765L167.428 87.7342Z" fill="#C8684E"/>
<path d="M176.192 56.0596L207.24 54.6813L208.362 66.4768L207.287 66.5245C205.437 62.5784 203.563 59.9097 201.667 58.5182C199.769 57.0869 197.049 56.4499 193.506 56.6071L191.416 56.6999L192.235 75.1493L194.265 75.0592C196.136 74.9761 197.677 74.2097 198.889 72.76C200.099 71.2705 200.91 69.3202 201.322 66.9089L202.217 66.8692L203.002 84.5424L201.987 84.5874C201.138 81.6339 200.068 79.5476 198.778 78.3287C197.527 77.1079 195.847 76.5444 193.737 76.638L192.304 76.7017L193.155 95.8675L195.424 95.7668C199.086 95.6042 202.142 94.3718 204.592 92.0695C207.082 89.7654 208.729 86.8805 209.532 83.4149L210.727 83.3619L210.827 96.3992L178.048 97.8543L177.989 96.5407L181.512 96.3844L179.773 57.2167L176.251 57.3731L176.192 56.0596Z" fill="#C8684E"/>
<path d="M238.404 51.7103L244.38 92.1309L236.07 93.3595L210.034 57.9669L215.545 95.2417L218.809 94.759L218.976 95.8868L210.844 97.089L210.678 95.9613L213.942 95.4786L208.133 56.1857L204.868 56.6684L204.701 55.5406L221.083 53.1186L241.04 80.6156L236.801 51.9472L233.537 52.4299L233.37 51.3021L241.501 50.0999L241.668 51.2277L238.404 51.7103Z" fill="#C8684E"/>
<path d="M276.218 43.3414L279.517 57.9922L278.399 58.1974C275.717 53.3006 273.537 50.0338 271.858 48.397C270.173 46.721 268.075 46.1134 265.567 46.5742L264.861 46.7038L271.967 85.3942L276.965 84.4762L277.192 85.711L255.73 89.653L255.503 88.4182L260.501 87.5002L253.395 48.8098L252.631 48.9502C250.122 49.411 248.365 50.767 247.36 53.0182C246.348 55.2302 245.483 59.0158 244.766 64.375L243.649 64.5802L241.526 49.7134L276.218 43.3414Z" fill="#C8684E"/>
<path d="M301.182 79.2411C303.152 78.8945 304.792 78.0577 306.101 76.7306C307.451 75.3966 307.938 73.6659 307.564 71.5386C307.182 69.3719 306.064 67.8629 304.208 67.0116C302.392 66.1534 299.895 65.5775 296.716 65.284C293.569 64.9442 291.251 64.5804 289.761 64.1927C288.311 63.7981 286.885 63.1961 285.484 62.3867C282.681 60.768 280.901 57.8116 280.146 53.5176C279.529 50.0115 280.239 46.7794 282.278 43.8214C284.355 40.8565 287.561 38.9927 291.894 38.2302C293.982 37.8628 296.204 37.7967 298.561 38.0319C300.949 38.2207 302.42 38.2666 302.971 38.1696C303.523 38.0725 303.946 37.5919 304.241 36.7278L304.891 36.6134L307.405 48.4772L306.459 48.6436C303.965 45.549 301.494 43.1611 299.046 41.48C296.63 39.7526 294.2 39.1037 291.758 39.5335C289.355 39.9564 287.584 40.8569 286.446 42.235C285.3 43.5738 284.894 45.1886 285.227 47.0796C285.553 48.9311 286.594 50.2304 288.35 50.9774C290.138 51.678 292.25 52.139 294.685 52.3603C297.12 52.5816 298.713 52.7481 299.464 52.8597C300.254 52.9643 301.219 53.1398 302.359 53.3859C303.531 53.5858 304.494 53.8631 305.247 54.218C306.032 54.5266 306.862 54.9696 307.735 55.547C308.641 56.078 309.383 56.7191 309.962 57.4701C311.358 59.1739 312.285 61.3258 312.743 63.9259C313.491 68.1805 312.755 71.8435 310.534 74.915C308.345 77.9401 305.084 79.8339 300.75 80.5964C298.505 80.9916 295.873 81.1502 292.853 81.0722C289.874 80.9874 288.226 80.9727 287.911 81.0281C287.359 81.1252 286.932 81.8097 286.627 83.0816L285.8 83.2272L282.734 69.2673L283.739 69.0905C286.075 72.2128 288.808 74.8186 291.938 76.9079C295.107 78.9902 298.188 79.768 301.182 79.2411Z" fill="#C8684E"/>
</svg>
