<svg width="381" height="118" viewBox="0 0 381 118" fill="none" xmlns="http://www.w3.org/2000/svg">
<path d="M49.3928 0H48.0684H45.6317L47.9097 40.6132H48.0684H49.3928H49.5515L51.8295 0H49.3928Z" fill="#65659B"/>
<path d="M32.6967 2.62891L31.4516 3.08154L29.1613 3.9161L45.1928 41.3002L45.3416 41.2456L46.5866 40.793L46.7354 40.7385L34.9858 1.79559L32.6967 2.62891Z" fill="#65659B"/>
<path d="M17.9053 10.8108L16.8909 11.6615L15.0246 13.2277L42.8739 42.8751L42.9966 42.7722L44.011 41.9215L44.1325 41.8198L19.7728 9.24341L17.9053 10.8108Z" fill="#65659B"/>
<path d="M6.80413 23.5575L6.14193 24.7045L4.92419 26.8139L41.2344 45.1482L41.3138 45.0105L41.976 43.8635L42.0553 43.7258L8.02311 21.4469L6.80413 23.5575Z" fill="#65659B"/>
<path d="M0.732838 39.331L0.503428 40.6355L0.0805664 43.035L40.4706 47.844L40.4991 47.6878L40.7285 46.3832L40.7558 46.227L1.1557 36.9315L0.732838 39.331Z" fill="#65659B"/>
<path d="M0.422859 56.2305L0.652271 57.5351L1.07637 59.9358L40.6765 50.6403L40.6479 50.4828L40.4185 49.1783L40.3913 49.022L0 53.831L0.422859 56.2305Z" fill="#65659B"/>
<path d="M5.91136 72.2173L6.57355 73.3644L7.79253 75.475L41.8248 53.196L41.7454 53.0584L41.0832 51.9113L41.0038 51.7737L4.69238 70.108L5.91136 72.2173Z" fill="#65659B"/>
<path d="M16.5362 85.3633L17.5505 86.2152L19.4181 87.7814L43.7778 55.2063L43.6563 55.1033L42.6419 54.2526L42.5204 54.1497L14.6699 83.7971L16.5362 85.3633Z" fill="#65659B"/>
<path d="M31.0164 94.0822L32.2614 94.5348L34.5518 95.3681L46.3014 56.4265L46.1513 56.3719L44.9075 55.9193L44.7575 55.8647L28.7272 93.2489L31.0164 94.0822Z" fill="#65659B"/>
<path d="M47.6058 97.3225H48.9302H51.367L49.089 56.7093H48.9302H47.6058H47.4471L45.1691 97.3225H47.6058Z" fill="#65659B"/>
<path d="M64.3033 94.6935L65.5471 94.2396L67.8375 93.4063L51.8072 56.0222L51.6572 56.0768L50.4122 56.5294L50.2634 56.584L62.0129 95.5268L64.3033 94.6935Z" fill="#65659B"/>
<path d="M79.0936 86.5116L80.108 85.6609L81.9755 84.0947L54.125 54.4473L54.0034 54.5503L52.9891 55.4009L52.8676 55.5026L77.2273 88.079L79.0936 86.5116Z" fill="#65659B"/>
<path d="M90.1947 73.765L90.8569 72.6192L92.0759 70.5086L55.7644 52.1743L55.685 52.312L55.0228 53.459L54.9435 53.5967L88.9757 75.8756L90.1947 73.765Z" fill="#65659B"/>
<path d="M96.2659 57.9914L96.4966 56.6869L96.9195 54.2873L56.5282 49.4784L56.5009 49.6346L56.2703 50.9392L56.243 51.0954L95.8431 60.3909L96.2659 57.9914Z" fill="#65659B"/>
<path d="M96.5759 41.0919L96.3465 39.7874L95.9236 37.3866L56.3235 46.6821L56.3508 46.8396L56.5814 48.1441L56.6087 48.3004L97 43.4914L96.5759 41.0919Z" fill="#65659B"/>
<path d="M91.0886 25.105L90.4264 23.9579L89.2075 21.8474L55.1752 44.1263L55.2546 44.2639L55.9168 45.411L55.9962 45.5486L92.3064 27.2156L91.0886 25.105Z" fill="#65659B"/>
<path d="M80.4625 11.9591L79.4482 11.1072L77.5819 9.54102L53.2209 42.1162L53.3424 42.2191L54.358 43.0698L54.4795 43.1727L82.3301 13.5253L80.4625 11.9591Z" fill="#65659B"/>
<path d="M65.9823 3.24029L64.7373 2.78767L62.4481 1.95435L50.6985 40.896L50.8474 40.9505L52.0924 41.4032L52.2412 41.4577L68.2727 4.07361L65.9823 3.24029Z" fill="#65659B"/>
<path d="M351.236 49.8174C351.546 49.8541 351.852 49.9098 352.155 49.9842L355.959 26.4981L354.598 26.337L353.623 26.2235L352.262 26.0613L350.446 49.7652C350.71 49.7688 350.974 49.7862 351.236 49.8174Z" fill="#A32C38"/>
<path d="M349.336 49.7448C349.644 49.7011 349.955 49.6757 350.267 49.6688L347.863 26L346.511 26.1952L345.539 26.3313L344.187 26.5265L348.571 49.8957C348.823 49.8325 349.078 49.7821 349.336 49.7448Z" fill="#A32C38"/>
<path d="M347.481 50.1646C347.767 50.0415 348.061 49.9362 348.361 49.8491L339.913 27.6111L338.657 28.1466L337.755 28.5324L336.499 29.0713L346.781 50.5061C347.008 50.3803 347.242 50.2663 347.481 50.1646Z" fill="#A32C38"/>
<path d="M345.798 51.0496C346.043 50.856 346.299 50.6779 346.566 50.5163L332.65 31.2203L331.576 32.0667L330.805 32.6726L329.731 33.519L345.21 51.559C345.397 51.3789 345.593 51.2089 345.798 51.0496Z" fill="#A32C38"/>
<path d="M344.4 52.3397C344.587 52.0897 344.789 51.8514 345.005 51.626L326.571 36.5892L325.753 37.6841L325.163 38.4715L324.344 39.5664L343.966 52.9864C344.098 52.7674 344.244 52.5496 344.4 52.3397Z" fill="#A32C38"/>
<path d="M343.385 53.9473C343.501 53.6577 343.635 53.3755 343.785 53.1021L322.085 43.3502L321.579 44.6187L321.215 45.5264L320.708 46.7948L343.136 54.6848C343.204 54.4375 343.287 54.1913 343.385 53.9473Z" fill="#A32C38"/>
<path d="M342.821 55.7627C342.857 55.4533 342.913 55.1463 342.987 54.8437L319.501 51.0394L319.339 52.4009L319.226 53.3756L319.065 54.7371L342.768 56.5524C342.772 56.2885 342.789 56.0249 342.821 55.7627Z" fill="#A32C38"/>
<path d="M342.746 57.6631C342.701 57.3545 342.676 57.0434 342.669 56.7316L319 59.1358L319.196 60.4883L319.336 61.4595L319.537 62.8119L342.901 58.4278C342.836 58.1758 342.785 57.9205 342.746 57.6631Z" fill="#A32C38"/>
<path d="M343.165 59.5182C343.042 59.2314 342.936 58.9374 342.849 58.6378L320.611 67.086L321.15 68.342L321.537 69.2496L322.076 70.5056L343.509 60.2239C343.382 59.9948 343.267 59.7593 343.165 59.5182Z" fill="#A32C38"/>
<path d="M344.049 61.2019C343.856 60.9569 343.678 60.6999 343.517 60.4326L324.221 74.3496L325.067 75.4229L325.674 76.1933L326.519 77.2677L344.559 61.7885C344.379 61.6019 344.209 61.4061 344.049 61.2019Z" fill="#A32C38"/>
<path d="M345.34 62.5987C345.09 62.4118 344.852 62.2098 344.627 61.994L329.59 80.43L330.685 81.2492L331.47 81.8358L332.565 82.6549L345.988 63.0332C345.764 62.8995 345.548 62.7544 345.34 62.5987Z" fill="#A32C38"/>
<path d="M346.947 63.6141C346.658 63.4976 346.376 63.3638 346.102 63.2136L336.345 84.9138L337.614 85.421L338.522 85.7852L339.792 86.2924L347.677 63.866C347.43 63.7945 347.186 63.7104 346.947 63.6141Z" fill="#A32C38"/>
<path d="M348.764 64.178C348.454 64.1413 348.147 64.0856 347.844 64.0112L344.044 87.4962L345.405 87.6573L346.379 87.7707L347.74 87.933L349.556 64.229C349.291 64.2259 349.027 64.2089 348.764 64.178Z" fill="#A32C38"/>
<path d="M350.663 64.254C350.354 64.2978 350.043 64.3231 349.732 64.33L352.136 87.9988L353.488 87.8036L354.459 87.6641L355.812 87.4689L351.429 64.1031C351.176 64.1664 350.921 64.2168 350.663 64.254Z" fill="#A32C38"/>
<path d="M352.518 63.8342C352.231 63.9573 351.937 64.0626 351.638 64.1496L360.086 86.3877L361.343 85.8488L362.244 85.4619L363.5 84.9241L353.218 63.4916C352.991 63.6178 352.757 63.7321 352.518 63.8342Z" fill="#A32C38"/>
<path d="M354.202 62.9492C353.957 63.1428 353.7 63.3209 353.433 63.4825L367.35 82.7774L368.423 81.9321L369.194 81.3251L370.268 80.4798L354.788 62.4398C354.602 62.6196 354.406 62.7896 354.202 62.9492Z" fill="#A32C38"/>
<path d="M355.599 61.6592C355.412 61.9091 355.21 62.1474 354.994 62.3728L373.43 77.4096L374.249 76.3147L374.836 75.5285L375.655 74.4336L356.033 61.0125C355.899 61.2353 355.754 61.4511 355.599 61.6592Z" fill="#A32C38"/>
<path d="M356.614 60.0514C356.498 60.3408 356.364 60.623 356.215 60.8967L377.914 70.6542L378.422 69.3846L378.785 68.4769L379.294 67.2073L356.865 59.3139C356.794 59.5639 356.71 59.81 356.614 60.0514Z" fill="#A32C38"/>
<path d="M357.178 58.235C357.142 58.5449 357.086 58.8522 357.011 59.1551L380.497 62.9594L380.658 61.5979L380.772 60.6233L380.934 59.2618L357.23 57.4464C357.227 57.71 357.209 57.9732 357.178 58.235Z" fill="#A32C38"/>
<path d="M357.254 56.3357C357.299 56.6443 357.324 56.9554 357.33 57.2672L381 54.863L380.805 53.5105L380.665 52.5393L380.464 51.1869L357.103 55.5698C357.166 55.8224 357.217 56.078 357.254 56.3357Z" fill="#A32C38"/>
<path d="M356.834 54.4806C356.957 54.7673 357.062 55.0614 357.15 55.361L379.388 46.9128L378.849 45.6568L378.463 44.7492L377.924 43.4932L356.491 53.7805C356.618 54.0078 356.732 54.2415 356.834 54.4806Z" fill="#A32C38"/>
<path d="M355.95 52.7968C356.143 53.0423 356.321 53.2992 356.483 53.566L375.779 39.6491L374.932 38.5757L374.326 37.8054L373.48 36.7309L355.44 52.2102C355.617 52.3955 355.787 52.591 355.95 52.7968Z" fill="#A32C38"/>
<path d="M354.659 51.4058C354.909 51.5927 355.148 51.7947 355.373 52.0106L370.41 33.5745L369.315 32.7554L368.53 32.1688L367.435 31.3496L354.013 50.9656C354.235 51.1013 354.451 51.2482 354.659 51.4058Z" fill="#A32C38"/>
<path d="M353.051 50.3848C353.341 50.501 353.623 50.6348 353.897 50.7853L363.654 29.085L362.385 28.5779L361.477 28.2136L360.208 27.7065L352.314 50.1329C352.564 50.2041 352.81 50.2881 353.051 50.3848Z" fill="#A32C38"/>
<g filter="url(#filter0_d_265:1094)">
<path d="M330.381 108L346 52.0186C305.294 38.8836 254.327 31.0565 199 31.0003C143.673 30.9441 92.7056 38.8723 52 52.0186L67.6185 107.977C105.334 97.8563 150.208 91.9185 198.388 91.9185H199.612C247.792 91.941 292.666 97.8451 330.381 108Z" fill="#C8684E"/>
<path d="M330.381 108L346 52.0186C305.294 38.8836 254.327 31.0565 199 31.0003C143.673 30.9441 92.7056 38.8723 52 52.0186L67.6185 107.977C105.334 97.8563 150.208 91.9185 198.388 91.9185H199.612C247.792 91.941 292.666 97.8451 330.381 108Z" stroke="#FFEBB0" stroke-width="3" stroke-miterlimit="10"/>
</g>
<path d="M134.82 52.984C134.82 50.6613 135.825 48.7547 137.836 47.264C139.847 45.7733 142.863 45.028 146.884 45.028C150.905 45.028 153.991 45.7733 156.14 47.264C158.324 48.7547 159.416 50.9907 159.416 53.972C159.416 54.9427 159.329 55.8267 159.156 56.624C158.983 57.3867 158.584 58.2013 157.96 59.068C157.371 59.9 156.781 60.6453 156.192 61.304C155.637 61.9627 154.667 62.8293 153.28 63.904C151.2 65.568 149.016 67.232 146.728 68.896C144.44 70.5253 143.105 71.4787 142.724 71.756L139.552 74.044H152.032C154.424 74.044 156.123 73.524 157.128 72.484C158.133 71.444 158.844 69.8147 159.26 67.596H160.144L159.624 82H135.184V75.968L140.436 71.132C144.007 67.8733 146.537 64.9787 148.028 62.448C149.519 59.8827 150.264 57.0747 150.264 54.024C150.264 50.9387 149.935 48.8413 149.276 47.732C148.617 46.588 147.508 46.016 145.948 46.016C144.388 46.016 143.296 46.4147 142.672 47.212C142.048 48.0093 141.736 48.772 141.736 49.5C141.736 50.228 141.84 50.8693 142.048 51.424H143.608C143.885 52.152 144.024 53.036 144.024 54.076C144.024 55.0813 143.591 55.9653 142.724 56.728C141.857 57.456 140.713 57.82 139.292 57.82C137.871 57.82 136.761 57.3693 135.964 56.468C135.201 55.532 134.82 54.3707 134.82 52.984ZM181.243 82.52C176.217 82.52 172.386 80.8213 169.751 77.424C167.151 74.0267 165.851 69.2773 165.851 63.176C165.851 57.0747 167.255 52.5333 170.063 49.552C172.871 46.536 176.702 45.028 181.555 45.028C186.443 45.028 190.274 46.5187 193.047 49.5C195.855 52.4813 197.259 57.2307 197.259 63.748C197.259 70.2653 195.855 75.032 193.047 78.048C190.239 81.0293 186.305 82.52 181.243 82.52ZM176.511 61.824V66.452C176.511 69.8147 176.529 72.1893 176.563 73.576C176.633 74.9627 176.823 76.4013 177.135 77.892C177.447 79.3827 177.95 80.3533 178.643 80.804C179.337 81.22 180.151 81.428 181.087 81.428C182.023 81.428 182.717 81.376 183.167 81.272C183.653 81.168 184.069 80.96 184.415 80.648C184.797 80.3013 185.109 79.972 185.351 79.66C185.594 79.3133 185.785 78.7933 185.923 78.1C186.097 77.4067 186.235 76.7653 186.339 76.176C186.443 75.5867 186.513 74.72 186.547 73.576C186.617 71.3573 186.651 69.1213 186.651 66.868V62.292C186.651 55.4973 186.391 51.112 185.871 49.136C185.386 47.1253 183.965 46.12 181.607 46.12C179.25 46.12 177.811 47.1427 177.291 49.188C176.771 51.2333 176.511 55.4453 176.511 61.824ZM203.243 52.984C203.243 50.6613 204.248 48.7547 206.259 47.264C208.269 45.7733 211.285 45.028 215.307 45.028C219.328 45.028 222.413 45.7733 224.563 47.264C226.747 48.7547 227.839 50.9907 227.839 53.972C227.839 54.9427 227.752 55.8267 227.579 56.624C227.405 57.3867 227.007 58.2013 226.383 59.068C225.793 59.9 225.204 60.6453 224.615 61.304C224.06 61.9627 223.089 62.8293 221.703 63.904C219.623 65.568 217.439 67.232 215.151 68.896C212.863 70.5253 211.528 71.4787 211.147 71.756L207.975 74.044H220.455C222.847 74.044 224.545 73.524 225.551 72.484C226.556 71.444 227.267 69.8147 227.683 67.596H228.567L228.047 82H203.607V75.968L208.859 71.132C212.429 67.8733 214.96 64.9787 216.451 62.448C217.941 59.8827 218.687 57.0747 218.687 54.024C218.687 50.9387 218.357 48.8413 217.699 47.732C217.04 46.588 215.931 46.016 214.371 46.016C212.811 46.016 211.719 46.4147 211.095 47.212C210.471 48.0093 210.159 48.772 210.159 49.5C210.159 50.228 210.263 50.8693 210.471 51.424H212.031C212.308 52.152 212.447 53.036 212.447 54.076C212.447 55.0813 212.013 55.9653 211.147 56.728C210.28 57.456 209.136 57.82 207.715 57.82C206.293 57.82 205.184 57.3693 204.387 56.468C203.624 55.532 203.243 54.3707 203.243 52.984ZM234.534 52.984C234.534 50.6613 235.539 48.7547 237.55 47.264C239.561 45.7733 242.577 45.028 246.598 45.028C250.619 45.028 253.705 45.7733 255.854 47.264C258.038 48.7547 259.13 50.9907 259.13 53.972C259.13 54.9427 259.043 55.8267 258.87 56.624C258.697 57.3867 258.298 58.2013 257.674 59.068C257.085 59.9 256.495 60.6453 255.906 61.304C255.351 61.9627 254.381 62.8293 252.994 63.904C250.914 65.568 248.73 67.232 246.442 68.896C244.154 70.5253 242.819 71.4787 242.438 71.756L239.266 74.044H251.746C254.138 74.044 255.837 73.524 256.842 72.484C257.847 71.444 258.558 69.8147 258.974 67.596H259.858L259.338 82H234.898V75.968L240.15 71.132C243.721 67.8733 246.251 64.9787 247.742 62.448C249.233 59.8827 249.978 57.0747 249.978 54.024C249.978 50.9387 249.649 48.8413 248.99 47.732C248.331 46.588 247.222 46.016 245.662 46.016C244.102 46.016 243.01 46.4147 242.386 47.212C241.762 48.0093 241.45 48.772 241.45 49.5C241.45 50.228 241.554 50.8693 241.762 51.424H243.322C243.599 52.152 243.738 53.036 243.738 54.076C243.738 55.0813 243.305 55.9653 242.438 56.728C241.571 57.456 240.427 57.82 239.006 57.82C237.585 57.82 236.475 57.3693 235.678 56.468C234.915 55.532 234.534 54.3707 234.534 52.984Z" fill="#FFEBB0"/>
<defs>
<filter id="filter0_d_265:1094" x="46.1678" y="29.5" width="305.664" height="88.3349" filterUnits="userSpaceOnUse" color-interpolation-filters="sRGB">
<feFlood flood-opacity="0" result="BackgroundImageFix"/>
<feColorMatrix in="SourceAlpha" type="matrix" values="0 0 0 0 0 0 0 0 0 0 0 0 0 0 0 0 0 0 127 0" result="hardAlpha"/>
<feOffset dy="4"/>
<feGaussianBlur stdDeviation="2"/>
<feComposite in2="hardAlpha" operator="out"/>
<feColorMatrix type="matrix" values="0 0 0 0 0 0 0 0 0 0 0 0 0 0 0 0 0 0 0.25 0"/>
<feBlend mode="normal" in2="BackgroundImageFix" result="effect1_dropShadow_265:1094"/>
<feBlend mode="normal" in="SourceGraphic" in2="effect1_dropShadow_265:1094" result="shape"/>
</filter>
</defs>
</svg>
