<svg width="311" height="298" viewBox="0 0 311 298" fill="none" xmlns="http://www.w3.org/2000/svg">
<path d="M69.9314 109.078C66.9425 109.84 64.6586 110.347 62.4452 111.024C55.0012 113.28 47.7124 115.958 41.2976 120.456C36.3773 123.896 32.7541 128.28 31.88 134.554C31.4622 138.394 32.1674 142.273 33.9101 145.72C36.3618 151.287 40.1603 156.156 44.9632 159.889C51.237 164.725 52.5059 171.435 52.9993 178.611C53.1121 180.275 52.1393 180.895 50.6449 180.712C49.8716 180.586 49.1269 180.323 48.4455 179.937C36.9695 173.635 25.4511 167.361 15.4554 158.789C10.1069 154.503 5.66833 149.193 2.40032 143.168C-2.22393 133.948 -0.137363 125.855 8.40623 120.004C15.1311 115.408 22.8006 113.139 30.6111 111.362C43.1855 108.687 55.9697 107.116 68.8176 106.668C69.6519 106.696 70.4759 106.477 71.1859 106.038C71.8959 105.599 72.4601 104.959 72.8074 104.2C83.9709 85.3019 101.219 70.7528 121.729 62.9344C149.235 52.3043 176.233 54.6305 202.484 67.6151C202.963 67.8407 203.457 68.038 204.303 68.4046C204.105 67.2062 204.021 66.304 203.795 65.4299C201.945 57.3308 199.04 49.5098 195.153 42.1676C193.761 39.7101 192.117 37.4044 190.247 35.2876C184.607 28.9433 177.558 27.7449 170.1 31.7207C164.645 34.4268 159.99 38.5087 156.594 43.5633C152.689 49.7243 147.289 51.3738 140.691 51.3033C139.521 51.3033 138.337 51.4584 137.166 51.3738C135.009 51.2187 134.22 50.2459 134.544 48.1312C134.661 47.3576 134.919 46.6121 135.305 45.9318C142.242 33.6099 149.404 21.4007 159.399 11.2499C162.701 7.90436 166.41 4.98662 170.439 2.5653C178.277 -2.11535 186.356 -0.254389 191.854 7.03445C197.127 14.0836 199.946 22.2043 202.132 30.5787C205.192 42.7296 206.931 55.1754 207.32 67.6997C207.281 68.5488 207.476 69.3924 207.883 70.1383C208.291 70.8842 208.896 71.5037 209.632 71.9292C233.388 87.9308 248.332 109.826 252.871 138.29C256.375 158.711 253.06 179.717 243.44 198.067C242.819 199.251 242.284 200.464 241.734 201.662C241.734 201.775 241.734 201.958 241.875 202.536C244.06 202.141 246.273 201.859 248.43 201.338C256.088 199.618 263.458 196.803 270.311 192.978C275.64 189.876 280.067 185.759 280.659 179.26C280.852 176.001 280.372 172.738 279.25 169.673C277.073 163.912 273.48 158.791 268.803 154.785C266.608 152.815 264.897 150.366 263.801 147.627C262.706 144.889 262.256 141.935 262.487 138.995C262.487 137.416 262.487 135.823 264.235 134.949C265.009 134.545 265.883 134.376 266.752 134.461C267.621 134.546 268.446 134.882 269.127 135.428C272.454 137.768 275.795 140.123 278.996 142.59C287.765 149.244 296.252 156.223 303.033 164.992C306.459 169.433 309.505 174.072 310.083 179.894C310.362 182.169 310.007 184.476 309.056 186.561C308.106 188.646 306.597 190.428 304.697 191.709C298.975 195.758 292.401 198.444 285.481 199.562C275.274 201.493 264.968 202.945 254.676 204.369C250.16 204.914 245.619 205.22 241.071 205.285C239.055 205.285 238.421 206.695 237.589 208.006C229.408 220.362 218.436 230.62 205.557 237.951C188.72 247.8 169.296 252.322 149.841 250.922C130.921 249.611 113.918 242.787 98.4382 231.959L97.0989 231.015C97.0989 231.015 96.9579 231.015 96.6619 231.015C96.5771 231.661 96.5771 232.315 96.6619 232.96C98.974 241.194 101.441 249.371 106.122 256.646C106.895 257.827 107.742 258.957 108.66 260.029C114.567 267.078 121.898 268.601 130.131 264.499C131.95 263.596 133.515 262.172 135.362 261.369C137.175 260.532 139.133 260.053 141.128 259.959C144.105 260.024 147.074 260.307 150.01 260.805C154.239 261.369 155.297 263.399 153.069 267.093C146.965 277.243 140.028 286.83 130.075 293.499C127.089 295.496 123.733 296.876 120.206 297.559C114.073 298.771 109.449 295.712 105.981 290.82C101.554 284.546 99.411 277.328 97.832 269.955C95.1938 258.012 93.744 245.837 93.5038 233.609C93.5517 231.756 93.1985 229.915 92.4685 228.212C91.7385 226.509 90.6489 224.983 89.2743 223.74C74.7838 209.785 64.9821 191.677 61.2219 171.914C57.4618 152.151 59.9286 131.708 68.2819 113.406C68.7612 112.124 69.1701 110.953 69.9314 109.078ZM65.998 153.46C65.8447 177.54 75.2633 200.694 92.182 217.83C109.101 234.965 132.133 244.678 156.213 244.831C180.293 244.985 203.448 235.566 220.583 218.647C237.719 201.729 247.431 178.696 247.585 154.616C248.008 104.257 207.644 63.6535 158.568 62.9768C107.926 62.2295 65.998 102.494 65.998 153.46Z" fill="#C8684E"/>
<path d="M160.95 283.912C160.006 283.912 159.061 283.912 158.131 283.912C154.846 283.912 153.267 282.502 153.253 279.556C153.239 276.609 154.775 275.538 158.215 275.185C165.913 274.381 173.723 274.071 181.252 272.365C214.538 265.062 240.662 247.214 258.962 218.256C260.136 216.406 261.412 214.622 262.783 212.913C263.047 212.493 263.391 212.131 263.796 211.845C264.201 211.56 264.659 211.357 265.143 211.25C265.626 211.142 266.127 211.132 266.615 211.219C267.102 211.306 267.568 211.489 267.985 211.757C268.88 212.257 269.57 213.058 269.931 214.018C270.292 214.978 270.302 216.035 269.959 217.001C269.319 218.597 268.526 220.127 267.59 221.569C248.459 251.641 221.799 271.52 187.23 280.204C178.771 282.347 169.832 283.137 161.119 284.546L160.95 283.912Z" fill="#C8684E"/>
<path d="M130.216 25.9122C133.036 25.9122 134.445 26.9696 134.868 29.1548C135.362 31.7348 134.516 33.4549 131.922 34.2585C127.001 35.7811 121.912 36.8526 117.062 38.5585C88.2663 48.2808 64.1836 68.483 49.6015 95.1492C48.8402 96.559 48.1917 97.9689 47.4163 99.3082C46.8496 100.357 45.8987 101.146 44.7631 101.508C43.6275 101.871 42.3956 101.78 41.3258 101.254C40.8028 101.02 40.3344 100.68 39.951 100.254C39.5676 99.8282 39.2776 99.327 39.0996 98.7825C38.9216 98.238 38.8597 97.6623 38.9177 97.0923C38.9757 96.5224 39.1525 95.971 39.4366 95.4735C41.7279 90.8423 44.2839 86.3469 47.092 82.0096C66.6887 52.7038 93.6823 34.0893 128.073 26.166C128.453 26.0729 128.839 26.007 129.229 25.9687C129.694 25.9264 130.018 25.9122 130.216 25.9122Z" fill="#C8684E"/>
<path d="M284.029 126.997C284.029 130.762 282.704 132.637 280.194 133.045C278.164 133.412 276.345 132.298 275.528 129.634C274.118 125.009 273.103 120.23 271.608 115.634C265.356 96.3532 254.316 78.9731 239.52 65.1197C232.894 58.753 225.49 53.2487 217.485 48.7374C217.005 48.4695 216.526 48.1876 216.075 47.8774C213.664 46.2984 212.832 43.7466 214.031 41.646C214.67 40.5921 215.702 39.8354 216.9 39.542C218.097 39.2485 219.362 39.4424 220.417 40.081C222.704 41.2903 224.921 42.627 227.057 44.085C254.831 62.4128 273.117 87.5219 282.154 119.483C282.929 122.26 283.549 125.08 284.029 126.997Z" fill="#C8684E"/>
<path d="M29.2717 183.997C29.2717 180.599 30.2586 179.119 32.5143 178.611C33.0411 178.422 33.6025 178.349 34.1603 178.397C34.718 178.444 35.2589 178.611 35.746 178.887C36.2332 179.163 36.6551 179.54 36.983 179.994C37.3109 180.448 37.5371 180.967 37.6461 181.516C39.3661 186.464 40.6632 191.554 42.4114 196.488C47.4738 210.298 55.1304 223.013 64.9687 233.947C70.8738 240.784 77.5975 246.869 84.9884 252.064C86.652 253.234 88.0195 254.503 87.808 256.829C87.5684 259.931 85.4959 261.58 82.5071 260.636C81.1855 260.156 79.9411 259.487 78.8133 258.648C70.9041 253.262 64.2638 246.509 57.8631 239.46C44.0891 224.248 35.5596 206.272 29.7652 186.831C29.5418 185.897 29.377 184.951 29.2717 183.997Z" fill="#C8684E"/>
<path d="M162.261 122.035C162.239 115.185 160.442 108.457 157.045 102.509C155.41 99.4774 153.408 96.6436 151.674 93.6688C150.729 92.0475 149.728 91.8361 148.064 92.7102C139.845 97.1493 132.151 102.498 125.126 108.655C123.984 109.628 122.927 110.686 121.841 111.701C116.47 116.691 114.158 122.683 116.103 129.944C117.513 135.062 118.923 140.151 120.446 145.255C120.921 146.575 121.284 147.934 121.531 149.315C121.856 152.713 118.937 155.081 115.892 153.545C106.756 148.681 100.482 154.827 93.673 158.986C93.4471 159.27 93.2911 159.603 93.2176 159.958C93.1442 160.313 93.1552 160.681 93.25 161.031C95.1268 167.232 98.8983 172.689 104.035 176.638C105.755 177.892 108.406 177.949 110.676 178.358C111.693 178.418 112.714 178.333 113.707 178.104C114.547 177.868 115.442 177.93 116.241 178.28C117.04 178.629 117.694 179.245 118.091 180.021C118.592 180.836 118.796 181.8 118.667 182.748C118.539 183.696 118.086 184.571 117.386 185.223C116.117 186.402 115.137 187.857 114.521 189.475C113.905 191.094 113.669 192.833 113.834 194.557C113.986 196.897 114.535 199.195 115.455 201.352C117.203 205.003 119.459 208.401 121.517 211.912C121.61 212.15 121.757 212.363 121.945 212.535C122.134 212.707 122.36 212.834 122.605 212.905C122.85 212.976 123.109 212.989 123.36 212.944C123.612 212.899 123.849 212.796 124.055 212.645C129.271 209.825 134.459 207.005 138.294 202.438C139.492 200.922 140.339 199.16 140.775 197.278C141.424 194.712 142.665 193.288 145.005 193.33C146.117 193.362 147.174 193.818 147.96 194.604C148.747 195.391 149.203 196.448 149.234 197.56C149.276 199.803 148.834 202.03 147.937 204.087C146.618 206.578 144.894 208.832 142.834 210.756C137.307 216 130.625 219.497 123.745 222.612C122.827 223.173 121.741 223.388 120.679 223.22C119.617 223.052 118.65 222.512 117.95 221.696C112.518 215.895 108.384 209.003 105.826 201.479C104.718 197.381 104.564 193.084 105.375 188.917C105.459 188.297 105.036 187.113 104.599 186.972C97.3667 184.688 92.7424 179.443 89.2461 173.155C87.0928 169.075 85.1815 164.871 83.5221 160.565C82.2674 157.478 82.8736 155.885 85.4395 153.784C92.0939 148.356 99.3828 144.211 107.997 142.816C109.407 142.59 109.548 141.942 109.252 140.687C108.321 136.725 107.391 132.764 106.714 128.76C104.909 118.031 110.126 110.178 117.443 103.27C125.789 95.4029 135.489 89.4816 145.527 84.082C152.393 80.3882 153.21 80.5715 157.82 86.9016C164.193 95.6003 169.099 104.976 170.72 115.789C171.12 118.804 171.196 121.852 170.946 124.883C170.935 125.495 170.802 126.099 170.555 126.659C170.308 127.219 169.951 127.724 169.506 128.144C169.06 128.564 168.536 128.891 167.962 129.106C167.389 129.321 166.778 129.419 166.167 129.394C163.742 129.239 162.233 127.279 162.205 124.206L162.261 122.035Z" fill="#C8684E"/>
<path d="M154.662 149.808C154.816 145.567 156.359 141.494 159.054 138.215C161.749 134.937 165.447 132.635 169.578 131.664C173.6 130.798 177.796 131.31 181.491 133.118C185.187 134.926 188.166 137.925 189.951 141.631C191.717 145.336 192.206 149.522 191.342 153.534C190.477 157.547 188.307 161.16 185.171 163.808C184.135 164.646 182.987 165.334 181.759 165.852C180.731 166.339 179.553 166.406 178.476 166.04C177.398 165.674 176.505 164.903 175.985 163.891C175.466 162.879 175.36 161.704 175.69 160.615C176.02 159.527 176.761 158.609 177.756 158.056C179.062 157.333 180.188 156.323 181.047 155.102C181.907 153.881 182.478 152.481 182.718 151.007C183.103 148.588 182.533 146.113 181.128 144.106C179.724 142.099 177.594 140.717 175.19 140.25C169.945 139.432 164.433 143.337 164.136 148.356C164.145 150.073 164.57 151.761 165.377 153.277C169.071 160.706 172.92 168.066 176.656 175.453C177.177 176.42 177.647 177.413 178.066 178.428C178.487 179.362 178.554 180.417 178.256 181.397C177.958 182.377 177.314 183.216 176.444 183.757C175.55 184.348 174.47 184.589 173.41 184.436C172.349 184.283 171.382 183.745 170.692 182.925C170.183 182.331 169.748 181.678 169.395 180.98C165.293 173.324 161.105 165.711 157.2 157.957C156.134 155.314 155.285 152.589 154.662 149.808Z" fill="#C8684E"/>
<path d="M138.379 187.381C128.284 187.381 121.545 182.39 119.092 174.791C116.484 166.741 118.782 158.789 125.704 154.235C130.561 151.233 135.583 148.508 140.747 146.072C141.247 145.793 141.798 145.618 142.367 145.557C142.937 145.497 143.512 145.553 144.059 145.722C144.606 145.891 145.113 146.169 145.55 146.539C145.986 146.909 146.343 147.365 146.598 147.877C146.87 148.38 147.039 148.932 147.097 149.501C147.155 150.07 147.1 150.645 146.934 151.193C146.769 151.74 146.498 152.25 146.135 152.692C145.773 153.135 145.326 153.501 144.822 153.77C142.622 155.18 140.268 156.209 137.984 157.422C135.7 158.634 133.473 159.635 131.372 160.988C129.406 162.256 127.983 164.21 127.378 166.469C126.773 168.728 127.031 171.132 128.101 173.212C129.093 175.331 130.855 176.993 133.029 177.86C135.202 178.727 137.625 178.733 139.803 177.878C142.34 176.906 144.695 175.425 147.148 174.227C149.601 173.028 151.913 171.858 154.381 170.886C154.832 170.677 155.321 170.561 155.818 170.544C156.316 170.528 156.811 170.61 157.276 170.787C157.741 170.965 158.166 171.233 158.526 171.577C158.885 171.92 159.173 172.332 159.371 172.789C160.386 174.678 160.33 177.018 158.511 178.118C151.674 182.531 144.695 186.746 138.379 187.381Z" fill="#C8684E"/>
<path d="M229.567 129.845C229.615 133.906 228.33 137.87 225.908 141.13C223.486 144.39 220.061 146.765 216.159 147.891C212.379 149.05 208.321 148.928 204.616 147.544C200.912 146.159 197.769 143.59 195.674 140.236C193.066 136.006 190.726 131.523 188.527 127.011C186.553 122.951 188.527 119.215 192.404 119.807C194.01 120.256 195.389 121.292 196.267 122.711C198.142 125.672 199.495 128.971 201.257 132.016C202.336 134.006 203.678 135.841 205.247 137.472C206.581 138.834 208.344 139.691 210.239 139.9C212.133 140.108 214.041 139.654 215.638 138.614C219.275 136.485 221.404 132.27 220.318 128.478C219.435 125.997 218.36 123.588 217.104 121.273C215.906 118.721 214.468 116.268 213.467 113.646C212.057 109.981 213.1 107.852 216.188 106.935C217.011 106.624 217.92 106.631 218.739 106.954C219.557 107.277 220.226 107.894 220.614 108.683C223.617 114.605 226.437 120.611 229.186 126.645C229.499 127.681 229.628 128.764 229.567 129.845Z" fill="#C8684E"/>
<path d="M137.251 173.198C134.431 173.353 133.021 172.239 132.401 170.279C132.031 169.389 132.001 168.394 132.319 167.484C132.636 166.573 133.278 165.812 134.121 165.345C138.463 162.878 142.904 160.551 147.458 158.479C147.96 158.24 148.504 158.102 149.059 158.073C149.614 158.044 150.169 158.125 150.693 158.311C151.216 158.497 151.698 158.784 152.111 159.157C152.524 159.529 152.859 159.979 153.097 160.481C153.37 160.922 153.55 161.413 153.626 161.926C153.703 162.438 153.674 162.961 153.543 163.462C153.411 163.963 153.178 164.432 152.859 164.841C152.54 165.249 152.142 165.589 151.688 165.838C147.176 168.475 142.453 170.73 137.801 173.113C137.519 173.282 137.068 173.212 137.251 173.198Z" fill="#C8684E"/>
<path d="M215.962 130.649C215.033 131.947 213.938 133.117 212.705 134.131C211.959 134.598 211.063 134.766 210.198 134.601C209.333 134.437 208.562 133.951 208.039 133.243C207.178 132.229 206.44 131.117 205.839 129.93C204.091 126.617 202.329 123.29 200.736 119.892C200.412 119.331 200.213 118.707 200.155 118.062C200.096 117.417 200.178 116.767 200.395 116.157C200.612 115.546 200.959 114.991 201.413 114.528C201.866 114.065 202.414 113.707 203.02 113.477C204.909 112.73 206.812 112.927 207.813 114.704C210.435 119.314 212.818 124.079 215.257 128.802C215.403 129.258 215.474 129.734 215.469 130.212L215.962 130.649Z" fill="#C8684E"/>
</svg>
