<svg width="39" height="38" viewBox="0 0 39 38" fill="none" xmlns="http://www.w3.org/2000/svg">
<circle cx="20" cy="19" r="19" fill="white"/>
<path d="M19.5003 8.01109C14.7899 8.01109 10.3169 7.5924 8.60842 11.9737C7.90271 13.7833 8.00519 16.1333 8.00519 19.4984C8.00519 22.4512 7.91049 25.2265 8.60842 27.0218C10.313 31.4057 14.8223 30.9857 19.4977 30.9857C24.0083 30.9857 28.659 31.4549 30.3883 27.0218C31.0953 25.1941 30.9915 22.879 30.9915 19.4984C30.9915 15.0108 31.2393 12.1137 29.0612 9.9386C26.8558 7.73499 23.8734 8.01109 19.4951 8.01109H19.5003ZM18.4703 10.0812C28.2958 10.0656 29.5463 8.9742 28.8562 24.1363C28.611 29.4989 24.5246 28.9104 19.5016 28.9104C10.3429 28.9104 10.0795 28.6486 10.0795 19.4932C10.0795 10.2315 10.806 10.0864 18.4703 10.0786V10.0812ZM25.6364 11.988C24.8749 11.988 24.2574 12.605 24.2574 13.3659C24.2574 14.1268 24.8749 14.7438 25.6364 14.7438C26.3979 14.7438 27.0154 14.1268 27.0154 13.3659C27.0154 12.605 26.3979 11.988 25.6364 11.988ZM19.5003 13.5992C16.2402 13.5992 13.5977 16.2409 13.5977 19.4984C13.5977 22.7558 16.2402 25.3963 19.5003 25.3963C22.7603 25.3963 25.4016 22.7558 25.4016 19.4984C25.4016 16.2409 22.7603 13.5992 19.5003 13.5992ZM19.5003 15.6693C24.5661 15.6693 24.5726 23.3275 19.5003 23.3275C14.4358 23.3275 14.428 15.6693 19.5003 15.6693Z" fill="#424A63"/>
</svg>
