<svg width="38" height="38" viewBox="0 0 38 38" fill="none" xmlns="http://www.w3.org/2000/svg">
<circle cx="19" cy="19" r="19" fill="white"/>
<path d="M9.60003 21.3246V15.8377C9.60003 15.3751 9.24184 15 8.80002 15C8.35819 15 8 15.3751 8 15.8377V22.1623C8 22.6249 8.35819 23 8.80002 23H12C12.4418 23 12.8 22.6249 12.8 22.1623C12.8 21.6996 12.4418 21.3246 12 21.3246H9.60003Z" fill="#424A63"/>
<path d="M14.5748 23H14.2251C13.8799 23 13.6 22.7069 13.6 22.3454V15.6546C13.6 15.2931 13.8799 15 14.2251 15H14.5748C14.9201 15 15.2 15.2931 15.2 15.6546V22.3454C15.2 22.7069 14.9201 23 14.5748 23Z" fill="#424A63"/>
<path d="M22.1538 15.8378V19.7015C22.1538 19.7015 18.4673 15.3378 18.411 15.2804C18.2349 15.1011 17.9753 14.9907 17.6872 15.0006C17.1851 15.0179 16.8 15.4161 16.8 15.8721V22.1622C16.8 22.6249 17.2133 23 17.7231 23C18.2329 23 18.6462 22.6249 18.6462 22.1622V18.322C18.6462 18.322 22.3888 22.7237 22.4437 22.771C22.607 22.9112 22.8263 22.998 23.0683 23C23.581 23.0042 24 22.5927 24 22.1275V15.8378C24 15.3751 23.5867 15 23.0769 15C22.5671 15.0001 22.1538 15.3751 22.1538 15.8378Z" fill="#424A63"/>
<path d="M30.4 15.8377C30.4 15.3751 30.0418 15 29.6 15H26.4C25.9582 15 25.6 15.3751 25.6 15.8377V22.1623C25.6 22.6249 25.9582 23 26.4 23H29.6C30.0418 23 30.4 22.6249 30.4 22.1623C30.4 21.6996 30.0418 21.3246 29.6 21.3246H27.2V19.8376H29.6C30.0418 19.8376 30.4 19.4626 30.4 18.9999C30.4 18.5373 30.0418 18.1622 29.6 18.1622H27.2V16.6752H29.6C30.0418 16.6754 30.4 16.3004 30.4 15.8377Z" fill="#424A63"/>
</svg>
