<svg width="38" height="38" viewBox="0 0 38 38" fill="none" xmlns="http://www.w3.org/2000/svg">
<circle cx="19" cy="19" r="19" fill="white"/>
<path d="M18.5 8C14.2727 8 10.8333 11.4394 10.8333 15.6667C10.8333 16.9357 11.1506 18.194 11.7538 19.31L18.0807 30.7529C18.165 30.9055 18.3255 31 18.5 31C18.6745 31 18.835 30.9055 18.9193 30.7529L25.2486 19.3063C25.8494 18.194 26.1667 16.9357 26.1667 15.6666C26.1667 11.4394 22.7273 8 18.5 8ZM18.5 19.5C16.3863 19.5 14.6667 17.7803 14.6667 15.6667C14.6667 13.553 16.3863 11.8334 18.5 11.8334C20.6137 11.8334 22.3333 13.553 22.3333 15.6667C22.3333 17.7803 20.6137 19.5 18.5 19.5Z" fill="#424A63"/>
</svg>
