<svg width="38" height="38" viewBox="0 0 38 38" fill="none" xmlns="http://www.w3.org/2000/svg">
<circle cx="19" cy="19" r="19" fill="#424A63"/>
<path d="M19 0C8.50821 0 0 8.50821 0 19C0 29.4918 8.50821 38 19 38C29.4918 38 38 29.4918 38 19C38 8.50821 29.4918 0 19 0ZM28.5319 14.5374V17.1101C27.3188 17.1105 26.1401 16.8728 25.0285 16.4038C24.3137 16.1021 23.6477 15.7132 23.0386 15.2433L23.0569 23.162C23.0492 24.9451 22.3438 26.6204 21.067 27.8824C20.0279 28.9095 18.7113 29.5627 17.2842 29.7742C16.9489 29.8238 16.6076 29.8493 16.2625 29.8493C14.7349 29.8493 13.2846 29.3544 12.0982 28.4414C11.8749 28.2695 11.6614 28.0831 11.4581 27.8824C10.0744 26.5147 9.36084 24.6612 9.481 22.7112C9.57266 21.2269 10.1669 19.8114 11.1576 18.7019C12.4683 17.2337 14.302 16.4187 16.2625 16.4187C16.6076 16.4187 16.9489 16.4446 17.2842 16.4943V17.4455V20.0915C16.9663 19.9867 16.6267 19.929 16.2731 19.929C14.4819 19.929 13.0328 21.3904 13.0596 23.1829C13.0766 24.3298 13.7031 25.3323 14.6271 25.885C15.0614 26.1447 15.5609 26.3056 16.094 26.3349C16.5117 26.3578 16.9128 26.2996 17.2842 26.177C18.564 25.7543 19.4872 24.5522 19.4872 23.1345L19.4914 17.8318V8.1507H23.0343C23.0377 8.50176 23.0733 8.84428 23.1396 9.17618C23.407 10.5196 24.1642 11.6851 25.2181 12.4797C26.1371 13.1729 27.2814 13.5837 28.5217 13.5837C28.5225 13.5837 28.5327 13.5837 28.5318 13.5829V14.5374H28.5319Z" fill="white"/>
</svg>
